<mxfile host="app.diagrams.net" modified="2020-07-12T00:51:13.367Z" agent="5.0 (X11)" etag="mv81oJQJJTY1Qkp3WRm0" version="13.3.5" type="github" pages="2">
  <diagram id="Pf8WNJaXz8v3mVxfZ9bQ" name="Page-1">
    <mxGraphModel dx="1115" dy="773" grid="1" gridSize="10" guides="1" tooltips="1" connect="1" arrows="1" fold="1" page="1" pageScale="1" pageWidth="827" pageHeight="1169" math="0" shadow="0">
      <root>
        <mxCell id="0" />
        <mxCell id="1" parent="0" />
        <mxCell id="T7uKuAlKiV4LEcT5qUAH-30" style="edgeStyle=orthogonalEdgeStyle;rounded=0;orthogonalLoop=1;jettySize=auto;html=1;exitX=0.5;exitY=1;exitDx=0;exitDy=0;" parent="1" source="T7uKuAlKiV4LEcT5qUAH-2" target="T7uKuAlKiV4LEcT5qUAH-4" edge="1">
          <mxGeometry relative="1" as="geometry" />
        </mxCell>
        <mxCell id="T7uKuAlKiV4LEcT5qUAH-2" value="Finca" style="rounded=1;whiteSpace=wrap;html=1;" parent="1" vertex="1">
          <mxGeometry x="296.5" y="315" width="120" height="60" as="geometry" />
        </mxCell>
        <mxCell id="T7uKuAlKiV4LEcT5qUAH-31" style="edgeStyle=orthogonalEdgeStyle;rounded=0;orthogonalLoop=1;jettySize=auto;html=1;exitX=0.5;exitY=1;exitDx=0;exitDy=0;entryX=0.5;entryY=0;entryDx=0;entryDy=0;" parent="1" source="T7uKuAlKiV4LEcT5qUAH-3" target="T7uKuAlKiV4LEcT5qUAH-5" edge="1">
          <mxGeometry relative="1" as="geometry" />
        </mxCell>
        <mxCell id="T7uKuAlKiV4LEcT5qUAH-3" value="Parcela" style="rounded=1;whiteSpace=wrap;html=1;" parent="1" vertex="1">
          <mxGeometry x="457.5" y="319" width="120" height="60" as="geometry" />
        </mxCell>
        <mxCell id="T7uKuAlKiV4LEcT5qUAH-4" value="Datos descriptivos administrativos" style="shape=process;whiteSpace=wrap;html=1;backgroundOutline=1;" parent="1" vertex="1">
          <mxGeometry x="296.5" y="426" width="120" height="60" as="geometry" />
        </mxCell>
        <mxCell id="T7uKuAlKiV4LEcT5qUAH-5" value="Datos descriptivos físicos estáticos de la parcela" style="shape=process;whiteSpace=wrap;html=1;backgroundOutline=1;" parent="1" vertex="1">
          <mxGeometry x="457.5" y="426" width="120" height="60" as="geometry" />
        </mxCell>
        <mxCell id="T7uKuAlKiV4LEcT5qUAH-32" style="edgeStyle=orthogonalEdgeStyle;rounded=0;orthogonalLoop=1;jettySize=auto;html=1;exitX=0.5;exitY=1;exitDx=0;exitDy=0;entryX=0.5;entryY=0;entryDx=0;entryDy=0;" parent="1" source="T7uKuAlKiV4LEcT5qUAH-7" target="T7uKuAlKiV4LEcT5qUAH-8" edge="1">
          <mxGeometry relative="1" as="geometry" />
        </mxCell>
        <mxCell id="T7uKuAlKiV4LEcT5qUAH-7" value="Ciclos" style="rounded=1;whiteSpace=wrap;html=1;" parent="1" vertex="1">
          <mxGeometry x="616.5" y="315" width="120" height="60" as="geometry" />
        </mxCell>
        <mxCell id="T7uKuAlKiV4LEcT5qUAH-21" style="edgeStyle=orthogonalEdgeStyle;rounded=0;orthogonalLoop=1;jettySize=auto;html=1;exitX=0.5;exitY=1;exitDx=0;exitDy=0;entryX=0.5;entryY=0;entryDx=0;entryDy=0;" parent="1" source="T7uKuAlKiV4LEcT5qUAH-8" target="MoPdLQefdPZBN2O15THt-11" edge="1">
          <mxGeometry relative="1" as="geometry">
            <mxPoint x="772.5" y="527" as="targetPoint" />
          </mxGeometry>
        </mxCell>
        <mxCell id="T7uKuAlKiV4LEcT5qUAH-8" value="Datos dinámicos una especie" style="shape=process;whiteSpace=wrap;html=1;backgroundOutline=1;" parent="1" vertex="1">
          <mxGeometry x="616.5" y="426" width="120" height="60" as="geometry" />
        </mxCell>
        <mxCell id="psUA1e9XgOscagl4p7lL-10" style="edgeStyle=orthogonalEdgeStyle;rounded=0;orthogonalLoop=1;jettySize=auto;html=1;exitX=0.5;exitY=1;exitDx=0;exitDy=0;" parent="1" source="T7uKuAlKiV4LEcT5qUAH-25" target="psUA1e9XgOscagl4p7lL-1" edge="1">
          <mxGeometry relative="1" as="geometry" />
        </mxCell>
        <mxCell id="T7uKuAlKiV4LEcT5qUAH-25" value="Agricultor" style="rounded=1;whiteSpace=wrap;html=1;fillColor=#d5e8d4;strokeColor=#82b366;" parent="1" vertex="1">
          <mxGeometry x="457.5" y="90" width="120" height="60" as="geometry" />
        </mxCell>
        <mxCell id="T7uKuAlKiV4LEcT5qUAH-41" style="edgeStyle=orthogonalEdgeStyle;rounded=0;orthogonalLoop=1;jettySize=auto;html=1;exitX=1;exitY=0.5;exitDx=0;exitDy=0;entryX=0;entryY=0.5;entryDx=0;entryDy=0;" parent="1" source="T7uKuAlKiV4LEcT5qUAH-33" target="T7uKuAlKiV4LEcT5qUAH-2" edge="1">
          <mxGeometry relative="1" as="geometry">
            <Array as="points">
              <mxPoint x="230" y="460" />
              <mxPoint x="230" y="345" />
            </Array>
          </mxGeometry>
        </mxCell>
        <mxCell id="T7uKuAlKiV4LEcT5qUAH-58" style="edgeStyle=orthogonalEdgeStyle;rounded=0;orthogonalLoop=1;jettySize=auto;html=1;exitX=1;exitY=0.5;exitDx=0;exitDy=0;entryX=0;entryY=0.5;entryDx=0;entryDy=0;" parent="1" source="T7uKuAlKiV4LEcT5qUAH-33" target="MoPdLQefdPZBN2O15THt-11" edge="1">
          <mxGeometry relative="1" as="geometry">
            <mxPoint x="541.5" y="552" as="targetPoint" />
            <Array as="points">
              <mxPoint x="230" y="460" />
              <mxPoint x="230" y="552" />
            </Array>
          </mxGeometry>
        </mxCell>
        <mxCell id="ty3xJy8i2SBxekscLIbG-2" style="edgeStyle=orthogonalEdgeStyle;rounded=0;orthogonalLoop=1;jettySize=auto;html=1;entryX=0.5;entryY=1;entryDx=0;entryDy=0;" parent="1" source="T7uKuAlKiV4LEcT5qUAH-33" target="MoPdLQefdPZBN2O15THt-13" edge="1">
          <mxGeometry relative="1" as="geometry">
            <Array as="points">
              <mxPoint x="230" y="460" />
              <mxPoint x="230" y="659" />
            </Array>
          </mxGeometry>
        </mxCell>
        <mxCell id="T7uKuAlKiV4LEcT5qUAH-33" value="administrador" style="rounded=1;whiteSpace=wrap;html=1;fillColor=#f8cecc;strokeColor=#b85450;" parent="1" vertex="1">
          <mxGeometry x="60" y="430" width="120" height="60" as="geometry" />
        </mxCell>
        <mxCell id="T7uKuAlKiV4LEcT5qUAH-36" value="Creates entities" style="text;html=1;align=center;verticalAlign=middle;resizable=0;points=[];autosize=1;" parent="1" vertex="1">
          <mxGeometry x="179" y="321" width="100" height="20" as="geometry" />
        </mxCell>
        <mxCell id="T7uKuAlKiV4LEcT5qUAH-61" value="&lt;div&gt;Registro&lt;br&gt;&lt;/div&gt;&lt;div&gt;- Valor (tipo definido dentro de: numérico porcentaje rango texto boleano e imágen)&lt;/div&gt;&lt;div&gt;- Fecha&lt;br&gt;&lt;/div&gt;" style="shape=process;whiteSpace=wrap;html=1;backgroundOutline=1;" parent="1" vertex="1">
          <mxGeometry x="626.5" y="720" width="120" height="120" as="geometry" />
        </mxCell>
        <mxCell id="MoPdLQefdPZBN2O15THt-14" style="edgeStyle=orthogonalEdgeStyle;rounded=0;orthogonalLoop=1;jettySize=auto;html=1;exitX=0.5;exitY=1;exitDx=0;exitDy=0;entryX=0;entryY=0.5;entryDx=0;entryDy=0;" parent="1" source="MoPdLQefdPZBN2O15THt-11" target="MoPdLQefdPZBN2O15THt-13" edge="1">
          <mxGeometry relative="1" as="geometry" />
        </mxCell>
        <mxCell id="MoPdLQefdPZBN2O15THt-11" value="&lt;div&gt;categorías &lt;br&gt;&lt;/div&gt;&lt;div&gt;ej: tareas culturales&lt;br&gt;&lt;/div&gt;" style="rounded=1;whiteSpace=wrap;html=1;" parent="1" vertex="1">
          <mxGeometry x="639" y="528" width="75" height="48" as="geometry" />
        </mxCell>
        <mxCell id="MoPdLQefdPZBN2O15THt-13" value="Variables ej: abono" style="rounded=1;whiteSpace=wrap;html=1;direction=south;" parent="1" vertex="1">
          <mxGeometry x="646" y="631" width="61.5" height="56" as="geometry" />
        </mxCell>
        <mxCell id="m6jPTPbGRtpeS2LB5_UH-1" style="edgeStyle=orthogonalEdgeStyle;rounded=0;orthogonalLoop=1;jettySize=auto;html=1;exitX=0.5;exitY=1;exitDx=0;exitDy=0;" parent="1" source="m6jPTPbGRtpeS2LB5_UH-2" target="m6jPTPbGRtpeS2LB5_UH-5" edge="1">
          <mxGeometry relative="1" as="geometry" />
        </mxCell>
        <mxCell id="m6jPTPbGRtpeS2LB5_UH-2" value="Farm" style="rounded=1;whiteSpace=wrap;html=1;" parent="1" vertex="1">
          <mxGeometry x="290" y="1340" width="120" height="60" as="geometry" />
        </mxCell>
        <mxCell id="m6jPTPbGRtpeS2LB5_UH-3" style="edgeStyle=orthogonalEdgeStyle;rounded=0;orthogonalLoop=1;jettySize=auto;html=1;exitX=0.5;exitY=1;exitDx=0;exitDy=0;entryX=0.5;entryY=0;entryDx=0;entryDy=0;" parent="1" source="m6jPTPbGRtpeS2LB5_UH-4" target="m6jPTPbGRtpeS2LB5_UH-6" edge="1">
          <mxGeometry relative="1" as="geometry" />
        </mxCell>
        <mxCell id="m6jPTPbGRtpeS2LB5_UH-4" value="Field" style="rounded=1;whiteSpace=wrap;html=1;" parent="1" vertex="1">
          <mxGeometry x="450" y="1340" width="120" height="60" as="geometry" />
        </mxCell>
        <mxCell id="m6jPTPbGRtpeS2LB5_UH-5" value="Administrative description" style="shape=process;whiteSpace=wrap;html=1;backgroundOutline=1;" parent="1" vertex="1">
          <mxGeometry x="290" y="1420" width="120" height="60" as="geometry" />
        </mxCell>
        <mxCell id="m6jPTPbGRtpeS2LB5_UH-6" value="Physical data (scoenopoietic)" style="shape=process;whiteSpace=wrap;html=1;backgroundOutline=1;" parent="1" vertex="1">
          <mxGeometry x="450" y="1420" width="120" height="60" as="geometry" />
        </mxCell>
        <mxCell id="m6jPTPbGRtpeS2LB5_UH-7" style="edgeStyle=orthogonalEdgeStyle;rounded=0;orthogonalLoop=1;jettySize=auto;html=1;exitX=0.5;exitY=1;exitDx=0;exitDy=0;entryX=0.5;entryY=0;entryDx=0;entryDy=0;" parent="1" source="m6jPTPbGRtpeS2LB5_UH-8" target="m6jPTPbGRtpeS2LB5_UH-12" edge="1">
          <mxGeometry relative="1" as="geometry" />
        </mxCell>
        <mxCell id="m6jPTPbGRtpeS2LB5_UH-8" value="Cycles" style="rounded=1;whiteSpace=wrap;html=1;" parent="1" vertex="1">
          <mxGeometry x="610" y="1340" width="120" height="60" as="geometry" />
        </mxCell>
        <mxCell id="m6jPTPbGRtpeS2LB5_UH-9" style="edgeStyle=orthogonalEdgeStyle;rounded=0;orthogonalLoop=1;jettySize=auto;html=1;exitX=0.5;exitY=1;exitDx=0;exitDy=0;entryX=0.5;entryY=0;entryDx=0;entryDy=0;" parent="1" source="m6jPTPbGRtpeS2LB5_UH-12" target="m6jPTPbGRtpeS2LB5_UH-31" edge="1">
          <mxGeometry relative="1" as="geometry">
            <mxPoint x="575" y="1540" as="targetPoint" />
          </mxGeometry>
        </mxCell>
        <mxCell id="m6jPTPbGRtpeS2LB5_UH-10" style="edgeStyle=orthogonalEdgeStyle;rounded=0;orthogonalLoop=1;jettySize=auto;html=1;exitX=0.5;exitY=1;exitDx=0;exitDy=0;entryX=0.5;entryY=0;entryDx=0;entryDy=0;" parent="1" source="m6jPTPbGRtpeS2LB5_UH-12" target="m6jPTPbGRtpeS2LB5_UH-42" edge="1">
          <mxGeometry relative="1" as="geometry">
            <mxPoint x="766" y="1530" as="targetPoint" />
          </mxGeometry>
        </mxCell>
        <mxCell id="m6jPTPbGRtpeS2LB5_UH-11" style="edgeStyle=orthogonalEdgeStyle;rounded=0;orthogonalLoop=1;jettySize=auto;html=1;entryX=0.5;entryY=0;entryDx=0;entryDy=0;" parent="1" source="m6jPTPbGRtpeS2LB5_UH-12" target="m6jPTPbGRtpeS2LB5_UH-40" edge="1">
          <mxGeometry relative="1" as="geometry" />
        </mxCell>
        <mxCell id="m6jPTPbGRtpeS2LB5_UH-12" value="Dynamical data (bionomic)" style="shape=process;whiteSpace=wrap;html=1;backgroundOutline=1;" parent="1" vertex="1">
          <mxGeometry x="610" y="1420" width="120" height="60" as="geometry" />
        </mxCell>
        <mxCell id="m6jPTPbGRtpeS2LB5_UH-13" style="edgeStyle=orthogonalEdgeStyle;rounded=0;orthogonalLoop=1;jettySize=auto;html=1;exitX=0.5;exitY=1;exitDx=0;exitDy=0;" parent="1" source="m6jPTPbGRtpeS2LB5_UH-19" target="m6jPTPbGRtpeS2LB5_UH-2" edge="1">
          <mxGeometry relative="1" as="geometry" />
        </mxCell>
        <mxCell id="m6jPTPbGRtpeS2LB5_UH-14" style="edgeStyle=orthogonalEdgeStyle;rounded=0;orthogonalLoop=1;jettySize=auto;html=1;exitX=0.5;exitY=1;exitDx=0;exitDy=0;entryX=0.5;entryY=0;entryDx=0;entryDy=0;" parent="1" source="m6jPTPbGRtpeS2LB5_UH-28" target="m6jPTPbGRtpeS2LB5_UH-8" edge="1">
          <mxGeometry relative="1" as="geometry">
            <Array as="points">
              <mxPoint x="470" y="1310" />
              <mxPoint x="670" y="1310" />
            </Array>
          </mxGeometry>
        </mxCell>
        <mxCell id="m6jPTPbGRtpeS2LB5_UH-15" style="edgeStyle=orthogonalEdgeStyle;rounded=0;orthogonalLoop=1;jettySize=auto;html=1;exitX=0.5;exitY=1;exitDx=0;exitDy=0;" parent="1" source="m6jPTPbGRtpeS2LB5_UH-19" target="m6jPTPbGRtpeS2LB5_UH-4" edge="1">
          <mxGeometry relative="1" as="geometry">
            <mxPoint x="470" y="1290" as="sourcePoint" />
          </mxGeometry>
        </mxCell>
        <mxCell id="m6jPTPbGRtpeS2LB5_UH-16" style="edgeStyle=orthogonalEdgeStyle;rounded=0;orthogonalLoop=1;jettySize=auto;html=1;exitX=0.25;exitY=1;exitDx=0;exitDy=0;entryX=1;entryY=0.75;entryDx=0;entryDy=0;" parent="1" source="m6jPTPbGRtpeS2LB5_UH-19" target="m6jPTPbGRtpeS2LB5_UH-5" edge="1">
          <mxGeometry relative="1" as="geometry" />
        </mxCell>
        <mxCell id="m6jPTPbGRtpeS2LB5_UH-17" style="edgeStyle=orthogonalEdgeStyle;rounded=0;orthogonalLoop=1;jettySize=auto;html=1;exitX=0.25;exitY=1;exitDx=0;exitDy=0;entryX=0;entryY=0.75;entryDx=0;entryDy=0;" parent="1" source="m6jPTPbGRtpeS2LB5_UH-19" target="m6jPTPbGRtpeS2LB5_UH-6" edge="1">
          <mxGeometry relative="1" as="geometry">
            <Array as="points">
              <mxPoint x="440" y="1465" />
            </Array>
          </mxGeometry>
        </mxCell>
        <mxCell id="m6jPTPbGRtpeS2LB5_UH-18" style="edgeStyle=orthogonalEdgeStyle;rounded=0;orthogonalLoop=1;jettySize=auto;html=1;exitX=1;exitY=0.5;exitDx=0;exitDy=0;entryX=0;entryY=0.75;entryDx=0;entryDy=0;" parent="1" source="m6jPTPbGRtpeS2LB5_UH-19" target="m6jPTPbGRtpeS2LB5_UH-12" edge="1">
          <mxGeometry relative="1" as="geometry">
            <Array as="points">
              <mxPoint x="590" y="1250" />
              <mxPoint x="590" y="1465" />
            </Array>
          </mxGeometry>
        </mxCell>
        <mxCell id="m6jPTPbGRtpeS2LB5_UH-19" value="User" style="rounded=1;whiteSpace=wrap;html=1;fillColor=#d5e8d4;strokeColor=#82b366;" parent="1" vertex="1">
          <mxGeometry x="410" y="1220" width="120" height="60" as="geometry" />
        </mxCell>
        <mxCell id="m6jPTPbGRtpeS2LB5_UH-20" style="edgeStyle=orthogonalEdgeStyle;rounded=0;orthogonalLoop=1;jettySize=auto;html=1;exitX=1;exitY=0.5;exitDx=0;exitDy=0;entryX=0;entryY=0.75;entryDx=0;entryDy=0;" parent="1" source="m6jPTPbGRtpeS2LB5_UH-23" target="m6jPTPbGRtpeS2LB5_UH-2" edge="1">
          <mxGeometry relative="1" as="geometry">
            <Array as="points">
              <mxPoint x="220" y="1555" />
              <mxPoint x="220" y="1385" />
            </Array>
          </mxGeometry>
        </mxCell>
        <mxCell id="m6jPTPbGRtpeS2LB5_UH-21" style="edgeStyle=orthogonalEdgeStyle;rounded=0;orthogonalLoop=1;jettySize=auto;html=1;exitX=1;exitY=0.5;exitDx=0;exitDy=0;entryX=0;entryY=0.5;entryDx=0;entryDy=0;" parent="1" source="m6jPTPbGRtpeS2LB5_UH-23" target="m6jPTPbGRtpeS2LB5_UH-31" edge="1">
          <mxGeometry relative="1" as="geometry" />
        </mxCell>
        <mxCell id="m6jPTPbGRtpeS2LB5_UH-22" style="edgeStyle=orthogonalEdgeStyle;rounded=0;orthogonalLoop=1;jettySize=auto;html=1;entryX=0;entryY=0.25;entryDx=0;entryDy=0;" parent="1" source="m6jPTPbGRtpeS2LB5_UH-23" target="m6jPTPbGRtpeS2LB5_UH-5" edge="1">
          <mxGeometry relative="1" as="geometry" />
        </mxCell>
        <mxCell id="m6jPTPbGRtpeS2LB5_UH-23" value="Administrator" style="rounded=1;whiteSpace=wrap;html=1;fillColor=#f8cecc;strokeColor=#b85450;" parent="1" vertex="1">
          <mxGeometry x="60" y="1525" width="120" height="60" as="geometry" />
        </mxCell>
        <mxCell id="m6jPTPbGRtpeS2LB5_UH-24" value="Creates variables" style="text;html=1;align=center;verticalAlign=middle;resizable=0;points=[];autosize=1;" parent="1" vertex="1">
          <mxGeometry x="243" y="1565" width="110" height="20" as="geometry" />
        </mxCell>
        <mxCell id="m6jPTPbGRtpeS2LB5_UH-25" style="edgeStyle=orthogonalEdgeStyle;rounded=0;orthogonalLoop=1;jettySize=auto;html=1;exitX=1;exitY=0.5;exitDx=0;exitDy=0;entryX=0;entryY=0.5;entryDx=0;entryDy=0;" parent="1" source="m6jPTPbGRtpeS2LB5_UH-26" target="m6jPTPbGRtpeS2LB5_UH-34" edge="1">
          <mxGeometry relative="1" as="geometry">
            <mxPoint x="395.99" y="1732.02" as="targetPoint" />
          </mxGeometry>
        </mxCell>
        <mxCell id="m6jPTPbGRtpeS2LB5_UH-26" value="User" style="rounded=1;whiteSpace=wrap;html=1;fillColor=#d5e8d4;strokeColor=#82b366;" parent="1" vertex="1">
          <mxGeometry x="60" y="1770" width="120" height="60" as="geometry" />
        </mxCell>
        <mxCell id="m6jPTPbGRtpeS2LB5_UH-27" value="Records values" style="text;html=1;align=center;verticalAlign=middle;resizable=0;points=[];autosize=1;" parent="1" vertex="1">
          <mxGeometry x="215" y="1770" width="100" height="20" as="geometry" />
        </mxCell>
        <mxCell id="m6jPTPbGRtpeS2LB5_UH-28" value="Creates entities" style="text;html=1;align=center;verticalAlign=middle;resizable=0;points=[];autosize=1;" parent="1" vertex="1">
          <mxGeometry x="455" y="1280" width="100" height="20" as="geometry" />
        </mxCell>
        <mxCell id="m6jPTPbGRtpeS2LB5_UH-29" style="edgeStyle=orthogonalEdgeStyle;rounded=0;orthogonalLoop=1;jettySize=auto;html=1;exitX=0.5;exitY=1;exitDx=0;exitDy=0;entryX=0;entryY=0.5;entryDx=0;entryDy=0;" parent="1" source="m6jPTPbGRtpeS2LB5_UH-31" target="m6jPTPbGRtpeS2LB5_UH-33" edge="1">
          <mxGeometry relative="1" as="geometry" />
        </mxCell>
        <mxCell id="m6jPTPbGRtpeS2LB5_UH-30" style="edgeStyle=orthogonalEdgeStyle;rounded=0;orthogonalLoop=1;jettySize=auto;html=1;exitX=0.5;exitY=1;exitDx=0;exitDy=0;" parent="1" source="m6jPTPbGRtpeS2LB5_UH-31" target="m6jPTPbGRtpeS2LB5_UH-38" edge="1">
          <mxGeometry relative="1" as="geometry" />
        </mxCell>
        <mxCell id="m6jPTPbGRtpeS2LB5_UH-31" value="Crops" style="rounded=1;whiteSpace=wrap;html=1;" parent="1" vertex="1">
          <mxGeometry x="535" y="1531" width="75" height="48" as="geometry" />
        </mxCell>
        <mxCell id="m6jPTPbGRtpeS2LB5_UH-32" style="edgeStyle=orthogonalEdgeStyle;rounded=0;orthogonalLoop=1;jettySize=auto;html=1;exitX=1;exitY=0.5;exitDx=0;exitDy=0;" parent="1" source="m6jPTPbGRtpeS2LB5_UH-33" target="m6jPTPbGRtpeS2LB5_UH-34" edge="1">
          <mxGeometry relative="1" as="geometry" />
        </mxCell>
        <mxCell id="m6jPTPbGRtpeS2LB5_UH-33" value="Height" style="rounded=1;whiteSpace=wrap;html=1;direction=south;" parent="1" vertex="1">
          <mxGeometry x="515" y="1620" width="50" height="56" as="geometry" />
        </mxCell>
        <mxCell id="m6jPTPbGRtpeS2LB5_UH-34" value="&lt;div&gt;Record&lt;br&gt;&lt;/div&gt;&lt;div&gt;- Value (type among float integer boolean character photo..)&lt;/div&gt;&lt;div&gt;- Date&lt;br&gt;&lt;/div&gt;" style="shape=process;whiteSpace=wrap;html=1;backgroundOutline=1;" parent="1" vertex="1">
          <mxGeometry x="560" y="1740" width="120" height="120" as="geometry" />
        </mxCell>
        <mxCell id="m6jPTPbGRtpeS2LB5_UH-35" style="edgeStyle=orthogonalEdgeStyle;rounded=0;orthogonalLoop=1;jettySize=auto;html=1;exitX=1;exitY=0.5;exitDx=0;exitDy=0;" parent="1" source="m6jPTPbGRtpeS2LB5_UH-36" target="m6jPTPbGRtpeS2LB5_UH-34" edge="1">
          <mxGeometry relative="1" as="geometry" />
        </mxCell>
        <mxCell id="m6jPTPbGRtpeS2LB5_UH-36" value="Abun-dance" style="rounded=1;whiteSpace=wrap;html=1;direction=south;" parent="1" vertex="1">
          <mxGeometry x="645" y="1620" width="50" height="56" as="geometry" />
        </mxCell>
        <mxCell id="m6jPTPbGRtpeS2LB5_UH-37" style="edgeStyle=orthogonalEdgeStyle;rounded=0;orthogonalLoop=1;jettySize=auto;html=1;exitX=1;exitY=0.5;exitDx=0;exitDy=0;" parent="1" source="m6jPTPbGRtpeS2LB5_UH-38" edge="1">
          <mxGeometry relative="1" as="geometry">
            <mxPoint x="620" y="1740" as="targetPoint" />
          </mxGeometry>
        </mxCell>
        <mxCell id="m6jPTPbGRtpeS2LB5_UH-38" value="Flowered yes no" style="rounded=1;whiteSpace=wrap;html=1;direction=south;" parent="1" vertex="1">
          <mxGeometry x="570" y="1620" width="50" height="56" as="geometry" />
        </mxCell>
        <mxCell id="m6jPTPbGRtpeS2LB5_UH-39" style="edgeStyle=orthogonalEdgeStyle;rounded=0;orthogonalLoop=1;jettySize=auto;html=1;exitX=0.5;exitY=1;exitDx=0;exitDy=0;entryX=0;entryY=0.5;entryDx=0;entryDy=0;" parent="1" source="m6jPTPbGRtpeS2LB5_UH-40" target="m6jPTPbGRtpeS2LB5_UH-36" edge="1">
          <mxGeometry relative="1" as="geometry" />
        </mxCell>
        <mxCell id="m6jPTPbGRtpeS2LB5_UH-40" value="Weeds" style="rounded=1;whiteSpace=wrap;html=1;" parent="1" vertex="1">
          <mxGeometry x="632.5" y="1532" width="75" height="48" as="geometry" />
        </mxCell>
        <mxCell id="m6jPTPbGRtpeS2LB5_UH-41" style="edgeStyle=orthogonalEdgeStyle;rounded=0;orthogonalLoop=1;jettySize=auto;html=1;exitX=0.5;exitY=1;exitDx=0;exitDy=0;entryX=0;entryY=0.5;entryDx=0;entryDy=0;" parent="1" source="m6jPTPbGRtpeS2LB5_UH-42" target="m6jPTPbGRtpeS2LB5_UH-44" edge="1">
          <mxGeometry relative="1" as="geometry" />
        </mxCell>
        <mxCell id="m6jPTPbGRtpeS2LB5_UH-42" value="Other" style="rounded=1;whiteSpace=wrap;html=1;" parent="1" vertex="1">
          <mxGeometry x="730" y="1531" width="75" height="48" as="geometry" />
        </mxCell>
        <mxCell id="m6jPTPbGRtpeS2LB5_UH-43" style="edgeStyle=orthogonalEdgeStyle;rounded=0;orthogonalLoop=1;jettySize=auto;html=1;exitX=1;exitY=0.5;exitDx=0;exitDy=0;" parent="1" source="m6jPTPbGRtpeS2LB5_UH-44" target="m6jPTPbGRtpeS2LB5_UH-34" edge="1">
          <mxGeometry relative="1" as="geometry" />
        </mxCell>
        <mxCell id="m6jPTPbGRtpeS2LB5_UH-44" value="Variable y" style="rounded=1;whiteSpace=wrap;html=1;direction=south;" parent="1" vertex="1">
          <mxGeometry x="742.5" y="1620" width="50" height="56" as="geometry" />
        </mxCell>
        <mxCell id="m6jPTPbGRtpeS2LB5_UH-45" value="Records values" style="text;html=1;align=center;verticalAlign=middle;resizable=0;points=[];autosize=1;" parent="1" vertex="1">
          <mxGeometry x="243" y="1490" width="100" height="20" as="geometry" />
        </mxCell>
        <mxCell id="m6jPTPbGRtpeS2LB5_UH-47" value="Creates variables" style="text;html=1;align=center;verticalAlign=middle;resizable=0;points=[];autosize=1;" parent="1" vertex="1">
          <mxGeometry x="279" y="525" width="110" height="20" as="geometry" />
        </mxCell>
        <mxCell id="m6jPTPbGRtpeS2LB5_UH-48" value="&lt;div&gt;Records &lt;br&gt;&lt;/div&gt;&lt;div&gt;values&lt;/div&gt;" style="text;html=1;align=center;verticalAlign=middle;resizable=0;points=[];autosize=1;" parent="1" vertex="1">
          <mxGeometry x="521.5" y="385" width="60" height="30" as="geometry" />
        </mxCell>
        <mxCell id="m6jPTPbGRtpeS2LB5_UH-49" value="Creates entities" style="text;html=1;align=center;verticalAlign=middle;resizable=0;points=[];autosize=1;" parent="1" vertex="1">
          <mxGeometry x="165" y="1360" width="100" height="20" as="geometry" />
        </mxCell>
        <mxCell id="psUA1e9XgOscagl4p7lL-11" style="edgeStyle=orthogonalEdgeStyle;rounded=0;orthogonalLoop=1;jettySize=auto;html=1;entryX=0.5;entryY=0;entryDx=0;entryDy=0;exitX=0.5;exitY=1;exitDx=0;exitDy=0;" parent="1" source="psUA1e9XgOscagl4p7lL-1" target="T7uKuAlKiV4LEcT5qUAH-2" edge="1">
          <mxGeometry relative="1" as="geometry">
            <mxPoint x="519" y="311" as="sourcePoint" />
            <Array as="points">
              <mxPoint x="518" y="290" />
              <mxPoint x="357" y="290" />
            </Array>
          </mxGeometry>
        </mxCell>
        <mxCell id="psUA1e9XgOscagl4p7lL-13" style="edgeStyle=orthogonalEdgeStyle;rounded=0;orthogonalLoop=1;jettySize=auto;html=1;exitX=0.5;exitY=1;exitDx=0;exitDy=0;entryX=0.5;entryY=0;entryDx=0;entryDy=0;" parent="1" source="psUA1e9XgOscagl4p7lL-1" target="T7uKuAlKiV4LEcT5qUAH-7" edge="1">
          <mxGeometry relative="1" as="geometry">
            <Array as="points">
              <mxPoint x="518" y="290" />
              <mxPoint x="677" y="290" />
            </Array>
          </mxGeometry>
        </mxCell>
        <mxCell id="psUA1e9XgOscagl4p7lL-14" style="edgeStyle=orthogonalEdgeStyle;rounded=0;orthogonalLoop=1;jettySize=auto;html=1;" parent="1" source="psUA1e9XgOscagl4p7lL-1" target="T7uKuAlKiV4LEcT5qUAH-3" edge="1">
          <mxGeometry relative="1" as="geometry" />
        </mxCell>
        <mxCell id="psUA1e9XgOscagl4p7lL-1" value="Cuenta" style="rounded=1;whiteSpace=wrap;html=1;" parent="1" vertex="1">
          <mxGeometry x="457.5" y="191" width="120" height="60" as="geometry" />
        </mxCell>
        <mxCell id="psUA1e9XgOscagl4p7lL-5" value="Creates" style="text;html=1;align=center;verticalAlign=middle;resizable=0;points=[];autosize=1;" parent="1" vertex="1">
          <mxGeometry x="524" y="171" width="60" height="20" as="geometry" />
        </mxCell>
        <mxCell id="psUA1e9XgOscagl4p7lL-19" value="&lt;div&gt;Records &lt;br&gt;&lt;/div&gt;&lt;div&gt;values&lt;/div&gt;" style="text;html=1;align=center;verticalAlign=middle;resizable=0;points=[];autosize=1;" parent="1" vertex="1">
          <mxGeometry x="686.5" y="385" width="60" height="30" as="geometry" />
        </mxCell>
        <mxCell id="psUA1e9XgOscagl4p7lL-20" value="&lt;div&gt;Records &lt;br&gt;&lt;/div&gt;&lt;div&gt;values&lt;/div&gt;" style="text;html=1;align=center;verticalAlign=middle;resizable=0;points=[];autosize=1;" parent="1" vertex="1">
          <mxGeometry x="362" y="385" width="60" height="30" as="geometry" />
        </mxCell>
        <mxCell id="psUA1e9XgOscagl4p7lL-22" value="&lt;div&gt;Records &lt;br&gt;&lt;/div&gt;&lt;div&gt;values&lt;/div&gt;" style="text;html=1;align=center;verticalAlign=middle;resizable=0;points=[];autosize=1;" parent="1" vertex="1">
          <mxGeometry x="695" y="584.5" width="60" height="30" as="geometry" />
        </mxCell>
        <mxCell id="psUA1e9XgOscagl4p7lL-23" value="Creates entities" style="text;html=1;align=center;verticalAlign=middle;resizable=0;points=[];autosize=1;" parent="1" vertex="1">
          <mxGeometry x="520" y="260" width="100" height="20" as="geometry" />
        </mxCell>
      </root>
    </mxGraphModel>
  </diagram>
  <diagram id="LyKoKax7Hbxr9Y9W05ls" name="Page-2">
    <mxGraphModel dx="1593" dy="1104" grid="1" gridSize="10" guides="1" tooltips="1" connect="1" arrows="1" fold="1" page="1" pageScale="1" pageWidth="1169" pageHeight="827" math="0" shadow="0">
      <root>
        <mxCell id="n5HtSUz3Oa1L7r2nbjOb-0" />
        <mxCell id="n5HtSUz3Oa1L7r2nbjOb-1" parent="n5HtSUz3Oa1L7r2nbjOb-0" />
        <mxCell id="DQC1ERT1BnNI4L5fX5Ei-143" value="" style="group" vertex="1" connectable="0" parent="n5HtSUz3Oa1L7r2nbjOb-1">
          <mxGeometry x="20" y="20" width="1130" height="730" as="geometry" />
        </mxCell>
        <mxCell id="n5HtSUz3Oa1L7r2nbjOb-3" value="Finca" style="rounded=1;whiteSpace=wrap;html=1;fontSize=17;" vertex="1" parent="DQC1ERT1BnNI4L5fX5Ei-143">
          <mxGeometry x="336.5" y="254" width="120" height="60" as="geometry" />
        </mxCell>
        <mxCell id="n5HtSUz3Oa1L7r2nbjOb-5" value="Parcela" style="rounded=1;whiteSpace=wrap;html=1;fontSize=17;" vertex="1" parent="DQC1ERT1BnNI4L5fX5Ei-143">
          <mxGeometry x="497.5" y="258" width="120" height="60" as="geometry" />
        </mxCell>
        <mxCell id="n5HtSUz3Oa1L7r2nbjOb-6" value="Datos descriptivos administrativos" style="shape=process;whiteSpace=wrap;html=1;backgroundOutline=1;fontSize=17;" vertex="1" parent="DQC1ERT1BnNI4L5fX5Ei-143">
          <mxGeometry x="336.5" y="365" width="120" height="60" as="geometry" />
        </mxCell>
        <mxCell id="n5HtSUz3Oa1L7r2nbjOb-7" value="Datos físicos estáticos de la parcela" style="shape=process;whiteSpace=wrap;html=1;backgroundOutline=1;fontSize=17;" vertex="1" parent="DQC1ERT1BnNI4L5fX5Ei-143">
          <mxGeometry x="497.5" y="369" width="120.5" height="85" as="geometry" />
        </mxCell>
        <mxCell id="n5HtSUz3Oa1L7r2nbjOb-4" style="edgeStyle=orthogonalEdgeStyle;rounded=0;orthogonalLoop=1;jettySize=auto;html=1;exitX=0.5;exitY=1;exitDx=0;exitDy=0;entryX=0.5;entryY=0;entryDx=0;entryDy=0;fontSize=17;" edge="1" parent="DQC1ERT1BnNI4L5fX5Ei-143" source="n5HtSUz3Oa1L7r2nbjOb-5" target="n5HtSUz3Oa1L7r2nbjOb-7">
          <mxGeometry relative="1" as="geometry" />
        </mxCell>
        <mxCell id="n5HtSUz3Oa1L7r2nbjOb-9" value="Ciclos" style="rounded=1;whiteSpace=wrap;html=1;fontSize=17;" vertex="1" parent="DQC1ERT1BnNI4L5fX5Ei-143">
          <mxGeometry x="656.5" y="254" width="120" height="60" as="geometry" />
        </mxCell>
        <mxCell id="n5HtSUz3Oa1L7r2nbjOb-11" value="Modelo" style="shape=process;whiteSpace=wrap;html=1;backgroundOutline=1;fontSize=17;" vertex="1" parent="DQC1ERT1BnNI4L5fX5Ei-143">
          <mxGeometry x="656.4999999999999" y="425" width="120" height="60" as="geometry" />
        </mxCell>
        <mxCell id="n5HtSUz3Oa1L7r2nbjOb-8" style="edgeStyle=orthogonalEdgeStyle;rounded=0;orthogonalLoop=1;jettySize=auto;html=1;exitX=0.5;exitY=1;exitDx=0;exitDy=0;entryX=0.5;entryY=0;entryDx=0;entryDy=0;fontSize=17;" edge="1" parent="DQC1ERT1BnNI4L5fX5Ei-143" source="n5HtSUz3Oa1L7r2nbjOb-9" target="n5HtSUz3Oa1L7r2nbjOb-11">
          <mxGeometry relative="1" as="geometry" />
        </mxCell>
        <mxCell id="n5HtSUz3Oa1L7r2nbjOb-13" value="Agricultor" style="rounded=1;whiteSpace=wrap;html=1;fillColor=#d5e8d4;strokeColor=#82b366;fontSize=17;" vertex="1" parent="DQC1ERT1BnNI4L5fX5Ei-143">
          <mxGeometry x="497.5" y="29" width="120" height="60" as="geometry" />
        </mxCell>
        <mxCell id="n5HtSUz3Oa1L7r2nbjOb-24" value="Registra" style="text;html=1;align=center;verticalAlign=middle;resizable=0;points=[];autosize=1;fontSize=17;" vertex="1" parent="DQC1ERT1BnNI4L5fX5Ei-143">
          <mxGeometry x="551.5" y="324" width="80" height="30" as="geometry" />
        </mxCell>
        <mxCell id="n5HtSUz3Oa1L7r2nbjOb-25" style="edgeStyle=orthogonalEdgeStyle;rounded=0;orthogonalLoop=1;jettySize=auto;html=1;entryX=0.5;entryY=0;entryDx=0;entryDy=0;exitX=0.5;exitY=1;exitDx=0;exitDy=0;fontSize=17;" edge="1" parent="DQC1ERT1BnNI4L5fX5Ei-143" source="n5HtSUz3Oa1L7r2nbjOb-28" target="n5HtSUz3Oa1L7r2nbjOb-3">
          <mxGeometry relative="1" as="geometry">
            <mxPoint x="559" y="250" as="sourcePoint" />
            <Array as="points">
              <mxPoint x="558" y="229" />
              <mxPoint x="397" y="229" />
            </Array>
          </mxGeometry>
        </mxCell>
        <mxCell id="n5HtSUz3Oa1L7r2nbjOb-26" style="edgeStyle=orthogonalEdgeStyle;rounded=0;orthogonalLoop=1;jettySize=auto;html=1;exitX=0.5;exitY=1;exitDx=0;exitDy=0;entryX=0.5;entryY=0;entryDx=0;entryDy=0;fontSize=17;" edge="1" parent="DQC1ERT1BnNI4L5fX5Ei-143" source="n5HtSUz3Oa1L7r2nbjOb-28" target="n5HtSUz3Oa1L7r2nbjOb-9">
          <mxGeometry relative="1" as="geometry">
            <Array as="points">
              <mxPoint x="558" y="229" />
              <mxPoint x="717" y="229" />
            </Array>
          </mxGeometry>
        </mxCell>
        <mxCell id="n5HtSUz3Oa1L7r2nbjOb-27" style="edgeStyle=orthogonalEdgeStyle;rounded=0;orthogonalLoop=1;jettySize=auto;html=1;fontSize=17;" edge="1" parent="DQC1ERT1BnNI4L5fX5Ei-143" source="n5HtSUz3Oa1L7r2nbjOb-28" target="n5HtSUz3Oa1L7r2nbjOb-5">
          <mxGeometry relative="1" as="geometry" />
        </mxCell>
        <mxCell id="n5HtSUz3Oa1L7r2nbjOb-28" value="Cuenta" style="rounded=1;whiteSpace=wrap;html=1;fontSize=17;" vertex="1" parent="DQC1ERT1BnNI4L5fX5Ei-143">
          <mxGeometry x="497.5" y="130" width="120" height="60" as="geometry" />
        </mxCell>
        <mxCell id="n5HtSUz3Oa1L7r2nbjOb-12" style="edgeStyle=orthogonalEdgeStyle;rounded=0;orthogonalLoop=1;jettySize=auto;html=1;exitX=0.5;exitY=1;exitDx=0;exitDy=0;fontSize=17;" edge="1" parent="DQC1ERT1BnNI4L5fX5Ei-143" source="n5HtSUz3Oa1L7r2nbjOb-13" target="n5HtSUz3Oa1L7r2nbjOb-28">
          <mxGeometry relative="1" as="geometry" />
        </mxCell>
        <mxCell id="n5HtSUz3Oa1L7r2nbjOb-29" value="Crea" style="text;html=1;align=center;verticalAlign=middle;resizable=0;points=[];autosize=1;fontSize=17;" vertex="1" parent="DQC1ERT1BnNI4L5fX5Ei-143">
          <mxGeometry x="556.5" y="95" width="50" height="30" as="geometry" />
        </mxCell>
        <mxCell id="n5HtSUz3Oa1L7r2nbjOb-30" value="Selectiona" style="text;html=1;align=center;verticalAlign=middle;resizable=0;points=[];autosize=1;fontSize=17;" vertex="1" parent="DQC1ERT1BnNI4L5fX5Ei-143">
          <mxGeometry x="720" y="324" width="90" height="30" as="geometry" />
        </mxCell>
        <mxCell id="n5HtSUz3Oa1L7r2nbjOb-31" value="Registra" style="text;html=1;align=center;verticalAlign=middle;resizable=0;points=[];autosize=1;fontSize=17;" vertex="1" parent="DQC1ERT1BnNI4L5fX5Ei-143">
          <mxGeometry x="392" y="324" width="80" height="30" as="geometry" />
        </mxCell>
        <mxCell id="n5HtSUz3Oa1L7r2nbjOb-32" value="Registra" style="text;html=1;align=center;verticalAlign=middle;resizable=0;points=[];autosize=1;fontSize=17;" vertex="1" parent="DQC1ERT1BnNI4L5fX5Ei-143">
          <mxGeometry x="730" y="490" width="80" height="30" as="geometry" />
        </mxCell>
        <mxCell id="n5HtSUz3Oa1L7r2nbjOb-33" value="Crea" style="text;html=1;align=center;verticalAlign=middle;resizable=0;points=[];autosize=1;fontSize=17;" vertex="1" parent="DQC1ERT1BnNI4L5fX5Ei-143">
          <mxGeometry x="556.5" y="194" width="50" height="30" as="geometry" />
        </mxCell>
        <mxCell id="DQC1ERT1BnNI4L5fX5Ei-64" value="" style="shape=image;verticalLabelPosition=bottom;labelBackgroundColor=#ffffff;verticalAlign=top;aspect=fixed;imageAspect=0;image=data:image/svg+xml,PHN2ZyB4bWxuczpkYz0iaHR0cDovL3B1cmwub3JnL2RjL2VsZW1lbnRzLzEuMS8iIHhtbG5zOmNjPSJodHRwOi8vY3JlYXRpdmVjb21tb25zLm9yZy9ucyMiIHhtbG5zOnJkZj0iaHR0cDovL3d3dy53My5vcmcvMTk5OS8wMi8yMi1yZGYtc3ludGF4LW5zIyIgeG1sbnM6c3ZnPSJodHRwOi8vd3d3LnczLm9yZy8yMDAwL3N2ZyIgeG1sbnM9Imh0dHA6Ly93d3cudzMub3JnLzIwMDAvc3ZnIiB4bWxuczpzb2RpcG9kaT0iaHR0cDovL3NvZGlwb2RpLnNvdXJjZWZvcmdlLm5ldC9EVEQvc29kaXBvZGktMC5kdGQiIHhtbG5zOmlua3NjYXBlPSJodHRwOi8vd3d3Lmlua3NjYXBlLm9yZy9uYW1lc3BhY2VzL2lua3NjYXBlIiB3aWR0aD0iMTAwbW0iIGhlaWdodD0iMTI1bW0iIHZpZXdCb3g9IjAgMCAxMDAgMTI1IiB2ZXJzaW9uPSIxLjEiIGlkPSJzdmcxMjk2IiBpbmtzY2FwZTp2ZXJzaW9uPSIwLjkyLjMgKDI0MDU1NDYsIDIwMTgtMDMtMTEpIiBzb2RpcG9kaTpkb2NuYW1lPSJwYXlzYW4uc3ZnIj4mI3hhOyAgPGRlZnMgaWQ9ImRlZnMxMjkwIi8+JiN4YTsgIDxzb2RpcG9kaTpuYW1lZHZpZXcgaWQ9ImJhc2UiIHBhZ2Vjb2xvcj0iI2ZmZmZmZiIgYm9yZGVyY29sb3I9IiM2NjY2NjYiIGJvcmRlcm9wYWNpdHk9IjEuMCIgaW5rc2NhcGU6cGFnZW9wYWNpdHk9IjAuMCIgaW5rc2NhcGU6cGFnZXNoYWRvdz0iMiIgaW5rc2NhcGU6em9vbT0iMC45ODk5NDk0OSIgaW5rc2NhcGU6Y3g9IjI0NC4wNjU1NSIgaW5rc2NhcGU6Y3k9IjM0Mi4wOTQ1MiIgaW5rc2NhcGU6ZG9jdW1lbnQtdW5pdHM9Im1tIiBpbmtzY2FwZTpjdXJyZW50LWxheWVyPSJsYXllcjEiIHNob3dncmlkPSJmYWxzZSIgaW5rc2NhcGU6d2luZG93LXdpZHRoPSIxNjEzIiBpbmtzY2FwZTp3aW5kb3ctaGVpZ2h0PSIxMDIyIiBpbmtzY2FwZTp3aW5kb3cteD0iNjciIGlua3NjYXBlOndpbmRvdy15PSIwIiBpbmtzY2FwZTp3aW5kb3ctbWF4aW1pemVkPSIxIi8+JiN4YTsgIDxtZXRhZGF0YSBpZD0ibWV0YWRhdGExMjkzIj4mI3hhOyAgICA8cmRmOlJERj4mI3hhOyAgICAgIDxjYzpXb3JrIHJkZjphYm91dD0iIj4mI3hhOyAgICAgICAgPGRjOmZvcm1hdD5pbWFnZS9zdmcreG1sPC9kYzpmb3JtYXQ+JiN4YTsgICAgICAgIDxkYzp0eXBlIHJkZjpyZXNvdXJjZT0iaHR0cDovL3B1cmwub3JnL2RjL2RjbWl0eXBlL1N0aWxsSW1hZ2UiLz4mI3hhOyAgICAgICAgPGRjOnRpdGxlLz4mI3hhOyAgICAgIDwvY2M6V29yaz4mI3hhOyAgICA8L3JkZjpSREY+JiN4YTsgIDwvbWV0YWRhdGE+JiN4YTsgIDxnIGlua3NjYXBlOmxhYmVsPSJDYWxxdWUgMSIgaW5rc2NhcGU6Z3JvdXBtb2RlPSJsYXllciIgaWQ9ImxheWVyMSIgdHJhbnNmb3JtPSJ0cmFuc2xhdGUoMCwtMTcyKSI+JiN4YTsgICAgPHBhdGggc3R5bGU9ImZpbGw6IzQxNjVkNztmaWxsLW9wYWNpdHk6MTtzdHJva2U6IzAyMDIwMjtzdHJva2Utd2lkdGg6MC4zNTI3Nzc3ODtzdHJva2UtbGluZWNhcDpidXR0O3N0cm9rZS1saW5lam9pbjptaXRlcjtzdHJva2UtbWl0ZXJsaW1pdDo0O3N0cm9rZS1kYXNoYXJyYXk6bm9uZTtzdHJva2Utb3BhY2l0eToxIiBkPSJtIDY0Ljk2NzQ5OCwyMzguMTQzMTcgYyAtMS4zNjAwMTcsMS45NjQ3OSAwLjkwOTQwNCwxOS41MDMyNCAxLjUyMDQ5MiwyMy4xODA1MiAyLjQ0MjExLDE0LjM5NTUyIDIuMzIsMTQuNTEwNjggMi4zMiwxNC41MTA2OCBsIC0xLjUxMTkwNSwxMC41ODMzMyBjIDAsMCA4LjM0MDk1NywtMS44ODk1IDguNjE3MzQ3LC0wLjMzOTYgMCwwIDYuOTQ4MzY0LDEzLjQ0NDY2IDQuNzUwNDU0LC0yLjkwODY1IC0yLjE5NzksLTE2LjM1MzMgLTQuNTI5NTY2LC0yMS4zODUxIC00LjQwNzQ1NiwtMjMuMjI3NzMgMC4xMjIxMSwtMS44NDI2MyAtMi4zMiwtNC4wMzA3NCAwLjI0NDIxLC0zLjIyNDU5IDIuNTY0MjIsMC44MDYxNCAxLjk1MzY5LDQuMjYxMDcgMi45MzA1MywxLjI2NjggMC45NzY4NSwtMi45OTQyNiAwLjI0NDIyLC00LjgzNjg5IDAuMzY2MzIsLTUuOTg4NTMgMC4xMjIxMSwtMS4xNTE2NSAtMC4yNDQyMSwtNy45NDYzMiAwLjI0NDIxLC0xLjYxMjMgMC40ODg0Myw2LjMzNDAzIDAuMTIyMTEsNy43MTU5OSAwLjQ4ODQzLDcuMDI1MDEgMC4zNjYzMSwtMC42OTA5OCAtMi4zMjAwMSw1Ljg3MzM3IDAuMzY2MzEsLTAuODA2MTUgMi42ODYzMiwtNi42Nzk1MiAzLjU0MTA2LC0xNi40Njg0NyAzLjU0MTA2LC0xMS45NzcwNiAwLDQuNDkxMzkgLTIuNjg2MzIsMTIuNDM3NzIgLTMuMjk2ODQsMTMuMDEzNTQgLTAuNjEwNTMsMC41NzU4MiAtMS43MDk0OSw0LjM3NjI0IC0xLjgzMTU5LDUuNDEyNzEgLTAuMTIyMSwxLjAzNjQ4IC0wLjM2NjMyLC0xLjYxMjI5IDAuMTIyMSwxLjk1Nzc5IDAuNDg4NDMsMy41NzAwOSAwLjEyMjExLDIuMzAzMjkgMC4xMjIxMSw1LjA2NzIzIDAsMi43NjM5MyAtMC44NTQ3NCwzLjMzOTc1IDAuMjQ0MjEsMi4xODgxMSAxLjA5ODk1LC0xLjE1MTY0IDEuNTg3MzcsLTEuMjY2OCAxLjU4NzM3LC0xLjI2NjggMCwwIDQuNTE3OTEsLTEuNDk3MTMgMS45NTM2OSwwLjExNTE2IC0yLjU2NDIxLDEuNjEyMyAtMi4zMiwxLjM4MTk3IC0yLjY4NjMyLDEuODQyNjMgLTAuMzY2MzIsMC40NjA2NSAtMi4zMiwtNC4wMzA3NCAtMC43MzI2MywwLjU3NTgyIDEuNTg3MzcsNC42MDY1NiAwLjM2NjMxLDUuMjk3NTUgMS45NTM2OSw0LjE0NTkxIDEuNTg3MzcsLTEuMTUxNjQgMi4wNzU3OSwtMy42ODUyNiAxLjk1MzY4LC0wLjY5MDk5IC0wLjEyMjEsMi45OTQyNyAtNi4xMDUyNyw0LjYwNjU3IDAuMTIyMTEsMi44NzkxIDYuMjI3MzksLTEuNzI3NDYgNi40NzE1OSwtMS40OTcxMyA2Ljk2MDAxLC0xLjk1Nzc4IDAuNDg4NDMsLTAuNDYwNjYgNC4yNzM3LC00LjQ5MTQxIDIuMTk3OTEsLTEuMjY2ODEgLTIuMDc1OCwzLjIyNDU5IC00LjE1MTYsMi40MTg0NSAtMS43MDk0OCwzLjQ1NDkyIDIuNDQyMTEsMS4wMzY0OCAxLjIyMTA2LC0wLjExNTE2IDIuOTMwNTMsMC41NzU4MiAxLjcwOTQ4LDAuNjkwOTkgNC41MTc5MSw0LjgzNjg5IDIuOTMwNTMsMC40NjA2NiAtMS41ODczNywtNC4zNzYyMyAtMTAuODY3MzksLTQ3LjQ0NzYyIC0xMi4wODg0NSwtNDkuMjkwMjQgLTAuODQ1NDExLC0xLjI3NTc3IC02LjY1MTIyNSwtNi40Mjc4MiAtOC43NDgwMTksLTcuOTA3MjMgLTAuOTMxNjYsLTAuNjU3MzQgLTUuODMxMDMsMTEuNDc0NDEgLTUuODMxMDMsMTEuNDc0NDEiIGlkPSJwYXRoMTkxNiIgaW5rc2NhcGU6Y29ubmVjdG9yLWN1cnZhdHVyZT0iMCIgc29kaXBvZGk6bm9kZXR5cGVzPSJjY2Njc3NzY2NjY2Nzc2NjY3NzY2Njc2NjY3NjY2NjY3NjIi8+JiN4YTsgICAgPHBhdGggc3R5bGU9ImZpbGw6IzlhODk1ZDtmaWxsLW9wYWNpdHk6MTtzdHJva2U6IzAyMDIwMjtzdHJva2Utd2lkdGg6MC4zNTI3Nzc3ODtzdHJva2UtbGluZWNhcDpidXR0O3N0cm9rZS1saW5lam9pbjptaXRlcjtzdHJva2UtbWl0ZXJsaW1pdDo0O3N0cm9rZS1kYXNoYXJyYXk6bm9uZTtzdHJva2Utb3BhY2l0eToxIiBkPSJtIDYxLjgxNzg4LDIxNi45MzEwMiBjIC0xNS4xOTE0MjQsLTIuNzgxODUgLTMyLjU4MjQ4NCwtMTguNzg0MTYgLTIwLjgyNzg1OSwtMjkuNTQyNyA4Ljk5MTk1NSwtNy4zNzA1IDE0LjM5ODQ4OSwtMC44ODM3NyAzMC4wNTk0MjksLTEuNDg4OTQgNDAuOTk2Niw1LjMxNTUgMTcuNDU5ODMsMjEuOTkzODQgMTIuNjMzMzYsMjcuMzA4ODYgLTUuNzMwODcsMy4zNTcxNyAtNi4wNDM5Miw0LjU2MDI2IC0yMS44NjQ5MywzLjcyMjc4IHoiIGlkPSJwYXRoMTg0MSIgaW5rc2NhcGU6Y29ubmVjdG9yLWN1cnZhdHVyZT0iMCIgc29kaXBvZGk6bm9kZXR5cGVzPSJjY2NjYyIvPiYjeGE7ICAgIDxwYXRoIHN0eWxlPSJmaWxsOiNlMmI4Nzc7ZmlsbC1vcGFjaXR5OjE7c3Ryb2tlOiMwMjAyMDI7c3Ryb2tlLXdpZHRoOjAuMzUyNzc3Nzg7c3Ryb2tlLWxpbmVjYXA6YnV0dDtzdHJva2UtbGluZWpvaW46bWl0ZXI7c3Ryb2tlLW1pdGVybGltaXQ6NDtzdHJva2UtZGFzaGFycmF5Om5vbmU7c3Ryb2tlLW9wYWNpdHk6MSIgZD0iTSA2NS43MTUzNCwyMjAuNzI4NzkgQyA1Ni4xNDA2NCwyMTkuNzM5MTUgNTQuNTE0MiwyMDcuNDg3IDU0LjUxNDIsMjA3LjQ4NyBjIC0zLjQ3NTg3NCwwLjQ0MDA1IC00LjExNjAyNCwtMTEuMTIzNTIgLTEuOTcxMTQsLTEwLjM4MjY5IDMuNjIxMzksMS4yNTA4MSAyLjMwNjA1LDIuOTA2NzQgMy4wNTA3OSwyLjIyNTEyIC0wLjcyMTk3LC0xLjkxOTEyIC0yLjg5NDk4LC0xLjYwNTM0IC0yLjUyMjQ5LC0yLjk2NTU2IDEuNzE2NzgsLTYuMjY5MjkgNy4wNDcyOSwtNS45ODI1NyAxNy4wNDA0MiwtNi45OTI0NiAxMy41Mzk5NSw1LjY0MTIzIDguODI1NjYsMTEuNzMzMjQgNi45MzQ4MSwxOC42NzY5MyAtMi4yNzcyMSw1LjMxMTU3IC00LjY2MjQ1LDEzLjg0MzY3IC0xMS4zMzEyNSwxMi42ODA0NSB6IiBpZD0icGF0aDE4NDEtMiIgaW5rc2NhcGU6Y29ubmVjdG9yLWN1cnZhdHVyZT0iMCIgc29kaXBvZGk6bm9kZXR5cGVzPSJjc3Njc2NjYyIvPiYjeGE7ICAgIDxwYXRoIHN0eWxlPSJmaWxsOiNkNzgwNDE7c3Ryb2tlOiMwMjAyMDI7c3Ryb2tlLXdpZHRoOjAuMzUyNzc3Nzg7c3Ryb2tlLWxpbmVjYXA6YnV0dDtzdHJva2UtbGluZWpvaW46bWl0ZXI7c3Ryb2tlLW1pdGVybGltaXQ6NDtzdHJva2UtZGFzaGFycmF5Om5vbmU7c3Ryb2tlLW9wYWNpdHk6MTtmaWxsLW9wYWNpdHk6MSIgZD0ibSA2MS45NDk4NiwyMTIuNTk2NTYgYyAyLjAyOTAzLDEuMTgwNzkgMi43NjI5NCwyLjAzNTgzIDQuMTg3NTgsMi4yMzk0MiAxLjQ1ODc1LDAuMjA4NDYgNS43NDE3MywwLjE2Mjg2IDUuNzQxNzMsMC4xNjI4NiIgaWQ9InBhdGgxODk2IiBpbmtzY2FwZTpjb25uZWN0b3ItY3VydmF0dXJlPSIwIiBzb2RpcG9kaTpub2RldHlwZXM9ImNzYyIvPiYjeGE7ICAgIDxwYXRoIHN0eWxlPSJmaWxsOm5vbmU7c3Ryb2tlOiMwMjAyMDI7c3Ryb2tlLXdpZHRoOjAuMzUyNzc3Nzg7c3Ryb2tlLWxpbmVjYXA6YnV0dDtzdHJva2UtbGluZWpvaW46bWl0ZXI7c3Ryb2tlLW1pdGVybGltaXQ6NDtzdHJva2UtZGFzaGFycmF5Om5vbmU7c3Ryb2tlLW9wYWNpdHk6MSIgZD0ibSA2MC41MjUyMywyMDAuOTEwODcgYyAyLjkzNTYxLC0wLjg1NTA1IDMuMzY5MDQsLTAuNDQ3MDYgNC4zMTcwOCwtMC4yNDQyOSBsIDEuNDY3ODEsMC42MTA3NSBjIDAsMCAwLjgyMDI1LDAuNDg4NTkgLTEuMTY1NjEsMC40NDc4OCAtMi41ODk2NCwtMC4wNTMxIC00LjYxOTI4LC0wLjgxNDM0IC00LjYxOTI4LC0wLjgxNDM0IHoiIGlkPSJwYXRoMTg2OSIgaW5rc2NhcGU6Y29ubmVjdG9yLWN1cnZhdHVyZT0iMCIgc29kaXBvZGk6bm9kZXR5cGVzPSJjY2NzYyIvPiYjeGE7ICAgIDxwYXRoIHN0eWxlPSJmaWxsOm5vbmU7c3Ryb2tlOiMwMjAyMDI7c3Ryb2tlLXdpZHRoOjAuMzUyNzc3Nzg7c3Ryb2tlLWxpbmVjYXA6YnV0dDtzdHJva2UtbGluZWpvaW46bWl0ZXI7c3Ryb2tlLW1pdGVybGltaXQ6NDtzdHJva2UtZGFzaGFycmF5Om5vbmU7c3Ryb2tlLW9wYWNpdHk6MSIgZD0ibSA3MS4xNTYyLDIwMi4xMTk3OCBjIDIuOTM1NjEsLTEuMTQwMDcgMy4xMTAwMiwtMC41Mjg1IDQuMDU4MDYsLTAuMjg1MDIgdiAwIGMgMCwwIDEuNDg5MiwxLjQxOTY1IC0wLjQ3NDg4LDEuMTQwMDcgLTYuNDI3NzksLTAuOTE0OTcgLTMuNTgzMTgsLTAuODU1MDUgLTMuNTgzMTgsLTAuODU1MDUgeiIgaWQ9InBhdGgxODY5LTYiIGlua3NjYXBlOmNvbm5lY3Rvci1jdXJ2YXR1cmU9IjAiIHNvZGlwb2RpOm5vZGV0eXBlcz0iY2Njc2MiLz4mI3hhOyAgICA8cGF0aCBzdHlsZT0iZmlsbDojMTgxMDA1O2ZpbGwtb3BhY2l0eToxO3N0cm9rZTojMDIwMjAyO3N0cm9rZS13aWR0aDowLjM1Mjc3Nzc4O3N0cm9rZS1saW5lY2FwOmJ1dHQ7c3Ryb2tlLWxpbmVqb2luOm1pdGVyO3N0cm9rZS1taXRlcmxpbWl0OjQ7c3Ryb2tlLWRhc2hhcnJheTpub25lO3N0cm9rZS1vcGFjaXR5OjEiIGQ9Im0gNjIuMTY1NzIsMjAwLjY2NjU4IGMgMC4zMDIxOSwwLjYxMDc1IDAuMzg4NTQsMC43NzM2MSAwLjk5MjkzLDAuNzczNjEgMC42MDQzOSwwIDEuMjA4NzgsLTAuNzczNjEgMS4yMDg3OCwtMC43NzM2MSBsIC0xLjA3OTI3LC0wLjIwMzU5IHoiIGlkPSJwYXRoMTg4OCIgaW5rc2NhcGU6Y29ubmVjdG9yLWN1cnZhdHVyZT0iMCIgc29kaXBvZGk6bm9kZXR5cGVzPSJjc2NjYyIvPiYjeGE7ICAgIDxwYXRoIHN0eWxlPSJmaWxsOm5vbmU7c3Ryb2tlOiMwMjAyMDI7c3Ryb2tlLXdpZHRoOjAuMzUyNzc3Nzg7c3Ryb2tlLWxpbmVjYXA6YnV0dDtzdHJva2UtbGluZWpvaW46bWl0ZXI7c3Ryb2tlLW1pdGVybGltaXQ6NDtzdHJva2UtZGFzaGFycmF5Om5vbmU7c3Ryb2tlLW9wYWNpdHk6MSIgZD0ibSA2MC4zNTI1NCwyMTIuMTg5MzkgYyAtMC4wNDMyLC0wLjIwMzU4IC0wLjEyOTUxLC0wLjEyMjE0IDAuMDQzMiwtMS4zODQzNiAwLjE3MjY4LC0xLjI2MjIyIDUuMDk0MTUsLTUuNDU2MDQgNS4wOTQxNSwtNS40NTYwNCAwLDAgLTEuMzM4MjksMC45MzY0OSAtMS41MTA5OCwxLjU0NzI0IC0wLjE3MjY4LDAuNjEwNzUgMC4xNzI2OSwxLjc1MDgyIDAuMTcyNjksMS43NTA4MiAwLDAgLTAuNjQ3NTcsLTAuMjQ0MzEgLTAuMDQzMiwtMC4wNDA3IDAuNjA0MzksMC4yMDM1OCAxLjY4MzY2LDAuMjg1MDIgMS42ODM2NiwwLjI4NTAyIDAsMCAtMC43MzM5LC0wLjU3MDA0IDAuMTI5NTEsMC4xNjI4NiAwLjg2MzQyLDAuNzMyOSAwLjQzMTcxLDAuODE0MzQgMS40Njc4MSwxLjE0MDA3IDEuMjUxOTUsMC4wNDA3IDEuMDc5MjcsMC4xNjI4NyAxLjc3LC0wLjEyMjE1IDAuNjkwNzQsLTAuMjg1MDIgMC4wNDMyLC0wLjQwNzE3IDEuMDM2MSwtMC40MDcxNyAwLjk5MjkzLDAgMC45MDY1OSwwLjYxMDc1IDEuMTY1NjIsMCAwLjI1OTAyLC0wLjYxMDc1IDAuMDg2MywtMS40NjU3OSAwLjA4NjMsLTEuNDY1NzkgMCwwIC0xLjU5NzMyLC02LjYzNjgzIC0xLjIwODc5LC01LjQxNTMzIDEuMTIyNDUsNi44ODExMiAyLjIwMTcyLDcuMTI1NDIgMi4yMDE3Miw3LjMyOSAwLDAuMjAzNTkgMC4xNzI2OCwwLjEyMjE1IDAuMTcyNjgsMS4zNDM2NiAwLjMxMzQyLDEuNTE2MjEgLTAuMjA5ODksMi4yODU3OCAtMC43MzM5LDMuNTQyMzUiIGlkPSJwYXRoMTg5MCIgaW5rc2NhcGU6Y29ubmVjdG9yLWN1cnZhdHVyZT0iMCIgc29kaXBvZGk6bm9kZXR5cGVzPSJjc2NzY2Njc2Njc2NjY3NjYyIvPiYjeGE7ICAgIDxwYXRoIHN0eWxlPSJmaWxsOm5vbmU7c3Ryb2tlOiMwMjAyMDI7c3Ryb2tlLXdpZHRoOjAuMzUyNzc3Nzg7c3Ryb2tlLWxpbmVjYXA6YnV0dDtzdHJva2UtbGluZWpvaW46bWl0ZXI7c3Ryb2tlLW1pdGVybGltaXQ6NDtzdHJva2UtZGFzaGFycmF5Om5vbmU7c3Ryb2tlLW9wYWNpdHk6MSIgZD0ibSA2MS45NDk4NiwyMTIuNTk2NTYgYyAzLjAyMTk2LDAuNjUxNDcgMy43NTU4NiwxLjM4NDM2IDQuOTIxNDgsMS40NjU4IDEuMTY1NjEsMC4wODE0IDAuMTcyNjgsLTAuMDQwNyAxLjY4MzY2LDAuMTIyMTUgMS41MTA5OCwwLjE2Mjg3IDAuNDc0ODYsLTAuNzMyOTEgMS44OTk1MSwwLjA0MDcgMS40MjQ2NiwwLjc3MzYyIDEuNDI0NjYsMC43NzM2MiAxLjQyNDY2LDAuNzczNjIiIGlkPSJwYXRoMTg5MiIgaW5rc2NhcGU6Y29ubmVjdG9yLWN1cnZhdHVyZT0iMCIvPiYjeGE7ICAgIDxwYXRoIHN0eWxlPSJmaWxsOiNkNzgwNDE7c3Ryb2tlOiMwMjAyMDI7c3Ryb2tlLXdpZHRoOjAuMzUyNzc3Nzg7c3Ryb2tlLWxpbmVjYXA6YnV0dDtzdHJva2UtbGluZWpvaW46bWl0ZXI7c3Ryb2tlLW1pdGVybGltaXQ6NDtzdHJva2UtZGFzaGFycmF5Om5vbmU7c3Ryb2tlLW9wYWNpdHk6MTtmaWxsLW9wYWNpdHk6MSIgZD0ibSA3MS44NzkxNywyMTQuOTk4ODQgYyAtMi4yNDQ5LC0xLjYyODY3IC0wLjk0OTc3LC0xLjE0MDA2IC0yLjI0NDksLTEuNjI4NjcgLTEuMjUxOTUsLTAuMDQwNyAtMS4yOTUxMywwLjEyMjE1IC0yLjIwMTcxLC0wLjA4MTQgLTAuOTA2NTksLTAuMjAzNTggLTAuNzMzOTEsLTAuMDQwNyAtMS40Njc4MSwtMC4zNjY0NSAtMC43MzM5LC0wLjMyNTczIDAsMCAtMC45MDY1OSwtMC4zNjY0NSAtMC43NTM5MiwtMC4zMDQ3NCAtMy4xMDgzLDAuMDQwNyAtMy4xMDgzLDAuMDQwNyB2IDAiIGlkPSJwYXRoMTg5NCIgaW5rc2NhcGU6Y29ubmVjdG9yLWN1cnZhdHVyZT0iMCIgc29kaXBvZGk6bm9kZXR5cGVzPSJjY2Njc2NjIi8+JiN4YTsgICAgPHBhdGggc3R5bGU9ImZpbGw6IzNkMmEwZDtmaWxsLW9wYWNpdHk6MTtzdHJva2U6IzAyMDIwMjtzdHJva2Utd2lkdGg6MC4zNTI3Nzc3ODtzdHJva2UtbGluZWNhcDpidXR0O3N0cm9rZS1saW5lam9pbjptaXRlcjtzdHJva2UtbWl0ZXJsaW1pdDo0O3N0cm9rZS1kYXNoYXJyYXk6bm9uZTtzdHJva2Utb3BhY2l0eToxIiBkPSJtIDYwLjM1NzM2LDE5OC43NTQ4MiBjIDAuOTkyOTMsMC42NTE0NiAyLjQxMjc1LDAuMDc5NSA0LjA1MzI0LDAuODkzODQgMS44OTk1MSwwLjQ4ODYgMi4yNDQ4OCwxLjQ2NTggMi44NDkyOCwwLjYxMDc1IDAuNjA0MzksLTAuODU1MDUgMC42MDQzOSwtMS44MzIyNSAwLjY0NzU2LC0xLjE0MDA3IDAuMDQzMiwwLjY5MjE5IC0xLjg1NjM1LC0wLjYxMDc1IC0yLjYzMzQyLC0wLjkzNjQ4IC0wLjk5MzIxLC0wLjEyMTI1IC0zLjY2NjI2NSwtMC40MTk3IC00LjkxNjY2LDAuNTcxOTYgeiIgaWQ9InBhdGgxODk4IiBpbmtzY2FwZTpjb25uZWN0b3ItY3VydmF0dXJlPSIwIiBzb2RpcG9kaTpub2RldHlwZXM9ImNjY2NjY2MiLz4mI3hhOyAgICA8cGF0aCBzdHlsZT0iZmlsbDojM2QyYTBkO2ZpbGwtb3BhY2l0eToxO3N0cm9rZTojMDIwMjAyO3N0cm9rZS13aWR0aDowLjM1Mjc3Nzc4O3N0cm9rZS1saW5lY2FwOmJ1dHQ7c3Ryb2tlLWxpbmVqb2luOm1pdGVyO3N0cm9rZS1taXRlcmxpbWl0OjQ7c3Ryb2tlLWRhc2hhcnJheTpub25lO3N0cm9rZS1vcGFjaXR5OjEiIGQ9Im0gNzYuODQzOCwyMDEuNDQwMTkgYyAtMC4wMzQzLC0xLjAxMDcxIDAuMjA1NDksMC44MjA0NyAwLjEzOTE3LC0wLjIzNjkxIC0wLjQ2MzU1MywtMS44NjQyNyAtNC40NDE5NzcsLTIuMjE1NDUgLTYuMzA3MzU2LC0xLjgzNTY1IC0wLjI0Njc4NSwwLjA1MDIgMC40NjQ4MjMsLTAuNzg5ODIgMC4yNzMyNTcsLTAuNzE4MjMgLTEuMjQ3ODYsMS4wNzk2NCAtMC4zMjU3NDgsMi41NTQ1NiAtMC4zMjU3NDgsMi41NTQ1NiAxLjI1MjczOCwtMC43NzI1NiA0LjQ1MDY2NywtMC43ODE2NyA1LjA1NTA2NywtMC40NTU5NCAwLjYwNDM5LDAuMzI1NzMgMC45OTI5MywwLjY1MTQ3IDEuMTY1NjEsMC42OTIxOCIgaWQ9InBhdGgxOTAwIiBpbmtzY2FwZTpjb25uZWN0b3ItY3VydmF0dXJlPSIwIiBzb2RpcG9kaTpub2RldHlwZXM9ImNjc2NzY2MiLz4mI3hhOyAgICA8cGF0aCBzdHlsZT0iZmlsbDpub25lO3N0cm9rZTojMDIwMjAyO3N0cm9rZS13aWR0aDowLjM1Mjc3Nzc4O3N0cm9rZS1saW5lY2FwOmJ1dHQ7c3Ryb2tlLWxpbmVqb2luOm1pdGVyO3N0cm9rZS1taXRlcmxpbWl0OjQ7c3Ryb2tlLWRhc2hhcnJheTpub25lO3N0cm9rZS1vcGFjaXR5OjEiIGQ9Im0gNTQuNjE2NzUsMjAwLjg2NTYzIDAuMDMwOCwwLjUwNzk2IGMgLTAuNzMyNjQsMC42MzM0IC0wLjY0MTA2LDAuNzc3MzYgLTAuNjQxMDYsMC43NzczNiAtMC4xMzMzMSwwLjc1NjA0IC0wLjAwOCwwLjk3NDA2IDAuMzkzMDcsMS41OTA2OCAwLDAgLTEuNjYyLC0xLjYzNjA0IC0wLjYwMDA4LC0zLjEwNDA1IDAuMTkwMTIsLTAuMjYyODIgMC44MTcyOSwwLjIyODA1IDAuOTY2NCwtMC4zNTA4NyAwLjI3ODUxLC0xLjUzMzExIC0xLjYxMDM1LC0yLjk1MTA0IC0yLjEzMzA3LC0yLjE5NTMgLTEuNzk3MjE0LDIuNTk4MzcgMS4xODY3NSw3LjY5NDM4IDEuMTg2NzUsNy42OTQzOCIgaWQ9InBhdGgxOTAyIiBpbmtzY2FwZTpjb25uZWN0b3ItY3VydmF0dXJlPSIwIiBzb2RpcG9kaTpub2RldHlwZXM9ImNjY2NzY3NjIi8+JiN4YTsgICAgPHBhdGggc3R5bGU9ImZpbGw6IzlhODk1ZDtmaWxsLW9wYWNpdHk6MTtzdHJva2U6IzAyMDIwMjtzdHJva2Utd2lkdGg6MC4zNTI3Nzc3ODtzdHJva2UtbGluZWNhcDpidXR0O3N0cm9rZS1saW5lam9pbjptaXRlcjtzdHJva2UtbWl0ZXJsaW1pdDo0O3N0cm9rZS1kYXNoYXJyYXk6bm9uZTtzdHJva2Utb3BhY2l0eToxIiBkPSJtIDU4LjQyOTAyLDE4NC42OTM0OSBjIDIuNTY0MjIsLTEuNzI3NDcgMi41NjQyMiwtNS41Mjc4OCA1LjEyODQ0LC02LjkwOTg1IDIuNTY0MjIsLTEuMzgxOTcgMS43MDk0NywtMi41MzM2MSA0Ljc2MjExLC0xLjk1Nzc5IDMuMDUyNjQsMC41NzU4MiA0LjY0MDAxLDAuMTE1MTYgNS40OTQ3NSwyLjQxODQ1IDAuODU0NzQsMi4zMDMyOCAxLjQ2NTI3LDYuNjc5NTIgMi45MzA1Myw4LjYzNzMxIiBpZD0icGF0aDE5MDQiIGlua3NjYXBlOmNvbm5lY3Rvci1jdXJ2YXR1cmU9IjAiIHNvZGlwb2RpOm5vZGV0eXBlcz0iY3Nzc2MiLz4mI3hhOyAgICA8cGF0aCBzdHlsZT0iZmlsbDojNDE2NWQ3O2ZpbGwtb3BhY2l0eToxO3N0cm9rZTojMDAwMDAwO3N0cm9rZS13aWR0aDowLjI2NDU4MzMycHg7c3Ryb2tlLWxpbmVjYXA6YnV0dDtzdHJva2UtbGluZWpvaW46bWl0ZXI7c3Ryb2tlLW9wYWNpdHk6MSIgZD0ibSA3LjQ4MzU0NjYsMjY4LjY2OTQzIGMgLTUuMDc4MTIwOSwtMy43NDE3NyAtMC44MDE4MDg0LC0xMy44OTgwMiAtMC44MDE4MDg0LC0xMy44OTgwMiAwLDAgMTcuOTA3MDU3OCwtMjguMzMwNTcgMjEuOTE2MDk5OCwtMzMuMTQxNDIgNC4wMDkwNDQsLTQuODEwODUgMTguNDQxNTk5LC01Ljg3OTkzIDE4LjQ0MTU5OSwtNS44Nzk5MyAzLjUyMTgzNyw2LjI1NzYxIDMuNjIyNjM1LDEwLjQzMDQ4IDQuODEwODUxLDIwLjMxMjQ5IDYuNDE0NDY5LC04LjI4NTM2IDUuNjEyNjYsLTguMjg1MzYgNS42MTI2NiwtOC4yODUzNiBsIDcuMzcwNzgyLDMuNjc3NjYgMC40MzMyLDYuNDkwNTMgMC40ODg0MywxMi4wOTIyMyBjIDMuMTc0NzQsMjUuNjgxNiAxLjU0MDcyNSwzNi4zODAwOSAxLjU0MDcyNSwzNi4zODAwOSAtMTUuMzgxMzQ5LC0xLjgyODk5IC0zMC43NDE4NDgsMS42MDE0OCAtMzQuNzg0NjQ0LC02LjA5NTM3IDAsMCA2LjkwNzE0OCwtMjAuNTYxNDIgMS42OTI2NDYsLTIyLjk3MzI0IEMgMjQuMTQ3ODMsMjUyLjY5Nzg2IDcuNDgzNTQ2NiwyNjguNjY5NDMgNy40ODM1NDY2LDI2OC42Njk0MyBaIiBpZD0icGF0aDg2NiIgaW5rc2NhcGU6Y29ubmVjdG9yLWN1cnZhdHVyZT0iMCIgc29kaXBvZGk6bm9kZXR5cGVzPSJjY3NjY2NjY2Njc3NjIi8+JiN4YTsgICAgPHBhdGggc3R5bGU9ImZpbGw6IzY1NDIwOTtzdHJva2U6IzAwMDAwMDtzdHJva2Utd2lkdGg6MC4yNjQ1ODMzMnB4O3N0cm9rZS1saW5lY2FwOmJ1dHQ7c3Ryb2tlLWxpbmVqb2luOm1pdGVyO3N0cm9rZS1vcGFjaXR5OjE7ZmlsbC1vcGFjaXR5OjEiIGQ9Ik0gNzkuNjU1MTQ3LDI5MC41MzEwOCA1Mi4wMzcyNzQsMjYwLjYyNzg5IGMgMS4zNTA1MDEsLTAuODk2MDkgLTAuNTExNzk1LC00LjM0MzUxIDQuMDUxNTAzLC0yLjY4ODI2IGwgMzAuMDM3OTYsMzIuODIxNzggLTYuNDcxNTksLTAuMjMwMzMiIGlkPSJwYXRoODc0IiBpbmtzY2FwZTpjb25uZWN0b3ItY3VydmF0dXJlPSIwIiBzb2RpcG9kaTpub2RldHlwZXM9ImNjY2NjIi8+JiN4YTsgICAgPHBhdGggc3R5bGU9ImZpbGw6I2UyYjg3NztzdHJva2U6IzAyMDIwMjtzdHJva2Utd2lkdGg6MC4zNTI3Nzc3ODtzdHJva2UtbGluZWNhcDpidXR0O3N0cm9rZS1saW5lam9pbjptaXRlcjtzdHJva2UtbWl0ZXJsaW1pdDo0O3N0cm9rZS1kYXNoYXJyYXk6bm9uZTtzdHJva2Utb3BhY2l0eToxO2ZpbGwtb3BhY2l0eToxIiBkPSJtIDM2LjY5NDIzNCwyNTUuNjgwNjUgYyAyLjc1MzIzMywwLjI1NTQxIDUuNTM3OTcsLTMuOTU5MiA1Ljk2OTY5MSwtMy4xODI1OCAyLjA4OTI3NCwzLjc1ODQgLTAuNTY4OTE4LDIuMDM0OTggLTAuNDE5MjYzLDMuMDc1OTEgMC4xMjcxODIsMC44ODQ2MyAxLjc3MjgzOCwxLjA5MjUgMi41MDg1MzcsMC42ODI0OSAyLjY4NjMxNywtMS40OTcxNCAxLjk1MzY4NywtMy4yMjQ1OSAxLjA5ODk0NywtNi4zMzQwMyAtMC44NTQ3MywtMy4xMDk0MyAyLjUxNTc1LDQuODY5MSAwLjI0NDIyLDYuMTAzNyAtNy4yMDQyMzIsMy45MTU1OCAtMS44NjMyMDUsMS40OTU0OCAxLjcwOTQ3LDEuMTUxNjQgNS45ODMxNzQsLTAuNTc1ODIgLTAuOTUxOTgsLTE0Ljc3NDA5IDAuNzMyNjMsLTkuMjEzMTIgNC4xNTE1OTQsMTMuNzA0NTIgLTIuMDc1NzksNS43NTgyIDEuMzQzMTcsNi42Nzk1MSAtMC45MzMwMywxMC42Njk3IDQuNzM5NTU0LDcuMzkyMjYgMy42NjMxNjQsLTIuNzYzOTMgLTEuODMxNTg0LC0zLjMzOTc3IC0wLjczMjYzLC0yLjUzMzYyIC0wLjczMjYzLC0yLjUzMzYyIDAsMCAtMS42MzkwMDQsLTcuMzg1NjMgMCwwIDEuMDk4OTUsNC45NTIwNiAtMC4zMjAyNiwxMC4yMDMwMyAyLjE5NzksOS4yMTMxMyAyLjMxMzc1LC0wLjkwOTU0IDEuNzA5NDgsLTkuMjEzMTIgMS43MDk0OCwtOS4yMTMxMiAwLDAgLTEuMTA4ODUsLTQuNTA5MTkgLTUuMDA2MzM0LC01LjQxMjcyIGwgLTIuNzk3NywtMC42NDg1NyBjIC0yLjYwMzE0LC0wLjYwMzQ3IC0xLjg3ODU5LDEuMTIxMjcgLTQuODk0OTQ5LDIuMDMwNTQgMCwwIC0xLjU4NzM3MywyLjE4ODEyIC01LjYxNjg1NCwyLjUzMzYxIC0zLjUyOTE2MywtMC4zNDU2MyAtNC4yODIwMDIsMC4xNjIxMiAtNS42MTY4NTYsMS40OTcxMyAtMy41NTE3NTgsMi40ODA5NCAtNy4zNTc3ODMsMy40ODIyNCAtMTIuMDg4NDQ3LDMuOTE1NTggMCwwIC0xLjA5ODk0OSwtMC41NzU4MiAtNC4wMjk0ODIsMCAtMi45MzA1MzQsMC41NzU4MyAtNy42OTI2NDksMy4zMzk3NiAtOS4yODAwMjEsNy42MDA4NCAtMS41ODczNzIsNC4yNjEwNyAtMS4wOTg5NSw3LjE0MDE3IDIuMDc1Nzk1LDcuOTQ2MzIgMS4xOTYzMzQsMC4zMDM3OCAyLjk4ODA5NSwtMS4wMjQ1NiA0LjkwNTI3NiwtMS40MDE5OSAzLjI0MDE4NiwtMC42Mzc4OSA2LjgzODYxNCwtMC42OTc1IDguNTI2MzMyLC0xLjEzMTYyIDQuMzk1Nzk5LC0yLjE4ODEyIDEzLjc5NzkyNCwtMTAuNTk1MSAxMy43OTc5MjQsLTEwLjU5NTEgeiIgaWQ9InBhdGgxOTA2IiBpbmtzY2FwZTpjb25uZWN0b3ItY3VydmF0dXJlPSIwIiBzb2RpcG9kaTpub2RldHlwZXM9ImNzc3Nzc3NzY2Njc3Njc3NjY2NjY3Nzc2NjIi8+JiN4YTsgICAgPHBhdGggc3R5bGU9ImZpbGw6bm9uZTtzdHJva2U6IzAyMDIwMjtzdHJva2Utd2lkdGg6MC4zNTI3Nzc3ODtzdHJva2UtbGluZWNhcDpidXR0O3N0cm9rZS1saW5lam9pbjptaXRlcjtzdHJva2UtbWl0ZXJsaW1pdDo0O3N0cm9rZS1kYXNoYXJyYXk6bm9uZTtzdHJva2Utb3BhY2l0eToxIiBkPSJtIDMzLjM5NzM4NSwyNDEuMDU0ODEgYyAxLjgzMTU4NCw0LjE0NTkxIDIuMTk3OSwxLjk1Nzc4IDIuMDc1Nzk1LDQuMzc2MjMgLTAuMTIyMTA2LDIuNDE4NDUgLTAuMTIyMTA2LDIuNTMzNjEgLTAuMTIyMTA2LDIuNTMzNjEgMCwwIC0yLjU2NDIxNywxLjM4MTk3IC0yLjU2NDIxNywxLjM4MTk3IHYgMCIgaWQ9InBhdGgxOTIwIiBpbmtzY2FwZTpjb25uZWN0b3ItY3VydmF0dXJlPSIwIi8+JiN4YTsgICAgPHBhdGggc3R5bGU9ImZpbGw6bm9uZTtzdHJva2U6IzAyMDIwMjtzdHJva2Utd2lkdGg6MC4zNTI3Nzc3ODtzdHJva2UtbGluZWNhcDpidXR0O3N0cm9rZS1saW5lam9pbjptaXRlcjtzdHJva2UtbWl0ZXJsaW1pdDo0O3N0cm9rZS1kYXNoYXJyYXk6bm9uZTtzdHJva2Utb3BhY2l0eToxIiBkPSJtIDMzLjAzMTA2OCwyNDYuNjk3ODUgLTAuMTIyMTA0LC0wLjkyMTMxIiBpZD0icGF0aDE5MjIiIGlua3NjYXBlOmNvbm5lY3Rvci1jdXJ2YXR1cmU9IjAiLz4mI3hhOyAgICA8cGF0aCBzdHlsZT0iZmlsbDpub25lO3N0cm9rZTojMDIwMjAyO3N0cm9rZS13aWR0aDowLjM1Mjc3Nzc4O3N0cm9rZS1saW5lY2FwOmJ1dHQ7c3Ryb2tlLWxpbmVqb2luOm1pdGVyO3N0cm9rZS1taXRlcmxpbWl0OjQ7c3Ryb2tlLWRhc2hhcnJheTpub25lO3N0cm9rZS1vcGFjaXR5OjEiIGQ9Im0gMzIuOTA4OTY0LDI0NS43NzY1NCBjIDAuNDg4NDIxLC00LjcyMTczIDAuNDg4NDIxLC00LjcyMTczIDAuNDg4NDIxLC00LjcyMTczIGwgLTAuNjEwNTI4LDguMjkxODEiIGlkPSJwYXRoMTkyNCIgaW5rc2NhcGU6Y29ubmVjdG9yLWN1cnZhdHVyZT0iMCIvPiYjeGE7ICAgIDxwYXRoIHN0eWxlPSJmaWxsOiMxODEwMDU7ZmlsbC1vcGFjaXR5OjE7c3Ryb2tlOiMwMjAyMDI7c3Ryb2tlLXdpZHRoOjAuMzUyNzc3Nzg7c3Ryb2tlLWxpbmVjYXA6YnV0dDtzdHJva2UtbGluZWpvaW46bWl0ZXI7c3Ryb2tlLW1pdGVybGltaXQ6NDtzdHJva2UtZGFzaGFycmF5Om5vbmU7c3Ryb2tlLW9wYWNpdHk6MSIgZD0ibSA3Mi4zMjg3NSwyMDEuNzE5NiBjIDAuMzAyMiwwLjYxMDc1IDAuNjkzOCwwLjg4ODc4IDEuMjk4MTksMC44ODg3OCAwLjYwNDM5LDAgMC45MDM1MiwtMC43NzM2MiAwLjkwMzUyLC0wLjc3MzYyIHYgMCAtMC4xNzI3NCBsIC0wLjk2MDM1LC0wLjE3Mjc1IHoiIGlkPSJwYXRoMTg4OC0yIiBpbmtzY2FwZTpjb25uZWN0b3ItY3VydmF0dXJlPSIwIiBzb2RpcG9kaTpub2RldHlwZXM9ImNzY2NjY2MiLz4mI3hhOyAgICA8cGF0aCBzdHlsZT0iZmlsbDojY2VkN2Y1O2ZpbGwtb3BhY2l0eToxO3N0cm9rZTojMDAwMDAwO3N0cm9rZS13aWR0aDowLjI2NDU4MzMycHg7c3Ryb2tlLWxpbmVjYXA6YnV0dDtzdHJva2UtbGluZWpvaW46bWl0ZXI7c3Ryb2tlLW9wYWNpdHk6MSIgZD0ibSA1NC40Mjg1NzIsMjE0LjY5NTY4IC03LjM4OTEzNSwxLjA1NDM4IGMgMy44NzE0NzQsOS42MDU2NSAzLjIwNzIzNCwxMy41NDE2NiA0LjgxMDg1MSwyMC4zMTI0OSBsIDkuMDE0NDQ2LC02LjMwMDk4IDMuOTY4OTk2LDEuNjkzMjggYyAtNC43NjEyMTIsLTQuOTI4NzEgLTYuNTE2MjI1LC0xMS4zMzc2NiAtMTAuNDA1MTU4LC0xNi43NTkxNyB6IiBpZD0icGF0aDg2OCIgaW5rc2NhcGU6Y29ubmVjdG9yLWN1cnZhdHVyZT0iMCIgc29kaXBvZGk6bm9kZXR5cGVzPSJjY2NjY2MiLz4mI3hhOyAgICA8cGF0aCBzdHlsZT0iZmlsbDpub25lO3N0cm9rZTojMDAwMDAwO3N0cm9rZS13aWR0aDowLjI2NDU4MzMycHg7c3Ryb2tlLWxpbmVjYXA6YnV0dDtzdHJva2UtbGluZWpvaW46bWl0ZXI7c3Ryb2tlLW9wYWNpdHk6MSIgZD0ibSA1NC40Mjg1NzIsMjE0LjY5NTY4IGMgLTcuMzg5MTM1LDEuMDU0MzggLTcuMzg5MTM1LDEuMDU0MzggLTcuMzg5MTM1LDEuMDU0MzggdiAwIDAiIGlkPSJwYXRoODcwIiBpbmtzY2FwZTpjb25uZWN0b3ItY3VydmF0dXJlPSIwIi8+JiN4YTsgICAgPHBhdGggc3R5bGU9ImZpbGw6I2NlZDdmNTtzdHJva2U6IzAwMDAwMDtzdHJva2Utd2lkdGg6MC4yNjQ1ODMzMnB4O3N0cm9rZS1saW5lY2FwOmJ1dHQ7c3Ryb2tlLWxpbmVqb2luOm1pdGVyO3N0cm9rZS1vcGFjaXR5OjE7ZmlsbC1vcGFjaXR5OjEiIGQ9Im0gNzAuMjA5MDc2LDIxOS45ODczNSBjIDIuMDc4ODcxLDUuOTUzMTMgMC4zMjEwNjQsMTYuMzU1NzkgLTQuOTQyMTQ3LDE3Ljk1ODAzIC01LjI2MzIxMSwxLjYwMjI0IDExLjI3MzI0NywtMi44Mzg5OCAxMS4yNzMyNDcsLTIuODM4OTggMS44ODk4ODQsLTIuMTczMzYgMS44ODk4ODQsLTIuMTczMzYgMS44ODk4ODQsLTIuMTczMzYgNC4zNDY3MjYsNS4xOTcxNyA0LjcyNDcwMiw0LjYzMDIgNC43MjQ3MDIsNC42MzAyIC01LjAwODE4NSwtNS44NTg2MyAtNi4wNDM1OTIsLTEyLjE3MDc1IC02LjA0MzU5MiwtMTIuMTcwNzUgLTQuNjQwMDEsLTcuMzcwNTEgLTQuNjQwMDEsLTcuMzcwNTEgLTQuNjQwMDEsLTcuMzcwNTEgLTIuMTY3NTg4LDEuODcwODggLTIuMjYyMDg0LDEuOTY1MzcgLTIuMjYyMDg0LDEuOTY1MzcgeiIgaWQ9InBhdGg4NzIiIGlua3NjYXBlOmNvbm5lY3Rvci1jdXJ2YXR1cmU9IjAiLz4mI3hhOyAgPC9nPiYjeGE7PC9zdmc+;fontSize=17;" vertex="1" parent="DQC1ERT1BnNI4L5fX5Ei-143">
          <mxGeometry x="352" width="129.8" height="162.25" as="geometry" />
        </mxCell>
        <mxCell id="DQC1ERT1BnNI4L5fX5Ei-66" value="" style="shape=image;verticalLabelPosition=bottom;labelBackgroundColor=#ffffff;verticalAlign=top;aspect=fixed;imageAspect=0;image=data:image/svg+xml,PHN2ZyB4bWxuczpkYz0iaHR0cDovL3B1cmwub3JnL2RjL2VsZW1lbnRzLzEuMS8iIHhtbG5zOmNjPSJodHRwOi8vY3JlYXRpdmVjb21tb25zLm9yZy9ucyMiIHhtbG5zOnJkZj0iaHR0cDovL3d3dy53My5vcmcvMTk5OS8wMi8yMi1yZGYtc3ludGF4LW5zIyIgeG1sbnM6c3ZnPSJodHRwOi8vd3d3LnczLm9yZy8yMDAwL3N2ZyIgeG1sbnM9Imh0dHA6Ly93d3cudzMub3JnLzIwMDAvc3ZnIiB4bWxuczp4bGluaz0iaHR0cDovL3d3dy53My5vcmcvMTk5OS94bGluayIgeG1sbnM6c29kaXBvZGk9Imh0dHA6Ly9zb2RpcG9kaS5zb3VyY2Vmb3JnZS5uZXQvRFREL3NvZGlwb2RpLTAuZHRkIiB4bWxuczppbmtzY2FwZT0iaHR0cDovL3d3dy5pbmtzY2FwZS5vcmcvbmFtZXNwYWNlcy9pbmtzY2FwZSIgd2lkdGg9IjQwN3B0IiBoZWlnaHQ9IjExMHB0IiB2aWV3Qm94PSIwIDAgNDA3IDExMCIgdmVyc2lvbj0iMS4yIiBpZD0ic3ZnMTM0IiBzb2RpcG9kaTpkb2NuYW1lPSJsb2dvLWFwcC5haS5zdmciIGlua3NjYXBlOnZlcnNpb249IjAuOTIuMyAoMjQwNTU0NiwgMjAxOC0wMy0xMSkiPiYjeGE7ICA8bWV0YWRhdGEgaWQ9Im1ldGFkYXRhMTM4Ij4mI3hhOyAgICA8cmRmOlJERj4mI3hhOyAgICAgIDxjYzpXb3JrIHJkZjphYm91dD0iIj4mI3hhOyAgICAgICAgPGRjOmZvcm1hdD5pbWFnZS9zdmcreG1sPC9kYzpmb3JtYXQ+JiN4YTsgICAgICAgIDxkYzp0eXBlIHJkZjpyZXNvdXJjZT0iaHR0cDovL3B1cmwub3JnL2RjL2RjbWl0eXBlL1N0aWxsSW1hZ2UiLz4mI3hhOyAgICAgICAgPGRjOnRpdGxlLz4mI3hhOyAgICAgIDwvY2M6V29yaz4mI3hhOyAgICA8L3JkZjpSREY+JiN4YTsgIDwvbWV0YWRhdGE+JiN4YTsgIDxzb2RpcG9kaTpuYW1lZHZpZXcgcGFnZWNvbG9yPSIjZmZmZmZmIiBib3JkZXJjb2xvcj0iIzY2NjY2NiIgYm9yZGVyb3BhY2l0eT0iMSIgb2JqZWN0dG9sZXJhbmNlPSIxMCIgZ3JpZHRvbGVyYW5jZT0iMTAiIGd1aWRldG9sZXJhbmNlPSIxMCIgaW5rc2NhcGU6cGFnZW9wYWNpdHk9IjAiIGlua3NjYXBlOnBhZ2VzaGFkb3c9IjIiIGlua3NjYXBlOndpbmRvdy13aWR0aD0iODc3IiBpbmtzY2FwZTp3aW5kb3ctaGVpZ2h0PSI0ODAiIGlkPSJuYW1lZHZpZXcxMzYiIHNob3dncmlkPSJmYWxzZSIgaW5rc2NhcGU6em9vbT0iMS4wOTM0NDczIiBpbmtzY2FwZTpjeD0iNDkzLjk1MTI5IiBpbmtzY2FwZTpjeT0iNjYuNjY2NjY3IiBpbmtzY2FwZTp3aW5kb3cteD0iNjciIGlua3NjYXBlOndpbmRvdy15PSIwIiBpbmtzY2FwZTp3aW5kb3ctbWF4aW1pemVkPSIwIiBpbmtzY2FwZTpjdXJyZW50LWxheWVyPSJzdmcxMzQiLz4mI3hhOyAgPGRlZnMgaWQ9ImRlZnM2MSI+JiN4YTsgICAgPGcgaWQ9Imc1OSI+JiN4YTsgICAgICA8c3ltYm9sIG92ZXJmbG93PSJ2aXNpYmxlIiBpZD0iZ2x5cGgwLTAiIHN0eWxlPSJvdmVyZmxvdzp2aXNpYmxlIj4mI3hhOyAgICAgICAgPHBhdGggc3R5bGU9InN0cm9rZTpub25lIiBkPSJNIDAuNzE4NzUsMCBWIC0yNiBIIDYuNTQ2ODc1IFYgMCBaIG0gNS4xMDkzNzUsLTAuOTY4NzUgdiAtMjQuMDQ2ODc1IGggLTQuMzc1IFYgLTAuOTY4NzUgWiBtIDAsMCIgaWQ9InBhdGgyIiBpbmtzY2FwZTpjb25uZWN0b3ItY3VydmF0dXJlPSIwIi8+JiN4YTsgICAgICA8L3N5bWJvbD4mI3hhOyAgICAgIDxzeW1ib2wgb3ZlcmZsb3c9InZpc2libGUiIGlkPSJnbHlwaDAtMSIgc3R5bGU9Im92ZXJmbG93OnZpc2libGUiPiYjeGE7ICAgICAgICA8cGF0aCBzdHlsZT0ic3Ryb2tlOm5vbmUiIGQ9Im0gMS41NDY4NzUsMCB2IC0xOC43MzQzNzUgYyAwLC0yLjMyMDMxMyAwLjUyMzQzNywtNC4yMTg3NSAxLjU3ODEyNSwtNS42ODc1IDEuMDUwNzgxLC0xLjQ3NjU2MyAyLjQxNDA2MiwtMi4yMTg3NSA0LjA5Mzc1LC0yLjIxODc1IDEuOTg4MjgxLDAgMy41MTk1MzEsMS4yMjY1NjMgNC41OTM3NSwzLjY3MTg3NSAwLjY0NDUzMSwtMS4zMjAzMTIgMS4zNDM3NSwtMi4yNjU2MjUgMi4wOTM3NSwtMi44MjgxMjUgMC43NSwtMC41NjI1IDEuNjcxODc1LC0wLjg0Mzc1IDIuNzY1NjI1LC0wLjg0Mzc1IDEuNzUsMCAzLjA4NTkzNywwLjc0MjE4NyA0LjAxNTYyNSwyLjIxODc1IDAuOTI1NzgxLDEuNDY4NzUgMS4zOTA2MjUsMy41ODU5MzcgMS4zOTA2MjUsNi4zNDM3NSBWIDAgSCAxNi4zMTI1IHYgLTE2LjkwNjI1IGMgMCwtMC44NDM3NSAtMC4wNTQ2OSwtMS4zOTg0MzggLTAuMTU2MjUsLTEuNjcxODc1IC0wLjA5Mzc1LC0wLjI2OTUzMSAtMC4yOTI5NjksLTAuNDA2MjUgLTAuNTkzNzUsLTAuNDA2MjUgLTAuNTc0MjE5LDAgLTAuODU5Mzc1LDAuNjQ4NDM3IC0wLjg1OTM3NSwxLjkzNzUgViAwIEggOC45Mzc1IHYgLTE2LjkwNjI1IGMgMCwtMC44MjAzMTIgLTAuMDU0Njg4LC0xLjM3NSAtMC4xNTYyNSwtMS42NTYyNSAtMC4xMDU0NjksLTAuMjgxMjUgLTAuMzA4NTk0LC0wLjQyMTg3NSAtMC42MDkzNzUsLTAuNDIxODc1IC0wLjU3NDIxOSwwIC0wLjg1OTM3NSwwLjY5NTMxMyAtMC44NTkzNzUsMi4wNzgxMjUgViAwIFogbSAwLDAiIGlkPSJwYXRoNSIgaW5rc2NhcGU6Y29ubmVjdG9yLWN1cnZhdHVyZT0iMCIvPiYjeGE7ICAgICAgPC9zeW1ib2w+JiN4YTsgICAgICA8c3ltYm9sIG92ZXJmbG93PSJ2aXNpYmxlIiBpZD0iZ2x5cGgwLTIiIHN0eWxlPSJvdmVyZmxvdzp2aXNpYmxlIj4mI3hhOyAgICAgICAgPHBhdGggc3R5bGU9InN0cm9rZTpub25lIiBkPSJNIDcuNzE4NzUsLTI2IFYgMCBIIDEuOTUzMTI1IHYgLTI2IHogbSAwLDAiIGlkPSJwYXRoOCIgaW5rc2NhcGU6Y29ubmVjdG9yLWN1cnZhdHVyZT0iMCIvPiYjeGE7ICAgICAgPC9zeW1ib2w+JiN4YTsgICAgICA8c3ltYm9sIG92ZXJmbG93PSJ2aXNpYmxlIiBpZD0iZ2x5cGgwLTMiIHN0eWxlPSJvdmVyZmxvdzp2aXNpYmxlIj4mI3hhOyAgICAgICAgPHBhdGggc3R5bGU9InN0cm9rZTpub25lIiBkPSJNIDguOTg0Mzc1LC0xMy4wNDY4NzUgViAtNi4xODc1IEggNy4zMTI1IFYgMCBIIDEuNTQ2ODc1IHYgLTE2LjUzMTI1IGMgMCwtMy4xOTUzMTIgMC42NDg0MzcsLTUuNjc5Njg4IDEuOTUzMTI1LC03LjQ1MzEyNSAxLjMwMDc4MSwtMS43Njk1MzEgMy4xMzI4MTIsLTIuNjU2MjUgNS41LC0yLjY1NjI1IDIuMjY5NTMxLDAgMy45NDUzMTIsMC44MDQ2ODcgNS4wMzEyNSwyLjQwNjI1IDEuMDkzNzUsMS42MDU0NjkgMS42NDA2MjUsNC4wODU5MzcgMS42NDA2MjUsNy40Mzc1IFYgMCBIIDkuOTA2MjUgdiAtMTYuMjgxMjUgYyAwLC0xLjAxOTUzMSAtMC4wOTM3NSwtMS43MjI2NTYgLTAuMjgxMjUsLTIuMTA5Mzc1IC0wLjE3OTY4OCwtMC4zOTQ1MzEgLTAuNDk2MDk0LC0wLjU5Mzc1IC0wLjk1MzEyNSwtMC41OTM3NSAtMC45MDYyNSwwIC0xLjM1OTM3NSwwLjkwMjM0NCAtMS4zNTkzNzUsMi43MDMxMjUgdiAzLjIzNDM3NSB6IG0gMCwwIiBpZD0icGF0aDExIiBpbmtzY2FwZTpjb25uZWN0b3ItY3VydmF0dXJlPSIwIi8+JiN4YTsgICAgICA8L3N5bWJvbD4mI3hhOyAgICAgIDxzeW1ib2wgb3ZlcmZsb3c9InZpc2libGUiIGlkPSJnbHlwaDAtNCIgc3R5bGU9Im92ZXJmbG93OnZpc2libGUiPiYjeGE7ICAgICAgICA8cGF0aCBzdHlsZT0ic3Ryb2tlOm5vbmUiIGQ9Ik0gOC4yNSwtOC45ODQzNzUgViAtMTUuODEyNSBjIDEuMTY0MDYyLDAgMS43NSwtMC41OTM3NSAxLjc1LC0xLjc4MTI1IDAsLTEuMDkzNzUgLTAuNDQ1MzEyLC0xLjY0MDYyNSAtMS4zMjgxMjUsLTEuNjQwNjI1IC0wLjkwNjI1LDAgLTEuMzU5Mzc1LDAuNzUgLTEuMzU5Mzc1LDIuMjUgViAwIEggMS41NDY4NzUgdiAtMTYuMTg3NSBjIDAsLTEuNjc1NzgxIDAuMTI1LC0zLjA1MDc4MSAwLjM3NSwtNC4xMjUgMC4yNSwtMS4wNzAzMTIgMC42NzU3ODEsLTIuMDcwMzEyIDEuMjgxMjUsLTMgMC42ODc1LC0xLjAxOTUzMSAxLjUzOTA2MywtMS44MjgxMjUgMi41NjI1LC0yLjQyMTg3NSAxLjAxOTUzMSwtMC42MDE1NjMgMi4wNzgxMjUsLTAuOTA2MjUgMy4xNzE4NzUsLTAuOTA2MjUgMS45Njg3NSwwIDMuNjE3MTg4LDAuODkwNjI1IDQuOTUzMTI1LDIuNjcxODc1IDEuMzQzNzUsMS43NzM0MzggMi4wMTU2MjUsMy45Njg3NSAyLjAxNTYyNSw2LjU5Mzc1IDAsMi41NTQ2ODggLTAuNjAxNTYyLDQuNjI1IC0xLjc5Njg3NSw2LjIxODc1IC0xLjEwNTQ2OSwxLjQ2MDkzOCAtMi43NjE3MTksMi4xODc1IC00Ljk2ODc1LDIuMTg3NSB6IG0gMCwwIiBpZD0icGF0aDE0IiBpbmtzY2FwZTpjb25uZWN0b3ItY3VydmF0dXJlPSIwIi8+JiN4YTsgICAgICA8L3N5bWJvbD4mI3hhOyAgICAgIDxzeW1ib2wgb3ZlcmZsb3c9InZpc2libGUiIGlkPSJnbHlwaDEtMCIgc3R5bGU9Im92ZXJmbG93OnZpc2libGUiPiYjeGE7ICAgICAgICA8cGF0aCBzdHlsZT0ic3Ryb2tlOm5vbmUiIGQ9Im0gMS4xMDkzNzUsMCB2IC0zOS45ODQzNzUgaCA4Ljk2ODc1IFYgMCBaIE0gOC45Njg3NSwtMS41IFYgLTM4LjQ4NDM3NSBIIDIuMjM0Mzc1IFYgLTEuNSBaIG0gMCwwIiBpZD0icGF0aDE3IiBpbmtzY2FwZTpjb25uZWN0b3ItY3VydmF0dXJlPSIwIi8+JiN4YTsgICAgICA8L3N5bWJvbD4mI3hhOyAgICAgIDxzeW1ib2wgb3ZlcmZsb3c9InZpc2libGUiIGlkPSJnbHlwaDEtMSIgc3R5bGU9Im92ZXJmbG93OnZpc2libGUiPiYjeGE7ICAgICAgICA8cGF0aCBzdHlsZT0ic3Ryb2tlOm5vbmUiIGQ9Im0gMjMuMTcxODc1LC0xOS41MzEyNSA5LjI4MTI1LDAuMzEyNSBDIDMxLjg0NzY1NiwtMTIuNzY5NTMxIDMwLjE4NzUsLTcuNzg1MTU2IDI3LjQ2ODc1LC00LjI2NTYyNSAyNC43NSwtMC43NTM5MDYgMjEuMjAzMTI1LDEgMTYuODI4MTI1LDEgYyAtNC40Mzc1LDAgLTguMTU2MjUsLTEuOTkyMTg4IC0xMS4xNTYyNSwtNS45ODQzNzUgLTIuOTkyMTg3LC00IC00LjQ4NDM3NSwtOC45NTcwMzEgLTQuNDg0Mzc1LC0xNC44NzUgMCwtNS45NTcwMzEgMS41MjM0MzgsLTEwLjk2MDkzNyA0LjU3ODEyNSwtMTUuMDE1NjI1IDMuMDUwNzgxLC00LjA2MjUgNi44MTI1LC02LjA5Mzc1IDExLjI4MTI1LC02LjA5Mzc1IDQuNDA2MjUsMCA4LjA3ODEyNSwxLjk5MjE4OCAxMS4wMTU2MjUsNS45Njg3NSAyLjAzOTA2MiwyLjc1IDMuNDg0Mzc1LDYuNTg5ODQ0IDQuMzI4MTI1LDExLjUxNTYyNSBsIC05LjUsMC44NDM3NSBjIC0xLjA2MjUsLTQuMzc1IC0zLjA4NTkzNywtNi41NjI1IC02LjA2MjUsLTYuNTYyNSAtMS44OTg0MzcsMCAtMy40NjA5MzcsMC44ODI4MTMgLTQuNjg3NSwyLjY0MDYyNSAtMS4yMzA0NjksMS43NjE3MTkgLTEuODQzNzUsMy45OTYwOTQgLTEuODQzNzUsNi43MDMxMjUgMCwyLjYxNzE4NyAwLjYwMTU2Myw0Ljc3NzM0NCAxLjgxMjUsNi40ODQzNzUgMS4yMDcwMzEsMS43MTA5MzggMi43MzgyODEsMi41NjI1IDQuNTkzNzUsMi41NjI1IDEuODc1LDAgMy4zNjcxODcsLTAuNzUgNC40ODQzNzUsLTIuMjUgMS4xMTMyODEsLTEuNSAxLjc3MzQzOCwtMy42NTYyNSAxLjk4NDM3NSwtNi40Njg3NSB6IG0gMCwwIiBpZD0icGF0aDIwIiBpbmtzY2FwZTpjb25uZWN0b3ItY3VydmF0dXJlPSIwIi8+JiN4YTsgICAgICA8L3N5bWJvbD4mI3hhOyAgICAgIDxzeW1ib2wgb3ZlcmZsb3c9InZpc2libGUiIGlkPSJnbHlwaDEtMiIgc3R5bGU9Im92ZXJmbG93OnZpc2libGUiPiYjeGE7ICAgICAgICA8cGF0aCBzdHlsZT0ic3Ryb2tlOm5vbmUiIGQ9Ik0gMTMuODEyNSwtMjAuMDYyNSBWIC05LjUxNTYyNSBIIDExLjI1IFYgMCBIIDIuMzc1IHYgLTI1LjQyMTg3NSBjIDAsLTQuOTE0MDYzIDEsLTguNzM0Mzc1IDMsLTExLjQ1MzEyNSAyLjAwNzgxMiwtMi43MjY1NjIgNC44MzIwMzEsLTQuMDkzNzUgOC40Njg3NSwtNC4wOTM3NSAzLjQ4ODI4MSwwIDYuMDcwMzEyLDEuMjM0Mzc1IDcuNzUsMy43MDMxMjUgMS42NzU3ODEsMi40Njg3NSAyLjUxNTYyNSw2LjI4MTI1IDIuNTE1NjI1LDExLjQzNzUgViAwIGggLTguODc1IHYgLTI1LjA0Njg3NSBjIDAsLTEuNTYyNSAtMC4xNDA2MjUsLTIuNjQ0NTMxIC0wLjQyMTg3NSwtMy4yNSAtMC4yNzM0MzgsLTAuNjAxNTYzIC0wLjc2NTYyNSwtMC45MDYyNSAtMS40ODQzNzUsLTAuOTA2MjUgLTEuMzg2NzE5LDAgLTIuMDc4MTI1LDEuMzg2NzE5IC0yLjA3ODEyNSw0LjE1NjI1IHYgNC45ODQzNzUgeiBtIDAsMCIgaWQ9InBhdGgyMyIgaW5rc2NhcGU6Y29ubmVjdG9yLWN1cnZhdHVyZT0iMCIvPiYjeGE7ICAgICAgPC9zeW1ib2w+JiN4YTsgICAgICA8c3ltYm9sIG92ZXJmbG93PSJ2aXNpYmxlIiBpZD0iZ2x5cGgxLTMiIHN0eWxlPSJvdmVyZmxvdzp2aXNpYmxlIj4mI3hhOyAgICAgICAgPHBhdGggc3R5bGU9InN0cm9rZTpub25lIiBkPSJtIDIuMzc1LDAgdiAtMjguODI4MTI1IGMgMCwtMy41NzAzMTMgMC44MDQ2ODgsLTYuNDg4MjgxIDIuNDIxODc1LC04Ljc1IDEuNjI1LC0yLjI1NzgxMyAzLjcyNjU2MywtMy4zOTA2MjUgNi4zMTI1LC0zLjM5MDYyNSAzLjA1MDc4MSwwIDUuNDA2MjUsMS44ODI4MTIgNy4wNjI1LDUuNjQwNjI1IDEsLTIuMDMxMjUgMi4wNzAzMTMsLTMuNDc2NTYzIDMuMjE4NzUsLTQuMzQzNzUgMS4xNTYyNSwtMC44NjMyODEgMi41NzgxMjUsLTEuMjk2ODc1IDQuMjY1NjI1LC0xLjI5Njg3NSAyLjY4NzUsMCA0Ljc0MjE4OCwxLjEzMjgxMiA2LjE3MTg3NSwzLjM5MDYyNSAxLjQyNTc4MSwyLjI2MTcxOSAyLjE0MDYyNSw1LjUyMzQzNyAyLjE0MDYyNSw5Ljc4MTI1IFYgMCBoIC04Ljg3NSB2IC0yNi4wMTU2MjUgYyAwLC0xLjI4MTI1IC0wLjA3ODEzLC0yLjEyODkwNiAtMC4yMzQzNzUsLTIuNTQ2ODc1IC0wLjE0ODQzNywtMC40MjU3ODEgLTAuNDUzMTI1LC0wLjY0MDYyNSAtMC45MjE4NzUsLTAuNjQwNjI1IC0wLjg3NSwwIC0xLjMxMjUsMC45OTYwOTQgLTEuMzEyNSwyLjk4NDM3NSBWIDAgSCAxMy43NSB2IC0yNi4wMTU2MjUgYyAwLC0xLjI1NzgxMyAtMC4wODU5NCwtMi4xMDE1NjMgLTAuMjUsLTIuNTMxMjUgLTAuMTU2MjUsLTAuNDM3NSAtMC40Njg3NSwtMC42NTYyNSAtMC45Mzc1LC0wLjY1NjI1IC0wLjg3NSwwIC0xLjMxMjUsMS4wNjI1IC0xLjMxMjUsMy4xODc1IFYgMCBaIG0gMCwwIiBpZD0icGF0aDI2IiBpbmtzY2FwZTpjb25uZWN0b3ItY3VydmF0dXJlPSIwIi8+JiN4YTsgICAgICA8L3N5bWJvbD4mI3hhOyAgICAgIDxzeW1ib2wgb3ZlcmZsb3c9InZpc2libGUiIGlkPSJnbHlwaDEtNCIgc3R5bGU9Im92ZXJmbG93OnZpc2libGUiPiYjeGE7ICAgICAgICA8cGF0aCBzdHlsZT0ic3Ryb2tlOm5vbmUiIGQ9Ik0gMTIuNzAzMTI1LC0xMy44MjgxMjUgViAtMjQuMzEyNSBjIDEuNzg5MDYzLDAgMi42ODc1LC0wLjkxNDA2MiAyLjY4NzUsLTIuNzUgMCwtMS42NzU3ODEgLTAuNjg3NSwtMi41MTU2MjUgLTIuMDYyNSwtMi41MTU2MjUgLTEuMzg2NzE5LDAgLTIuMDc4MTI1LDEuMTUyMzQ0IC0yLjA3ODEyNSwzLjQ1MzEyNSBWIDAgSCAyLjM3NSB2IC0yNC44OTA2MjUgYyAwLC0yLjU4MjAzMSAwLjE5MTQwNiwtNC42OTUzMTMgMC41NzgxMjUsLTYuMzQzNzUgMC4zOTQ1MzEsLTEuNjU2MjUgMS4wNTQ2ODcsLTMuMTkxNDA2IDEuOTg0Mzc1LC00LjYwOTM3NSAxLjA1MDc4MSwtMS41ODIwMzEgMi4zNjMyODEsLTIuODMyMDMxIDMuOTM3NSwtMy43NSAxLjU3MDMxMiwtMC45MTQwNjIgMy4xOTUzMTIsLTEuMzc1IDQuODc1LC0xLjM3NSAzLjAzMTI1LDAgNS41NzgxMjUsMS4zNjcxODggNy42NDA2MjUsNC4wOTM3NSAyLjA2MjUsMi43MzA0NjkgMy4wOTM3NSw2LjExNzE4OCAzLjA5Mzc1LDEwLjE1NjI1IDAsMy45Mjk2ODggLTAuOTI5Njg3LDcuMTE3MTg4IC0yLjc4MTI1LDkuNTYyNSAtMS42ODc1LDIuMjQyMTg4IC00LjIzNDM3NSwzLjM1OTM3NSAtNy42NDA2MjUsMy4zNTkzNzUgeiBtIDAsMCIgaWQ9InBhdGgyOSIgaW5rc2NhcGU6Y29ubmVjdG9yLWN1cnZhdHVyZT0iMCIvPiYjeGE7ICAgICAgPC9zeW1ib2w+JiN4YTsgICAgICA8c3ltYm9sIG92ZXJmbG93PSJ2aXNpYmxlIiBpZD0iZ2x5cGgxLTUiIHN0eWxlPSJvdmVyZmxvdzp2aXNpYmxlIj4mI3hhOyAgICAgICAgPHBhdGggc3R5bGU9InN0cm9rZTpub25lIiBkPSJtIDE3LjE0MDYyNSwtNDAuOTY4NzUgYyA0LjIxODc1LDAgNy44MzU5MzcsMi4wNjI1IDEwLjg1OTM3NSw2LjE4NzUgMy4wMzEyNSw0LjExNzE4OCA0LjU0Njg3NSw5LjA0Mjk2OSA0LjU0Njg3NSwxNC43ODEyNSAwLDUuODM1OTM4IC0xLjUyNzM0NCwxMC43OTI5NjkgLTQuNTc4MTI1LDE0Ljg3NSBDIDI0LjkyNTc4MSwtMS4wMzkwNjIgMjEuMjI2NTYyLDEgMTYuODc1LDEgMTIuNTM5MDYyLDEgOC44NDM3NSwtMS4wNTA3ODEgNS43ODEyNSwtNS4xNTYyNSAyLjcyNjU2MiwtOS4yNTc4MTIgMS4yMDMxMjUsLTE0LjIwNzAzMSAxLjIwMzEyNSwtMjAgYyAwLC01Ljg2MzI4MSAxLjUzOTA2MywtMTAuODIwMzEyIDQuNjI1LC0xNC44NzUgMy4wODIwMzEsLTQuMDYyNSA2Ljg1MTU2MywtNi4wOTM3NSAxMS4zMTI1LC02LjA5Mzc1IHogTSAxNi44NzUsLTI5LjIwMzEyNSBjIC0xLjgyNDIxOSwwIC0zLjM3NSwwLjkwMjM0NCAtNC42NTYyNSwyLjcwMzEyNSAtMS4yODEyNSwxLjc5Mjk2OSAtMS45MjE4NzUsMy45NjA5MzggLTEuOTIxODc1LDYuNSAwLDIuNTMxMjUgMC42NDQ1MzEsNC42OTkyMTkgMS45Mzc1LDYuNSAxLjI4OTA2MywxLjc5Mjk2OSAyLjgzNTkzNywyLjY4NzUgNC42NDA2MjUsMi42ODc1IDEuODMyMDMxLDAgMy4zODI4MTIsLTAuODkwNjI1IDQuNjU2MjUsLTIuNjcxODc1IDEuMjgxMjUsLTEuNzg5MDYzIDEuOTIxODc1LC0zLjk2MDkzNyAxLjkyMTg3NSwtNi41MTU2MjUgMCwtMi41NjI1IC0wLjY0MDYyNSwtNC43MzQzNzUgLTEuOTIxODc1LC02LjUxNTYyNSAtMS4yNzM0MzgsLTEuNzg5MDYzIC0yLjgyNDIxOSwtMi42ODc1IC00LjY1NjI1LC0yLjY4NzUgeiBtIDAsMCIgaWQ9InBhdGgzMiIgaW5rc2NhcGU6Y29ubmVjdG9yLWN1cnZhdHVyZT0iMCIvPiYjeGE7ICAgICAgPC9zeW1ib2w+JiN4YTsgICAgICA8c3ltYm9sIG92ZXJmbG93PSJ2aXNpYmxlIiBpZD0iZ2x5cGgyLTAiIHN0eWxlPSJvdmVyZmxvdzp2aXNpYmxlIj4mI3hhOyAgICAgICAgPHBhdGggc3R5bGU9InN0cm9rZTpub25lIiBkPSJNIDAuNzUsMCBWIC0xNiBIIDYuNzE4NzUgViAwIFogbSA1LjIxODc1LC0wLjU5Mzc1IHYgLTE0LjgxMjUgSCAxLjQ4NDM3NSB2IDE0LjgxMjUgeiBtIDAsMCIgaWQ9InBhdGgzNSIgaW5rc2NhcGU6Y29ubmVjdG9yLWN1cnZhdHVyZT0iMCIvPiYjeGE7ICAgICAgPC9zeW1ib2w+JiN4YTsgICAgICA8c3ltYm9sIG92ZXJmbG93PSJ2aXNpYmxlIiBpZD0iZ2x5cGgyLTEiIHN0eWxlPSJvdmVyZmxvdzp2aXNpYmxlIj4mI3hhOyAgICAgICAgPHBhdGggc3R5bGU9InN0cm9rZTpub25lIiBkPSJNIDkuMjAzMTI1LC04LjAzMTI1IFYgLTMuODEyNSBIIDcuNSBWIDAgSCAxLjU5Mzc1IHYgLTEwLjE3MTg3NSBjIDAsLTEuOTY4NzUgMC42NjQwNjIsLTMuNDkyMTg3IDIsLTQuNTc4MTI1IDEuMzMyMDMxLC0xLjA5Mzc1IDMuMjA3MDMxLC0xLjY0MDYyNSA1LjYyNSwtMS42NDA2MjUgMi4zMzIwMzEsMCA0LjA1NDY4OCwwLjQ5NjA5NCA1LjE3MTg3NSwxLjQ4NDM3NSAxLjEyNSwwLjk4MDQ2OSAxLjY4NzUsMi41IDEuNjg3NSw0LjU2MjUgViAwIEggMTAuMTU2MjUgdiAtMTAuMDE1NjI1IGMgMCwtMC42MjUgLTAuMDkzNzUsLTEuMDU0Njg3IC0wLjI4MTI1LC0xLjI5Njg3NSAtMC4xNzk2ODgsLTAuMjUgLTAuNTA3ODEyLC0wLjM3NSAtMC45ODQzNzUsLTAuMzc1IC0wLjkyOTY4NywwIC0xLjM5MDYyNSwwLjU1ODU5NCAtMS4zOTA2MjUsMS42NzE4NzUgdiAxLjk4NDM3NSB6IG0gMCwwIiBpZD0icGF0aDM4IiBpbmtzY2FwZTpjb25uZWN0b3ItY3VydmF0dXJlPSIwIi8+JiN4YTsgICAgICA8L3N5bWJvbD4mI3hhOyAgICAgIDxzeW1ib2wgb3ZlcmZsb3c9InZpc2libGUiIGlkPSJnbHlwaDItMiIgc3R5bGU9Im92ZXJmbG93OnZpc2libGUiPiYjeGE7ICAgICAgICA8cGF0aCBzdHlsZT0ic3Ryb2tlOm5vbmUiIGQ9Ik0gMTAuNDIxODc1LC04Ljk2ODc1IEggMTYuMDYyNSBjIDEuMjA3MDMxLDEuMjEwOTM4IDEuODEyNSwyLjQ4NDM3NSAxLjgxMjUsMy44MjgxMjUgMCwxLjU2MjUgLTAuNzE0ODQ0LDIuODgyODEzIC0yLjE0MDYyNSwzLjk1MzEyNSAtMS40MTc5NjksMS4wNjI1IC0zLjE2Nzk2OSwxLjU5Mzc1IC01LjI1LDEuNTkzNzUgLTIuNjk5MjE5LDAgLTQuOTkyMTg3LC0wLjgyMDMxMiAtNi44NzUsLTIuNDY4NzUgQyAxLjcyMjY1NiwtMy43MTg3NSAwLjc4MTI1LC01LjcyNjU2MiAwLjc4MTI1LC04LjA5Mzc1IGMgMCwtMi4zNzUgMC45NTcwMzEsLTQuMzQ3NjU2IDIuODc1LC01LjkyMTg3NSAxLjkyNTc4MSwtMS41ODIwMzEgNC4zMjgxMjUsLTIuMzc1IDcuMjAzMTI1LC0yLjM3NSAwLjk3NjU2MywwIDIuMDY2NDA2LDAuMTU2MjUgMy4yNjU2MjUsMC40Njg3NSB2IDQuNzY1NjI1IGMgLTAuOTM3NSwtMC4zNTE1NjIgLTEuNzkyOTY5LC0wLjUzMTI1IC0yLjU2MjUsLTAuNTMxMjUgLTEuMzg2NzE5LDAgLTIuNTIzNDM4LDAuMzUxNTYyIC0zLjQwNjI1LDEuMDQ2ODc1IC0wLjg3NSwwLjY5OTIxOSAtMS4zMTI1LDEuNjAxNTYzIC0xLjMxMjUsMi43MDMxMjUgMCwxLjEzNjcxOSAwLjQwNjI1LDIuMDM5MDYyIDEuMjE4NzUsMi43MDMxMjUgMC44MjAzMTIsMC42NTYyNSAxLjkyNTc4MSwwLjk4NDM3NSAzLjMxMjUsMC45ODQzNzUgMC44ODI4MTIsMCAxLjMyODEyNSwtMC4yMDMxMjUgMS4zMjgxMjUsLTAuNjA5Mzc1IDAsLTAuMzEyNSAtMC4yOTI5NjksLTAuNDY4NzUgLTAuODc1LC0wLjQ2ODc1IGggLTEuNDA2MjUgeiBtIDAsMCIgaWQ9InBhdGg0MSIgaW5rc2NhcGU6Y29ubmVjdG9yLWN1cnZhdHVyZT0iMCIvPiYjeGE7ICAgICAgPC9zeW1ib2w+JiN4YTsgICAgICA8c3ltYm9sIG92ZXJmbG93PSJ2aXNpYmxlIiBpZD0iZ2x5cGgyLTMiIHN0eWxlPSJvdmVyZmxvdzp2aXNpYmxlIj4mI3hhOyAgICAgICAgPHBhdGggc3R5bGU9InN0cm9rZTpub25lIiBkPSJNIDcuOTA2MjUsLTExLjcwMzEyNSBWIDAgSCAyIHYgLTE2IGggNy41OTM3NSBjIDIuMzEyNSwwIDQuMTAxNTYyLDAuNDY0ODQ0IDUuMzc1LDEuMzkwNjI1IDEuNDE0MDYyLDEuMDMxMjUgMi4xMjUsMi4zMzk4NDQgMi4xMjUsMy45MjE4NzUgMCwxLjYxNzE4OCAtMC44ODI4MTIsMi45ODA0NjkgLTIuNjQwNjI1LDQuMDkzNzUgTCAxNy44NTkzNzUsMCBIIDExLjY1NjI1IGwgLTIuODc1LC01LjE1NjI1IFYgLTkuMjY1NjI1IEggOS4yNSBjIDEuMjUsMCAxLjg3NSwtMC40Mjk2ODcgMS44NzUsLTEuMjk2ODc1IDAsLTAuNzU3ODEyIC0wLjcxODc1LC0xLjE0MDYyNSAtMi4xNTYyNSwtMS4xNDA2MjUgeiBtIDAsMCIgaWQ9InBhdGg0NCIgaW5rc2NhcGU6Y29ubmVjdG9yLWN1cnZhdHVyZT0iMCIvPiYjeGE7ICAgICAgPC9zeW1ib2w+JiN4YTsgICAgICA8c3ltYm9sIG92ZXJmbG93PSJ2aXNpYmxlIiBpZD0iZ2x5cGgyLTQiIHN0eWxlPSJvdmVyZmxvdzp2aXNpYmxlIj4mI3hhOyAgICAgICAgPHBhdGggc3R5bGU9InN0cm9rZTpub25lIiBkPSJtIDExLjQyMTg3NSwtMTYuMzkwNjI1IGMgMi44MjAzMTMsMCA1LjIzODI4MSwwLjgyNDIxOSA3LjI1LDIuNDY4NzUgMi4wMTk1MzEsMS42NDg0MzcgMy4wMzEyNSwzLjYyMTA5NCAzLjAzMTI1LDUuOTIxODc1IDAsMi4zMzU5MzggLTEuMDE1NjI1LDQuMzIwMzEyIC0zLjA0Njg3NSw1Ljk1MzEyNSAtMi4wMzEyNSwxLjYzNjcxOSAtNC41LDIuNDUzMTI1IC03LjQwNjI1LDIuNDUzMTI1IC0yLjg4NjcxOSwwIC01LjM1MTU2MiwtMC44MjAzMTIgLTcuMzkwNjI1LC0yLjQ2ODc1IC0yLjA0Mjk2OSwtMS42NDQ1MzEgLTMuMDYyNSwtMy42MjUgLTMuMDYyNSwtNS45Mzc1IDAsLTIuMzQzNzUgMS4wMjM0MzcsLTQuMzI4MTI1IDMuMDc4MTI1LC01Ljk1MzEyNSAyLjA2MjUsLTEuNjI1IDQuNTc4MTI1LC0yLjQzNzUgNy41NDY4NzUsLTIuNDM3NSB6IE0gMTEuMjUsLTExLjY4NzUgYyAtMS4yMTg3NSwwIC0yLjI1NzgxMiwwLjM1OTM3NSAtMy4xMDkzNzUsMS4wNzgxMjUgLTAuODU1NDY5LDAuNzE4NzUgLTEuMjgxMjUsMS41ODk4NDQgLTEuMjgxMjUsMi42MDkzNzUgMCwxLjAxMTcxOSAwLjQyNTc4MSwxLjg3NSAxLjI4MTI1LDIuNTkzNzUgMC44NjMyODEsMC43MTg3NSAxLjg5ODQzNywxLjA3ODEyNSAzLjEwOTM3NSwxLjA3ODEyNSAxLjIxODc1LDAgMi4yNTM5MDYsLTAuMzUxNTYzIDMuMTA5Mzc1LC0xLjA2MjUgMC44NTE1NjMsLTAuNzE4NzUgMS4yODEyNSwtMS41ODU5MzcgMS4yODEyNSwtMi42MDkzNzUgMCwtMS4wMzEyNSAtMC40Mjk2ODcsLTEuODk4NDM4IC0xLjI4MTI1LC0yLjYwOTM3NSBDIDEzLjUwMzkwNiwtMTEuMzI4MTI1IDEyLjQ2ODc1LC0xMS42ODc1IDExLjI1LC0xMS42ODc1IFogbSAwLDAiIGlkPSJwYXRoNDciIGlua3NjYXBlOmNvbm5lY3Rvci1jdXJ2YXR1cmU9IjAiLz4mI3hhOyAgICAgIDwvc3ltYm9sPiYjeGE7ICAgICAgPHN5bWJvbCBvdmVyZmxvdz0idmlzaWJsZSIgaWQ9ImdseXBoMi01IiBzdHlsZT0ib3ZlcmZsb3c6dmlzaWJsZSI+JiN4YTsgICAgICAgIDxwYXRoIHN0eWxlPSJzdHJva2U6bm9uZSIgZD0ibSAxLjU5Mzc1LDAgdiAtMTEuNTMxMjUgYyAwLC0xLjQyNTc4MSAwLjUzNTE1NiwtMi41OTM3NSAxLjYwOTM3NSwtMy41IDEuMDgyMDMxLC0wLjkwNjI1IDIuNDg0Mzc1LC0xLjM1OTM3NSA0LjIwMzEyNSwtMS4zNTkzNzUgMi4wMzkwNjIsMCAzLjYwOTM3NSwwLjc1IDQuNzAzMTI1LDIuMjUgMC42NjQwNjMsLTAuODEyNSAxLjM4MjgxMywtMS4zOTA2MjUgMi4xNTYyNSwtMS43MzQzNzUgMC43Njk1MzEsLTAuMzQzNzUgMS43MTg3NSwtMC41MTU2MjUgMi44NDM3NSwtMC41MTU2MjUgMS43ODEyNSwwIDMuMTQ0NTMxLDAuNDUzMTI1IDQuMDkzNzUsMS4zNTkzNzUgMC45NTcwMzEsMC45MDYyNSAxLjQzNzUsMi4yMTA5MzggMS40Mzc1LDMuOTA2MjUgViAwIGggLTUuOTA2MjUgdiAtMTAuNDA2MjUgYyAwLC0wLjUxOTUzMSAtMC4wNTQ2OSwtMC44NjMyODEgLTAuMTU2MjUsLTEuMDMxMjUgLTAuMTA1NDY5LC0wLjE2NDA2MiAtMC4zMTI1LC0wLjI1IC0wLjYyNSwtMC4yNSAtMC41ODU5MzcsMCAtMC44NzUsMC40MDIzNDQgLTAuODc1LDEuMjAzMTI1IFYgMCBIIDkuMTcxODc1IFYgLTEwLjQwNjI1IEMgOS4xNzE4NzUsLTEwLjkxNDA2MiA5LjExMzI4MSwtMTEuMjUzOTA2IDksLTExLjQyMTg3NSA4Ljg5NDUzMSwtMTEuNTk3NjU2IDguNjg3NSwtMTEuNjg3NSA4LjM3NSwtMTEuNjg3NSBjIC0wLjU4NTkzOCwwIC0wLjg3NSwwLjQyOTY4OCAtMC44NzUsMS4yODEyNSBWIDAgWiBtIDAsMCIgaWQ9InBhdGg1MCIgaW5rc2NhcGU6Y29ubmVjdG9yLWN1cnZhdHVyZT0iMCIvPiYjeGE7ICAgICAgPC9zeW1ib2w+JiN4YTsgICAgICA8c3ltYm9sIG92ZXJmbG93PSJ2aXNpYmxlIiBpZD0iZ2x5cGgyLTYiIHN0eWxlPSJvdmVyZmxvdzp2aXNpYmxlIj4mI3hhOyAgICAgICAgPHBhdGggc3R5bGU9InN0cm9rZTpub25lIiBkPSJtIDE5LjI2NTYyNSwtMTYgLTUuMjUsNy4yNSA1LjIxODc1LDguNzUgSCAxMi41OTM3NSBsIC00LjUsLTguODQzNzUgTCAxMy4xODc1LC0xNiBaIE0gNy45MDYyNSwtMTYgViAwIEggMiB2IC0xNiB6IG0gMCwwIiBpZD0icGF0aDUzIiBpbmtzY2FwZTpjb25uZWN0b3ItY3VydmF0dXJlPSIwIi8+JiN4YTsgICAgICA8L3N5bWJvbD4mI3hhOyAgICAgIDxzeW1ib2wgb3ZlcmZsb3c9InZpc2libGUiIGlkPSJnbHlwaDItNyIgc3R5bGU9Im92ZXJmbG93OnZpc2libGUiPiYjeGE7ICAgICAgICA8cGF0aCBzdHlsZT0ic3Ryb2tlOm5vbmUiIGQ9Im0gMTIuNjA5Mzc1LC05Ljc4MTI1IHYgMy41NjI1IEggOC43NSBjIC0wLjUzMTI1LDAgLTAuOTA2MjUsMC4wNjI1IC0xLjEyNSwwLjE4NzUgLTAuMjE4NzUsMC4xMjUgLTAuMzI4MTI1LDAuMzM5ODQ0IC0wLjMyODEyNSwwLjY0MDYyNSAwLDAuMzM1OTM3IDAuMTA5Mzc1LDAuNTU0Njg3IDAuMzI4MTI1LDAuNjU2MjUgMC4yMjY1NjIsMC4xMDU0NjkgMC42ODc1LDAuMTU2MjUgMS4zNzUsMC4xNTYyNSBoIDMuOTg0Mzc1IFYgMCBoIC00LjY1NjI1IGMgLTIuMTc5Njg3LDAgLTMuODQzNzUsLTAuNDE0MDYyIC01LC0xLjI1IEMgMi4xNzE4NzUsLTIuMDkzNzUgMS41OTM3NSwtMy4zMTI1IDEuNTkzNzUsLTQuOTA2MjUgdiAtNi4yNjU2MjUgYyAwLC0xLjUzMTI1IDAuNTM5MDYyLC0yLjcxODc1IDEuNjI1LC0zLjU2MjUgQyA0LjMxMjUsLTE1LjU3ODEyNSA1Ljg1MTU2MiwtMTYgNy44NDM3NSwtMTYgaCA1LjE0MDYyNSB2IDQuNTkzNzUgaCAtMy43ODEyNSBjIC0xLjAyMzQzNywwIC0xLjUzMTI1LDAuMjY1NjI1IC0xLjUzMTI1LDAuNzk2ODc1IDAsMC4zMTI1IDAuMTE3MTg3LDAuNTMxMjUgMC4zNTkzNzUsMC42NTYyNSAwLjI1LDAuMTE3MTg3IDAuNjg3NSwwLjE3MTg3NSAxLjMxMjUsMC4xNzE4NzUgeiBtIDAsMCIgaWQ9InBhdGg1NiIgaW5rc2NhcGU6Y29ubmVjdG9yLWN1cnZhdHVyZT0iMCIvPiYjeGE7ICAgICAgPC9zeW1ib2w+JiN4YTsgICAgPC9nPiYjeGE7ICA8L2RlZnM+JiN4YTsgIDxnIGlkPSJzdXJmYWNlNTcyIiB0cmFuc2Zvcm09InRyYW5zbGF0ZSgxLjM3MTgwODMsNS4xOTg2NzExKSI+JiN4YTsgICAgPHBhdGggc3R5bGU9ImZpbGw6I2ZmZmZmZjtmaWxsLW9wYWNpdHk6MTtmaWxsLXJ1bGU6bm9uemVybztzdHJva2U6bm9uZSIgZD0iTSAzNTAsMTAwLjUgSCA1NCBDIDI2LjM4NjcxOSwxMDAuNSA0LDc4LjExMzI4MSA0LDUwLjUgNCwyMi44ODY3MTkgMjYuMzg2NzE5LDAuNSA1NCwwLjUgaCAyOTYgYyAyNy42MTMyOCwwIDUwLDIyLjM4NjcxOSA1MCw1MCAwLDI3LjYxMzI4MSAtMjIuMzg2NzIsNTAgLTUwLDUwIiBpZD0icGF0aDYzIiBpbmtzY2FwZTpjb25uZWN0b3ItY3VydmF0dXJlPSIwIi8+JiN4YTsgICAgPHBhdGggc3R5bGU9ImZpbGw6bm9uZTtzdHJva2U6IzUxNmJmZDtzdHJva2Utd2lkdGg6NjtzdHJva2UtbGluZWNhcDpidXR0O3N0cm9rZS1saW5lam9pbjptaXRlcjtzdHJva2UtbWl0ZXJsaW1pdDo0O3N0cm9rZS1vcGFjaXR5OjEiIGQ9Im0gMCwwIGggLTI5NiBjIC0yNy42MTMyOCwwIC01MCwyMi4zODY3MTkgLTUwLDUwIDAsMjcuNjEzMjgxIDIyLjM4NjcyLDUwIDUwLDUwIEggMCBDIDI3LjYxMzI4MSwxMDAgNTAsNzcuNjEzMjgxIDUwLDUwIDUwLDIyLjM4NjcxOSAyNy42MTMyODEsMCAwLDAgWiBtIDAsMCIgdHJhbnNmb3JtPSJtYXRyaXgoMSwwLDAsLTEsMzUwLDEwMC41KSIgaWQ9InBhdGg2NSIgaW5rc2NhcGU6Y29ubmVjdG9yLWN1cnZhdHVyZT0iMCIvPiYjeGE7ICAgIDxwYXRoIHN0eWxlPSJmaWxsOiM1MTZiZmQ7ZmlsbC1vcGFjaXR5OjE7ZmlsbC1ydWxlOm5vbnplcm87c3Ryb2tlOm5vbmUiIGQ9Ik0gNDguMTQ0NTMxLDI1LjI0NjA5NCBDIDM1LjkxNzk2OSwyNS4yNDIxODggMjYuMDAzOTA2LDM1LjIwMzEyNSAyNiw0Ny40OTIxODggYyAwLDguMDMxMjUgNC4yOTY4NzUsMTUuNDM3NSAxMS4yNTM5MDYsMTkuMzg2NzE4IDAuMjEwOTM4LDAuMTIxMDk0IDAuNDY0ODQ0LDAuMTUyMzQ0IDAuNzAzMTI1LDAuMDg1OTQgMC4yMzQzNzUsLTAuMDY2NDEgMC40Mjk2ODgsLTAuMjIyNjU2IDAuNTUwNzgxLC0wLjQzNzUgTCA0NS4zMzU5MzgsNTQuMzk4NDQgYyAwLjI1MzkwNiwtMC40NDUzMTMgMC4wOTc2NiwtMS4wMTE3MTkgLTAuMzQ3NjU3LC0xLjI2MTcxOSAtMy4xMDkzNzUsLTEuNzU3ODEzIC00LjIxNDg0MywtNS43MTQ4NDQgLTIuNDY4NzUsLTguODQzNzUgMS43NSwtMy4xMjUgNS42ODc1LC00LjIzODI4MSA4Ljc5Njg3NSwtMi40ODA0NjkgMy4xMDkzNzUsMS43NTM5MDYgNC4yMTQ4NDQsNS43MTQ4NDQgMi40Njg3NSw4LjgzOTg0NCAtMC41ODIwMzEsMS4wMzkwNjIgLTEuNDMzNTk0LDEuODk4NDM3IC0yLjQ2ODc1LDIuNDg0Mzc1IC0wLjQ0NTMxMiwwLjI1IC0wLjYwMTU2MiwwLjgxNjQwNiAtMC4zNDc2NTYsMS4yNjE3MTkgbCA2LjgwODU5NCwxMi4xMjg5MDYgYyAwLjEyMTA5NCwwLjIxNDg0NCAwLjMyMDMxMiwwLjM3MTA5NCAwLjU1NDY4NywwLjQzNzUgMC4wODIwMywwLjAyNzM0IDAuMTY0MDYzLDAuMDM1MTYgMC4yNDYwOTQsMC4wMzUxNiAwLjE2MDE1NiwwIDAuMzE2NDA2LC0wLjA0Mjk3IDAuNDU3MDMxLC0wLjEyMTA5NCBDIDY5LjY4MzU5NCw2MC44Mzk4NDQgNzMuNDQ1MzEyLDQ3LjI2NTYyNSA2Ny40Mzc1LDM2LjU2MjUgNjMuNTA3ODEyLDI5LjU2NjQwNiA1Ni4xMzY3MTksMjUuMjM4MjgxIDQ4LjE0NDUzMSwyNS4yNDIxODggWiBtIDAsMCIgaWQ9InBhdGg2NyIgaW5rc2NhcGU6Y29ubmVjdG9yLWN1cnZhdHVyZT0iMCIvPiYjeGE7ICAgIDxwYXRoIHN0eWxlPSJmaWxsOiNmZmZmZmY7ZmlsbC1vcGFjaXR5OjE7ZmlsbC1ydWxlOm5vbnplcm87c3Ryb2tlOiMwMDAwMDA7c3Ryb2tlLXdpZHRoOjAuNzk2OTk5OTk7c3Ryb2tlLWxpbmVjYXA6YnV0dDtzdHJva2UtbGluZWpvaW46bWl0ZXI7c3Ryb2tlLW1pdGVybGltaXQ6NDtzdHJva2Utb3BhY2l0eToxIiBkPSJNIDAuMDAxNDc1LDkuOTM3NWUtNCBDIDEwLjc2NzEsNy45Mzg0OTQgMTQuMzIxNzg3LDIyLjc2NjYxOSAyMi4zMjU2OTQsMjIuMzYwMzY5IDI3LjE1MzgxOSwyMC4zMTc0IDExLjY5Njc4NywtMTAuOTg3Mjg3IDQuMjQ3NTY5LC0xMy4xMDgzODEgYyAtOC43ODEyNSwtNC4yOTY4NzUgLTExLjAwMzkwNywtNS40MDIzNDQgLTIyLjExMzI4MiwtNy45ODA0NjkgLTExLjkxNDA2MiwtMi43NjE3MTkgLTI1Ljg5NDUzMSwxMS45MDYyNSAtMzguNjI1LDE0LjkyOTY4OCAtMS40NDkyMTgsMC4zNDM3NSAtNC4yODUxNTYsLTEuODkwNjI1IC00LjI4NTE1NiwwLjUzNTE1NiBsIDIuMjgxMjUsNC42NzU3ODEgYyAwLjQxNDA2MywwLjg0NzY1NiAwLjM5NDUzMSwxLjkxNzk2OSAtMC4wNTQ2OSwyLjc0MjE4OCBsIC0yLjU5NzY1Nyw0Ljc4OTA2MiBjIC0wLjM2MzI4MSwwLjY3MTg3NSAtMC4zMjgxMjUsMS41NzQyMTkgMC4xMTMyODIsMi4xNzE4NzUgMTMuNzM4MjgxLDE4LjcwMzEyNSAyOS41MTk1MzEsLTMuNDA2MjUgNDIuNjgzNTkzLC0yLjYxNzE4NyAxNy40NDE0MDcsMS4wMzkwNjIgMjUuNzE4NzUsLTYuNzUgMTAuOTg4MjgyLC0xMS4zMTY0MDcgLTIuNzkyOTY5LC0wLjg2MzI4MSAtMTguNDAyMzQ0LDIuMDQ2ODc1IC0yNC4zMjQyMTksLTAuNzk2ODc1IiB0cmFuc2Zvcm09Im1hdHJpeCgxLDAsMCwtMSw4Mi45ODI5LDczLjU2NzQpIiBpZD0icGF0aDY5IiBpbmtzY2FwZTpjb25uZWN0b3ItY3VydmF0dXJlPSIwIi8+JiN4YTsgICAgPHBhdGggc3R5bGU9ImZpbGw6IzAwODUwMDtmaWxsLW9wYWNpdHk6MTtmaWxsLXJ1bGU6bm9uemVybztzdHJva2U6bm9uZSIgZD0ibSA3Ny41NTA3ODEsNDguMDMxMjUgYyAtNS40NTMxMjUsLTIwLjE2NDA2MiAxMi4wMzEyNSwtMjMuMTA5Mzc1IDEyLjQxMDE1NywtMjMuMTA5Mzc1IDAuMzc1LDAgOC40NDkyMTgsMjEuMzIwMzEzIC0xMi40MTAxNTcsMjMuMTA5Mzc1IiBpZD0icGF0aDcxIiBpbmtzY2FwZTpjb25uZWN0b3ItY3VydmF0dXJlPSIwIi8+JiN4YTsgICAgPHBhdGggc3R5bGU9ImZpbGw6IzAwODUwMDtmaWxsLW9wYWNpdHk6MTtmaWxsLXJ1bGU6bm9uemVybztzdHJva2U6bm9uZSIgZD0iTSA2Ny4yMzgyODEsMjYuMDU4NTk0IEMgNzQuMTk1MzEyLDcuNjgzNTk0IDUxLjg5ODQzOCw1IDUxLjQxNzk2OSw1IGMgLTAuNDg0Mzc1LDAgLTMsMjUuNTY2NDA2IDE1LjgyMDMxMiwyMS4wNTg1OTQiIGlkPSJwYXRoNzMiIGlua3NjYXBlOmNvbm5lY3Rvci1jdXJ2YXR1cmU9IjAiLz4mI3hhOyAgICA8cGF0aCBzdHlsZT0iZmlsbDpub25lO3N0cm9rZTojMDAwMDAwO3N0cm9rZS13aWR0aDowLjU5Nzk5OTk5O3N0cm9rZS1saW5lY2FwOmJ1dHQ7c3Ryb2tlLWxpbmVqb2luOm1pdGVyO3N0cm9rZS1taXRlcmxpbWl0OjQ7c3Ryb2tlLW9wYWNpdHk6MSIgZD0iTSAwLjAwMTQ5Mzc1LC0yLjVlLTUgQyAxLjgyMTgwNiwxOS4zMTI0NzUgMTIuNTYzOTk0LDMxLjg4NjY5NCAxMi41NjM5OTQsMzEuODg2Njk0IiB0cmFuc2Zvcm09Im1hdHJpeCgxLDAsMCwtMSw3Mi42MTk2LDY3LjI2NTYpIiBpZD0icGF0aDc1IiBpbmtzY2FwZTpjb25uZWN0b3ItY3VydmF0dXJlPSIwIi8+JiN4YTsgICAgPHBhdGggc3R5bGU9ImZpbGw6bm9uZTtzdHJva2U6IzAwMDAwMDtzdHJva2Utd2lkdGg6MC41OTc5OTk5OTtzdHJva2UtbGluZWNhcDpidXR0O3N0cm9rZS1saW5lam9pbjptaXRlcjtzdHJva2UtbWl0ZXJsaW1pdDo0O3N0cm9rZS1vcGFjaXR5OjEiIGQ9Ik0gLTAuMDAxMDA2MjUsOS42ODc1ZS00IEMgMi45MzI1ODcsNDcuMjkzOTM3IC0xNS4wNzEzMTksNTEuNDE4OTM3IC0xNS4wNzEzMTksNTEuNDE4OTM3IiB0cmFuc2Zvcm09Im1hdHJpeCgxLDAsMCwtMSw3MS45OTcxLDY3LjAyMDUpIiBpZD0icGF0aDc3IiBpbmtzY2FwZTpjb25uZWN0b3ItY3VydmF0dXJlPSIwIi8+JiN4YTsgICAgPGcgc3R5bGU9ImZpbGw6IzAwODUwMDtmaWxsLW9wYWNpdHk6MSIgaWQ9Imc4MyI+JiN4YTsgICAgICA8dXNlIHhsaW5rOmhyZWY9IiNnbHlwaDAtMSIgeD0iMTIzLjIwMTIiIHk9Ijg1LjAwMzg5OSIgaWQ9InVzZTc5IiB3aWR0aD0iMTAwJSIgaGVpZ2h0PSIxMDAlIi8+JiN4YTsgICAgICA8dXNlIHhsaW5rOmhyZWY9IiNnbHlwaDAtMiIgeD0iMTQ2LjgzMTU0IiB5PSI4NS4wMDM4OTkiIGlkPSJ1c2U4MSIgd2lkdGg9IjEwMCUiIGhlaWdodD0iMTAwJSIvPiYjeGE7ICAgIDwvZz4mI3hhOyAgICA8ZyBzdHlsZT0iZmlsbDojMDA4NTAwO2ZpbGwtb3BhY2l0eToxIiBpZD0iZzk1Ij4mI3hhOyAgICAgIDx1c2UgeGxpbms6aHJlZj0iI2dseXBoMS0xIiB4PSIxNTYuNDgiIHk9Ijg1LjAwMzg5OSIgaWQ9InVzZTg1IiB3aWR0aD0iMTAwJSIgaGVpZ2h0PSIxMDAlIi8+JiN4YTsgICAgICA8dXNlIHhsaW5rOmhyZWY9IiNnbHlwaDEtMiIgeD0iMTkwLjE0MjgyIiB5PSI4NS4wMDM4OTkiIGlkPSJ1c2U4NyIgd2lkdGg9IjEwMCUiIGhlaWdodD0iMTAwJSIvPiYjeGE7ICAgICAgPHVzZSB4bGluazpocmVmPSIjZ2x5cGgxLTMiIHg9IjIxNi42NDMzNiIgeT0iODUuMDAzODk5IiBpZD0idXNlODkiIHdpZHRoPSIxMDAlIiBoZWlnaHQ9IjEwMCUiLz4mI3hhOyAgICAgIDx1c2UgeGxpbms6aHJlZj0iI2dseXBoMS00IiB4PSIyNTIuOTkyMDUiIHk9Ijg1LjAwMzg5OSIgaWQ9InVzZTkxIiB3aWR0aD0iMTAwJSIgaGVpZ2h0PSIxMDAlIi8+JiN4YTsgICAgICA8dXNlIHhsaW5rOmhyZWY9IiNnbHlwaDEtNSIgeD0iMjc4LjE0OTYzIiB5PSI4NS4wMDM4OTkiIGlkPSJ1c2U5MyIgd2lkdGg9IjEwMCUiIGhlaWdodD0iMTAwJSIvPiYjeGE7ICAgIDwvZz4mI3hhOyAgICA8ZyBzdHlsZT0iZmlsbDojMDA4NTAwO2ZpbGwtb3BhY2l0eToxIiBpZD0iZzEwMyI+JiN4YTsgICAgICA8dXNlIHhsaW5rOmhyZWY9IiNnbHlwaDAtMyIgeD0iMzExLjg2NjIxIiB5PSI4NS4wMDM4OTkiIGlkPSJ1c2U5NyIgd2lkdGg9IjEwMCUiIGhlaWdodD0iMTAwJSIvPiYjeGE7ICAgICAgPHVzZSB4bGluazpocmVmPSIjZ2x5cGgwLTQiIHg9IjMyOS4wOTQyNCIgeT0iODUuMDAzODk5IiBpZD0idXNlOTkiIHdpZHRoPSIxMDAlIiBoZWlnaHQ9IjEwMCUiLz4mI3hhOyAgICAgIDx1c2UgeGxpbms6aHJlZj0iI2dseXBoMC00IiB4PSIzNDUuNDQ5MjIiIHk9Ijg1LjAwMzg5OSIgaWQ9InVzZTEwMSIgd2lkdGg9IjEwMCUiIGhlaWdodD0iMTAwJSIvPiYjeGE7ICAgIDwvZz4mI3hhOyAgICA8ZyBzdHlsZT0iZmlsbDojNTE2YmZkO2ZpbGwtb3BhY2l0eToxIiBpZD0iZzEyMyI+JiN4YTsgICAgICA8dXNlIHhsaW5rOmhyZWY9IiNnbHlwaDItMSIgeD0iMTc0LjA4NjkiIHk9IjMxLjAwMjAwMSIgaWQ9InVzZTEwNSIgd2lkdGg9IjEwMCUiIGhlaWdodD0iMTAwJSIvPiYjeGE7ICAgICAgPHVzZSB4bGluazpocmVmPSIjZ2x5cGgyLTIiIHg9IjE5MS43NTY1NiIgeT0iMzEuMDAyMDAxIiBpZD0idXNlMTA3IiB3aWR0aD0iMTAwJSIgaGVpZ2h0PSIxMDAlIi8+JiN4YTsgICAgICA8dXNlIHhsaW5rOmhyZWY9IiNnbHlwaDItMyIgeD0iMjEwLjA1MzAyIiB5PSIzMS4wMDIwMDEiIGlkPSJ1c2UxMDkiIHdpZHRoPSIxMDAlIiBoZWlnaHQ9IjEwMCUiLz4mI3hhOyAgICAgIDx1c2UgeGxpbms6aHJlZj0iI2dseXBoMi00IiB4PSIyMjcuOTAxNzYiIHk9IjMxLjAwMjAwMSIgaWQ9InVzZTExMSIgd2lkdGg9IjEwMCUiIGhlaWdodD0iMTAwJSIvPiYjeGE7ICAgICAgPHVzZSB4bGluazpocmVmPSIjZ2x5cGgyLTUiIHg9IjI1MC4zNzY4NiIgeT0iMzEuMDAyMDAxIiBpZD0idXNlMTEzIiB3aWR0aD0iMTAwJSIgaGVpZ2h0PSIxMDAlIi8+JiN4YTsgICAgICA8dXNlIHhsaW5rOmhyZWY9IiNnbHlwaDItMSIgeD0iMjc0LjYxMjk1IiB5PSIzMS4wMDIwMDEiIGlkPSJ1c2UxMTUiIHdpZHRoPSIxMDAlIiBoZWlnaHQ9IjEwMCUiLz4mI3hhOyAgICAgIDx1c2UgeGxpbms6aHJlZj0iI2dseXBoMi02IiB4PSIyOTIuMjgyNTkiIHk9IjMxLjAwMjAwMSIgaWQ9InVzZTExNyIgd2lkdGg9IjEwMCUiIGhlaWdodD0iMTAwJSIvPiYjeGE7ICAgICAgPHVzZSB4bGluazpocmVmPSIjZ2x5cGgyLTciIHg9IjMxMS41MzQxOCIgeT0iMzEuMDAyMDAxIiBpZD0idXNlMTE5IiB3aWR0aD0iMTAwJSIgaGVpZ2h0PSIxMDAlIi8+JiN4YTsgICAgICA8dXNlIHhsaW5rOmhyZWY9IiNnbHlwaDItMyIgeD0iMzI1LjkyMDYyIiB5PSIzMS4wMDIwMDEiIGlkPSJ1c2UxMjEiIHdpZHRoPSIxMDAlIiBoZWlnaHQ9IjEwMCUiLz4mI3hhOyAgICA8L2c+JiN4YTsgICAgPHBhdGggc3R5bGU9ImZpbGw6IzAwODUwMDtmaWxsLW9wYWNpdHk6MTtmaWxsLXJ1bGU6bm9uemVybztzdHJva2U6bm9uZSIgZD0ibSAzNjIuMDg5ODQsMjYuODAwNzgxIGMgNy44NDc2NiwtMTMuNTg5ODQzIC05LjY4MzU5LC0xNi45NzI2NTYgLTEwLjA3MDMxLC0xNyAtMC4zODY3MiwtMC4wMzEyNSAtNS41NzAzMSwxOS4zMDQ2ODggMTAuMDcwMzEsMTciIGlkPSJwYXRoMTI1IiBpbmtzY2FwZTpjb25uZWN0b3ItY3VydmF0dXJlPSIwIi8+JiN4YTsgICAgPHBhdGggc3R5bGU9ImZpbGw6IzAwODUwMDtmaWxsLW9wYWNpdHk6MTtmaWxsLXJ1bGU6bm9uemVybztzdHJva2U6bm9uZSIgZD0ibSAzODIuMDE5NTMsMTcuMzc4OTA2IGMgLTAuMzM1OTQsLTAuMTY0MDYyIC0xNi45NDUzMSwtNi4wMDc4MTIgLTE5Ljc5Njg3LDguOTMzNTk0IDExLjE5MTQsOS41NTQ2ODggMjAuMTMyODEsLTguNzY1NjI1IDE5Ljc5Njg3LC04LjkzMzU5NCIgaWQ9InBhdGgxMjciIGlua3NjYXBlOmNvbm5lY3Rvci1jdXJ2YXR1cmU9IjAiLz4mI3hhOyAgICA8cGF0aCBzdHlsZT0iZmlsbDojMDA4NTAwO2ZpbGwtb3BhY2l0eToxO2ZpbGwtcnVsZTpub256ZXJvO3N0cm9rZTpub25lIiBkPSJtIDM0My45MDIzNCwzNy4zMDg1OTQgYyAwLjM1NTQ3LDAuMTI1IDE3Ljc1MzkxLDMuOTQ5MjE4IDE4LjY3MTg4LC0xMS4wNzAzMTMgLTEyLjQ0OTIyLC04LjEwMTU2MiAtMTkuMDI3MzUsMTAuOTQ1MzEzIC0xOC42NzE4OCwxMS4wNzAzMTMiIGlkPSJwYXRoMTI5IiBpbmtzY2FwZTpjb25uZWN0b3ItY3VydmF0dXJlPSIwIi8+JiN4YTsgICAgPHBhdGggc3R5bGU9ImZpbGw6IzAwODUwMDtmaWxsLW9wYWNpdHk6MTtmaWxsLXJ1bGU6bm9uemVybztzdHJva2U6bm9uZSIgZD0ibSAzNjIuNDEwMTYsMjYuNzE4NzUgYyAtNi4wOTc2NiwxNC4yNzM0MzggMTEuOTAyMzQsMTUuNTc0MjE5IDEyLjI5Mjk2LDE1LjU1ODU5NCAwLjM5MDYzLC0wLjAxNTYzIDMuMDc0MjIsLTE5LjYyODkwNiAtMTIuMjkyOTYsLTE1LjU1ODU5NCIgaWQ9InBhdGgxMzEiIGlua3NjYXBlOmNvbm5lY3Rvci1jdXJ2YXR1cmU9IjAiLz4mI3hhOyAgPC9nPiYjeGE7PC9zdmc+;" vertex="1" parent="DQC1ERT1BnNI4L5fX5Ei-143">
          <mxGeometry x="33" y="29" width="222" height="60" as="geometry" />
        </mxCell>
        <mxCell id="DQC1ERT1BnNI4L5fX5Ei-75" value="Variables" style="shape=process;whiteSpace=wrap;html=1;backgroundOutline=1;fontSize=17;" vertex="1" parent="DQC1ERT1BnNI4L5fX5Ei-143">
          <mxGeometry x="656.4999999999999" y="540" width="120" height="60" as="geometry" />
        </mxCell>
        <mxCell id="n5HtSUz3Oa1L7r2nbjOb-10" style="edgeStyle=orthogonalEdgeStyle;rounded=0;orthogonalLoop=1;jettySize=auto;html=1;entryX=0.5;entryY=0;entryDx=0;entryDy=0;fontSize=17;exitX=0.5;exitY=1;exitDx=0;exitDy=0;" edge="1" parent="DQC1ERT1BnNI4L5fX5Ei-143" source="n5HtSUz3Oa1L7r2nbjOb-11" target="DQC1ERT1BnNI4L5fX5Ei-75">
          <mxGeometry relative="1" as="geometry">
            <mxPoint x="716.25" y="566.5" as="targetPoint" />
            <mxPoint x="716" y="549" as="sourcePoint" />
          </mxGeometry>
        </mxCell>
        <mxCell id="DQC1ERT1BnNI4L5fX5Ei-78" value="Define" style="text;html=1;align=center;verticalAlign=middle;resizable=0;points=[];autosize=1;fontSize=17;" vertex="1" parent="DQC1ERT1BnNI4L5fX5Ei-143">
          <mxGeometry x="150" y="415.5" width="60" height="30" as="geometry" />
        </mxCell>
        <mxCell id="DQC1ERT1BnNI4L5fX5Ei-81" value="&lt;div&gt;Modelo de producción con categorias, y variables para registrar, y criterios para evaluar huella&lt;br&gt;&lt;/div&gt;" style="rounded=1;whiteSpace=wrap;html=1;fontSize=17;" vertex="1" parent="DQC1ERT1BnNI4L5fX5Ei-143">
          <mxGeometry x="33" y="460" width="215" height="120" as="geometry" />
        </mxCell>
        <mxCell id="DQC1ERT1BnNI4L5fX5Ei-100" style="edgeStyle=orthogonalEdgeStyle;rounded=0;orthogonalLoop=1;jettySize=auto;html=1;entryX=0;entryY=0.5;entryDx=0;entryDy=0;fontSize=27;fontColor=#FFFFFF;" edge="1" parent="DQC1ERT1BnNI4L5fX5Ei-143" source="DQC1ERT1BnNI4L5fX5Ei-96" target="n5HtSUz3Oa1L7r2nbjOb-11">
          <mxGeometry relative="1" as="geometry">
            <Array as="points">
              <mxPoint x="630" y="520" />
              <mxPoint x="630" y="455" />
            </Array>
          </mxGeometry>
        </mxCell>
        <mxCell id="DQC1ERT1BnNI4L5fX5Ei-96" value="&lt;div&gt;administrador&lt;/div&gt;" style="rounded=1;whiteSpace=wrap;html=1;fillColor=#f8cecc;strokeColor=#b85450;fontSize=17;verticalAlign=top;" vertex="1" parent="DQC1ERT1BnNI4L5fX5Ei-143">
          <mxGeometry x="310" y="497" width="138" height="46" as="geometry" />
        </mxCell>
        <mxCell id="DQC1ERT1BnNI4L5fX5Ei-84" style="edgeStyle=orthogonalEdgeStyle;rounded=0;orthogonalLoop=1;jettySize=auto;html=1;fontSize=27;fontColor=#FFFFFF;exitX=1;exitY=0.5;exitDx=0;exitDy=0;entryX=0;entryY=0.5;entryDx=0;entryDy=0;" edge="1" parent="DQC1ERT1BnNI4L5fX5Ei-143" source="DQC1ERT1BnNI4L5fX5Ei-81" target="DQC1ERT1BnNI4L5fX5Ei-96">
          <mxGeometry relative="1" as="geometry">
            <mxPoint x="616.5" y="528.5" as="sourcePoint" />
            <mxPoint x="666.5" y="528.5" as="targetPoint" />
          </mxGeometry>
        </mxCell>
        <mxCell id="DQC1ERT1BnNI4L5fX5Ei-99" style="edgeStyle=orthogonalEdgeStyle;rounded=0;orthogonalLoop=1;jettySize=auto;html=1;exitX=0.5;exitY=1;exitDx=0;exitDy=0;fontSize=27;fontColor=#FFFFFF;" edge="1" parent="DQC1ERT1BnNI4L5fX5Ei-143" source="DQC1ERT1BnNI4L5fX5Ei-96" target="DQC1ERT1BnNI4L5fX5Ei-96">
          <mxGeometry relative="1" as="geometry" />
        </mxCell>
        <mxCell id="DQC1ERT1BnNI4L5fX5Ei-101" style="edgeStyle=orthogonalEdgeStyle;rounded=0;orthogonalLoop=1;jettySize=auto;html=1;entryX=0;entryY=0.5;entryDx=0;entryDy=0;fontSize=27;fontColor=#FFFFFF;exitX=1;exitY=0.5;exitDx=0;exitDy=0;" edge="1" parent="DQC1ERT1BnNI4L5fX5Ei-143" source="DQC1ERT1BnNI4L5fX5Ei-96" target="DQC1ERT1BnNI4L5fX5Ei-75">
          <mxGeometry relative="1" as="geometry">
            <mxPoint x="482" y="550" as="sourcePoint" />
            <mxPoint x="666.5" y="465" as="targetPoint" />
            <Array as="points">
              <mxPoint x="630" y="520" />
              <mxPoint x="630" y="570" />
            </Array>
          </mxGeometry>
        </mxCell>
        <mxCell id="DQC1ERT1BnNI4L5fX5Ei-102" value="Crea" style="text;html=1;align=center;verticalAlign=middle;resizable=0;points=[];autosize=1;fontSize=17;" vertex="1" parent="DQC1ERT1BnNI4L5fX5Ei-143">
          <mxGeometry x="481.8" y="490" width="50" height="30" as="geometry" />
        </mxCell>
        <mxCell id="DQC1ERT1BnNI4L5fX5Ei-90" value="" style="group" vertex="1" connectable="0" parent="DQC1ERT1BnNI4L5fX5Ei-143">
          <mxGeometry x="40" y="215.5" width="200" height="200" as="geometry" />
        </mxCell>
        <mxCell id="DQC1ERT1BnNI4L5fX5Ei-72" value="" style="group" vertex="1" connectable="0" parent="DQC1ERT1BnNI4L5fX5Ei-90">
          <mxGeometry width="200" height="200" as="geometry" />
        </mxCell>
        <mxCell id="DQC1ERT1BnNI4L5fX5Ei-68" value="" style="shape=image;verticalLabelPosition=bottom;labelBackgroundColor=#ffffff;verticalAlign=top;aspect=fixed;imageAspect=0;image=data:image/svg+xml,PHN2ZyB4bWxuczpkYz0iaHR0cDovL3B1cmwub3JnL2RjL2VsZW1lbnRzLzEuMS8iIHhtbG5zOmNjPSJodHRwOi8vY3JlYXRpdmVjb21tb25zLm9yZy9ucyMiIHhtbG5zOnJkZj0iaHR0cDovL3d3dy53My5vcmcvMTk5OS8wMi8yMi1yZGYtc3ludGF4LW5zIyIgeG1sbnM6c3ZnPSJodHRwOi8vd3d3LnczLm9yZy8yMDAwL3N2ZyIgeG1sbnM9Imh0dHA6Ly93d3cudzMub3JnLzIwMDAvc3ZnIiB4bWxuczp4bGluaz0iaHR0cDovL3d3dy53My5vcmcvMTk5OS94bGluayIgeG1sbnM6c29kaXBvZGk9Imh0dHA6Ly9zb2RpcG9kaS5zb3VyY2Vmb3JnZS5uZXQvRFREL3NvZGlwb2RpLTAuZHRkIiB4bWxuczppbmtzY2FwZT0iaHR0cDovL3d3dy5pbmtzY2FwZS5vcmcvbmFtZXNwYWNlcy9pbmtzY2FwZSIgd2lkdGg9IjIxbW0iIGhlaWdodD0iMjFtbSIgdmlld0JveD0iMCAwIDIxIDIxIiB2ZXJzaW9uPSIxLjEiIGlkPSJzdmcxMjk2IiBpbmtzY2FwZTp2ZXJzaW9uPSIwLjkyLjMgKDI0MDU1NDYsIDIwMTgtMDMtMTEpIiBzb2RpcG9kaTpkb2NuYW1lPSJBc3NlbWJseS5zdmciPiYjeGE7ICA8ZGVmcyBpZD0iZGVmczEyOTAiPiYjeGE7ICAgIDxjbGlwUGF0aCBjbGlwUGF0aFVuaXRzPSJ1c2VyU3BhY2VPblVzZSIgaWQ9ImNsaXBQYXRoMTA0MCI+JiN4YTsgICAgICA8Y2lyY2xlIHN0eWxlPSJvcGFjaXR5OjAuOTMwMDAwMzQ7dmVjdG9yLWVmZmVjdDpub25lO2ZpbGw6IzE0N2Q5MjtmaWxsLW9wYWNpdHk6MTtmaWxsLXJ1bGU6ZXZlbm9kZDtzdHJva2U6bm9uZTtzdHJva2Utd2lkdGg6Mi40Njg1OTk4O3N0cm9rZS1saW5lY2FwOmJ1dHQ7c3Ryb2tlLWxpbmVqb2luOm1pdGVyO3N0cm9rZS1taXRlcmxpbWl0OjQ7c3Ryb2tlLWRhc2hhcnJheTpub25lO3N0cm9rZS1kYXNob2Zmc2V0OjA7c3Ryb2tlLW9wYWNpdHk6MTtwYWludC1vcmRlcjptYXJrZXJzIHN0cm9rZSBmaWxsIiBpZD0iY2lyY2xlMTA0MiIgY3g9Ii0xMTQuOTA0NzgiIGN5PSIyOTAuMTk2NDQiIHI9IjEwLjU4MzMzMyIvPiYjeGE7ICAgIDwvY2xpcFBhdGg+JiN4YTsgICAgPGNsaXBQYXRoIGNsaXBQYXRoVW5pdHM9InVzZXJTcGFjZU9uVXNlIiBpZD0iY2xpcFBhdGg2NTQ3Ij4mI3hhOyAgICAgIDxwYXRoIHN0eWxlPSJmaWxsOm5vbmU7ZmlsbC1vcGFjaXR5OjE7c3Ryb2tlOiMwMDAwMDA7c3Ryb2tlLXdpZHRoOjEuMTAwMDAwMDI7c3Ryb2tlLWxpbmVjYXA6cm91bmQ7c3Ryb2tlLWxpbmVqb2luOm1pdGVyO3N0cm9rZS1taXRlcmxpbWl0OjQ7c3Ryb2tlLWRhc2hhcnJheTpub25lO3N0cm9rZS1vcGFjaXR5OjEiIGQ9Im0gNTIuMzY4OSwxNzEuODgwMTcgNS4xMTcyNjEsLTguMTUxNzIgOS40MjEyNTIsMC4wNjY4IDQuODc3NjcsOC4wODQ5IC01LjAxMTMwMyw4LjE1MTcyIEggNTcuNDE5MzQzIEwgNTIuMzY4OSwxNzEuODgwMTUiIGlkPSJwYXRoNjU0OSIgaW5rc2NhcGU6Y29ubmVjdG9yLWN1cnZhdHVyZT0iMCIgc29kaXBvZGk6bm9kZXR5cGVzPSJjY2NjY2NjIi8+JiN4YTsgICAgPC9jbGlwUGF0aD4mI3hhOyAgPC9kZWZzPiYjeGE7ICA8c29kaXBvZGk6bmFtZWR2aWV3IGlkPSJiYXNlIiBwYWdlY29sb3I9IiNmZmZmZmYiIGJvcmRlcmNvbG9yPSIjNjY2NjY2IiBib3JkZXJvcGFjaXR5PSIxLjAiIGlua3NjYXBlOnBhZ2VvcGFjaXR5PSIwLjAiIGlua3NjYXBlOnBhZ2VzaGFkb3c9IjIiIGlua3NjYXBlOnpvb209IjguNTM2NzY4OCIgaW5rc2NhcGU6Y3g9IjQ0Ljk3MDYxMyIgaW5rc2NhcGU6Y3k9IjQxLjk0MDQyMyIgaW5rc2NhcGU6ZG9jdW1lbnQtdW5pdHM9Im1tIiBpbmtzY2FwZTpjdXJyZW50LWxheWVyPSJsYXllcjEiIHNob3dncmlkPSJmYWxzZSIgaW5rc2NhcGU6d2luZG93LXdpZHRoPSIxNjEzIiBpbmtzY2FwZTp3aW5kb3ctaGVpZ2h0PSIxMDIyIiBpbmtzY2FwZTp3aW5kb3cteD0iNjciIGlua3NjYXBlOndpbmRvdy15PSIwIiBpbmtzY2FwZTp3aW5kb3ctbWF4aW1pemVkPSIxIiBzaG93Z3VpZGVzPSJ0cnVlIiBpbmtzY2FwZTpndWlkZS1iYm94PSJ0cnVlIj4mI3hhOyAgICA8c29kaXBvZGk6Z3VpZGUgcG9zaXRpb249IjE4LjcyMTk0MSwyOC4xNTY2MiIgb3JpZW50YXRpb249IjAsMSIgaWQ9Imd1aWRlMjQ5MyIgaW5rc2NhcGU6bG9ja2VkPSJmYWxzZSIvPiYjeGE7ICA8L3NvZGlwb2RpOm5hbWVkdmlldz4mI3hhOyAgPG1ldGFkYXRhIGlkPSJtZXRhZGF0YTEyOTMiPiYjeGE7ICAgIDxyZGY6UkRGPiYjeGE7ICAgICAgPGNjOldvcmsgcmRmOmFib3V0PSIiPiYjeGE7ICAgICAgICA8ZGM6Zm9ybWF0PmltYWdlL3N2Zyt4bWw8L2RjOmZvcm1hdD4mI3hhOyAgICAgICAgPGRjOnR5cGUgcmRmOnJlc291cmNlPSJodHRwOi8vcHVybC5vcmcvZGMvZGNtaXR5cGUvU3RpbGxJbWFnZSIvPiYjeGE7ICAgICAgICA8ZGM6dGl0bGUvPiYjeGE7ICAgICAgPC9jYzpXb3JrPiYjeGE7ICAgIDwvcmRmOlJERj4mI3hhOyAgPC9tZXRhZGF0YT4mI3hhOyAgPGcgaW5rc2NhcGU6bGFiZWw9IkNhbHF1ZSAxIiBpbmtzY2FwZTpncm91cG1vZGU9ImxheWVyIiBpZD0ibGF5ZXIxIiB0cmFuc2Zvcm09InRyYW5zbGF0ZSgwLC0yNzYpIj4mI3hhOyAgICA8ZyBpZD0iZzEwNjEiIHRyYW5zZm9ybT0ibWF0cml4KDAsLTAuMDg1MTM3MzUsMC4wODUxMzczNCwwLC0xMDQuNTEyMDQsMjExLjczOTI3KSI+JiN4YTsgICAgICA8Y2lyY2xlIHI9IjEwLjU4MzMzMyIgY3k9IjM0Ny43OTk5NiIgY3g9Ii03Mi43MjI2MTgiIGlkPSJwYXRoOTEzLTYiIHN0eWxlPSJvcGFjaXR5OjAuOTMwMDAwMzQ7dmVjdG9yLWVmZmVjdDpub25lO2ZpbGw6I2ZmZmZmZjtmaWxsLW9wYWNpdHk6MTtmaWxsLXJ1bGU6ZXZlbm9kZDtzdHJva2U6bm9uZTtzdHJva2Utd2lkdGg6Mi40Njg1OTk4O3N0cm9rZS1saW5lY2FwOmJ1dHQ7c3Ryb2tlLWxpbmVqb2luOm1pdGVyO3N0cm9rZS1taXRlcmxpbWl0OjQ7c3Ryb2tlLWRhc2hhcnJheTpub25lO3N0cm9rZS1kYXNob2Zmc2V0OjA7c3Ryb2tlLW9wYWNpdHk6MTtwYWludC1vcmRlcjptYXJrZXJzIHN0cm9rZSBmaWxsIi8+JiN4YTsgICAgICA8aW1hZ2UgdHJhbnNmb3JtPSJ0cmFuc2xhdGUoNDMuODQ1MjM4LDU3LjQ1MjM4MSkiIGNsaXAtcGF0aD0idXJsKCNjbGlwUGF0aDEwNDApIiB3aWR0aD0iMTYuOTMzMzMyIiBoZWlnaHQ9IjE2LjkzMzMzMiIgcHJlc2VydmVBc3BlY3RSYXRpbz0ibm9uZSIgeGxpbms6aHJlZj0iZGF0YTppbWFnZS9wbmc7YmFzZTY0LGlWQk9SdzBLR2dvQUFBQU5TVWhFVWdBQUFnQUFBQUhlQ0FZQUFBRHRwTE00QUFBQUJITkNTVlFJQ0FnSWZBaGtpQUFBSUFCSlJFRlUgZUp6c3ZXbTI2a3lTcm1uZXFBRjJjL29CWkEwaGFpcVJVNGs3aEZ0RGlKeENEU0Z5S2w4T0lOYk5yRGpmT2JzQkpIbjlBUE50Y2dRSSBjTlMrejFxK05yQ0ZjRW5lbUp0YlF3UUFBQUFNbEs5ZnYvN3QrZm5aclZZclo2MTFSSFN5YUsxZGxtVnV0VnE1TDErKy9MMi9tZ01BIEFBQXo1K25weVNtbGFwTTBpVWxiS1ZYN3pGcnJqREZPS2VVTEJSTTlmOGNZNDQ4Tmp3bVB0OWE2UE05OUhlUjMrWHdzWkt4V0s5ZnQgWGVvZTFYY0ZBQUFBakorSGh3ZjMrL2Z2eHY4cHBVaHJUVVJFemptcXF1cmcvMG9wLzMvbm11ZGVQaTc4Zm9neGhwUlMvcmZDODhuZiBhenFYMXRvZlU1Wmw3ZnZXV2xKSzBYYTd4ZndKQUFCZ1BrZzF2TmJhRjdraUQxZjRZZUZqanEzYXJiWE9XdXVTSkhIV1duOXNxQ2tJIHk3WC9sM1Z2czgxQVJDNU5VNWRsV2UwYTBqUjEzNzU5Kyt2ZGJuNWtJTUVBQUFCb3hGcnJpcUlnYXkwNTU2Z3NTeUxhcmJENU5SSFYgVnUveU0xNUo4LythVnVQeSs4d3hEVUI0dlB5ZTFCd1lZMnJuNE5mOE4veGV3M1hYVnY3eU9vNXBGUGhjNGIzSnNvelc2elhtV2dBQSBBTVBreTVjdmYrZVZ0bHdGaHl2aXhXTFJ1SXJtL2ZSVEszdHEyUDhQQy8rK1BKL1VBSVRISHJNUmFEcXYxQ0xJOTVlY2g2ODFTUkwvIG5UUk5uVEhtNkRWcXJWMlNKQzVOVTVlbXFWc3VsNE93TDRCVUFnQUFNK1hwNmNuOStlZWYvajN2bS9Ocm9vOFZjcElrVkZWVmJYWEwgSzIyNWo4N25PTGZ2ZndtOEh5L3JGdG9LU0kwRDF6RTgvdHh2aE4vaCtqZXQrclhXamZZSzFsb3FpcUwyZlhuUGlIYjNqYys1UDc2WCB1UmdDQUFBQXpJamxjdWxlWDEvN3JzYXNrZHNFU1pMUWRyc2xJcUxIeDBmNjlldFhaL015QkFBQUFKZytqdWh3N3g3MGk5YWF0TlpVIEZJWC9iTGxjMHV2cksyc3Q3anBINjN1ZUhBQUFRSy93dmowUjdWVFJqNCtQL2RZSUVCSFYzQXpsZHNIcjY2dmZYbEJLc1czQlhZQUEgQUFBQUUrTDc5KzkvRWNadTNxTGRXa3RFUkw5Ky9lcTVob0JoVHdPMkJVaVNoSWgyTmdkNW5udlBpeVJKSEJGRmoyeUlMUUFBV3BKbCBtVnV2MTBSRTNpMks2TVA5Nkp5UjBUSHlQS2YzOTNmMFJYQVRTWkk0M2tzK3BlcG5JelhRSDlaYXFxcnFwR0drTkZ6a3dFYkJjN3Q1IHpJQUdBQUJCVXhBUWRrTmlmMmdlUU11eXBMSXN6MFlhYXlKSkVqTEdFQkhSKy9zN2hiL0pibEJwbXJydjM3Ly81UjdYQ3FZQnU1K3ggS2puUGM1S3ZreVR4N1ZGckRSdUFBU0FuZnhsamdJajh1TUJiQW53OFB6ZHJMZVY1VHZReFhnQUFMbUd4V0J6NENKOTZINVl3QXRxcCBZL2w4N0gvY0ZBYzlqR2N1ZllxSnlDVko0cklzcTBVYzYrSStnZUh5K2ZQbmZ4RDVtUFV1eXpMZnR0cEdzMFBwdDhpWUJ6eEdjT1JEIDJvOEQrNWdCL2huVGZqemd2Mkw4QVFBMHNWZ3NEaWJYTU96bnVUQ2h4d0tZWEJOTXBNMXhISm8wUEs2cExuTklYQUpxdU1mSFIvLzggZVVJZ0lwL3NodWl3RGJjTmRJTnkvM0p1REhoNGVQQ3ZaYUFoL281OHp2c0Z3Y1ZqQVBZZHdTVEpzc3l4MnV5V0FDUmo1ZXZYci8vciB2Ly83di8rZnZ1c0I0cEttcWR0c05uMVg0eXhhNjFxL2t3RjFpTm9GNW1sejNMbVF2bTFvU2d4MGF2dnUydC9wbUZaek93UUFNQmtXIGk0VjdlM3VqUE0rcEtJcVRtY0JHMG9sdmdtMFYwalNseldhRHZqNXl0Tlp1dVZ6U3NZeDdZNFZ0RTJRR1BqYTJEV1ArOC8rUEdURTIgMmQ0MDVRU1l5Umh3dHMvYkxtb0J3TDNJODl5OXY3OVRsbVcrOCsrTjZobzVKZGxQQ1E0dW9yV21wNmVuZi8vNTh5ZGJpTS9qQmt3UCBWMVhWYUNiL2MrbDlaUWhoZG5VTGt3dko3NTFMRDB6MEVhNzMzTEdjVHZoWUFpUCtmOU52OE4raEcxTHU3NStqTS8wZGd3RVlKVHp4IEUrMnliVzAybTFybXJqbXEvU1c4cWpxakFVSC9Id2VPYU5ldTB6UTlLZUFPa1hCVjNoVERQeXpzenNpRWx2THM1WERzdkJ6emdEODcgTmg3SVhBVmhuZmp6TWJMUFFNaHZqL1p6REFCZ05MQ0tQMmpjSG1NTUdXTm9ESHVrWGNMM3hUbm50MFprL0hIQ09EQllsc3VsMjJ3MiBWQlNGRHhFYlBMdEJFcWJUUGNheGlaYmI2N0VWL1RFVnZqR0dyTFdONDhNNXBBQVNydkJETGNEUU5RRE1hcldpeldaRDIrMjJzWStqIDQ0TXg0RmRBMWxyYWJEYTFRQ2ROV2NMQUx0WUFUL3BOUEQ0KzBzdkxDMVZWSmU4bnhvU0JzRnd1M2R2YjJ5ZzFXekxiSGFPMTlnRnQgV0VnUGpRT0pUdmRoMW13ZHl6Ykk1K0dJZW5LYlFaNXp1VnhTVVJTMDNXNHZHaS9Hb2hsSWtzUWJRSFBzRWdRYkE2T0MzVnlzdFM3TCBNdS8rRXJycndiWHBmSkc1MVkweE5SZWlKRWxxdnNiNyt3bDZSTHF0RXBINzlPblRIL3hhdUh3TnZsaHJqOFVrR0NSanVyZW5DcmNkIEhpZVB1UWxDSWdCRHhCMWI0WWVFK2NqUHJaTEdJc0hINEZTdWRxS2RtbFpyWGRzeTRaVmJtcWFzUnNVWTBRK08yeW8vaXpEWC9jQ1ogWkx0WnJWYnU1ZVdsNzJxMGhqMkJoRVpta3M4RlRJTmFRQk9VL2xjUlF0TUNPaUxtS2xRR20ySHRUOU14Y3BVZUJweVJ4OG5BVkloRyArUUZIWlNRNkROVEZtamNLN2k4RmZVeGsvdk5CbThKQVlPRzVUaFY1TGg1WDk1bytBQVpGVFNYZEZNa01wZHZDNFVtSmR1RkhyNDAwIEJxN2k1dWNudzBiTDBMTGhNWEp5V1N3V2ZxS1FVVE9YeTZXejFpTGE1QVY4K3ZUcGoxQ1FrL2RhL3E4cElxQjhueVNKV3l3V2pjTGIgcVNJWFUvTDc4amxDSFFENnhCRVJQVHc4ME8vZnZ5bkxNbkxPd1lwL0lJVGJCWUY3RnNhTyt4QnRrbDB1bC9UKy91Nk5QRG1Bemo0dyBsRDh1OUgwWFhqWjR4aEV4eHJodyt5WjBZVTdUMUh0UFpGbEcyKzNXRy9GeUJ0SW0xOTRtd3VjY1pJakVzd1g5RUs0eVpKeHIrcEJRIFVYb3NuQ3dwVGROYVRQTGcyWUNJWkZsV004YThwVWdOZ05hNjlwNklHbFgraEdmYUdYSjEzbGFsYjYxdG5XdEVuanMwbUJZYVZnQzYgaFFjNHJiVnJ5c2lITEdiREtYTFBtRDB4WkpZeWNTeUlROU85dmFrOFBqNjZyMSsvL28zZlMyRk8vQmJvRVI3enJMWHU0ZUhCN1VNKyAxMnczTHJXTmtwTitsbVhIMmhRQTNSQWFJQVdHUkk3b1k5VUpROEQraXpHbTloemtjNUlwU0pmTEpld0RJaEZyOVUvNy9oWDJJMzVtIFNaSndKa0V3SUg3OCtQR1pxSzZkQ2UwM3Jsa2dTWTBCRERoQjUwai9mYUlQTlRJUFVOTDRDSlAvY0FxckMyWDZaRllsODZERXowc0kgZCtCS0xySHdibE9XeStYQmMrcjJpc0MxU0dGUWF1RXVFUkk1OW9mOHpGcnIyOEwzNzkvL0FrTUFjRGZZNklXTlY4cXlwTlZxUmV4SCBLMzN5alRGRXRJdnhIUnF2Z082UkJvQWNlUzAwUEpMaFhtWE1nY1ZpUVc5dmJ4aGJMc2NSeFluNDEzQU9QSTl4NHRJMHBhSW8vUE5rIDMvNVRoTEZUbWtJenIxYXIrOVFZQUxyejZ2U1lMeTIvSnpvMGdPSFM1QllWYmxHMFdZbWxhY3I3cTYxNWVucXErZjJ5TkM0LzR6cUcgOVF1dnNlbjYrRHI0KytHOWlibS8zS0tBeTRoNi85TTA1WFlBUmt5YXBuNnNpQjMxRkZJaGlJNVN5blVSYVk4emZyRTBMRjJkWkN4cyBvdDJLaUpPb3lKVlIwMnBMSkZ2cHMzODAza0NPZng2bVR2VmZPcElnUlI1L0xKbFNUQVp5RDhkR3RFNlRwaWtsU1VJdkx5KzQvOVBCIEVjWE5DWUhHQWFMeDhQRGd1czVYenVGUlQvbkd5c3hpbkR4RVRvajdDWEx3ZlVFS1ZweFlwYW9xZnkyY0xNazVSOXZ0bHF5MVpJenggNnNNOHozMENsQzdacXl3SGYzOEhRR3lwR2ZkOFFsaHJIWWYxSFVrNGFEQVgyRGdzcGlYekpZVlYzMnhJeGZVd3hyaUhoNGVhNm16diBDalY2bnA2ZS9IYkIzcXE3ZGovb3lMM3F5dFdTbjRtNDkrQTAwZTQ5M1BzbWlYeTJzUW9BMTdOWUxIckxWSllreWNHK3ZaejQ1T3Z2IDM3Ly81ZDczb2s5WUFNanozSWQ0bGJIRWxWSmhTTis3RnhsOGhnV3lmVnNCemNSK0JtQmEzS09mQW5BZG9YOHFHN1IxblZJenovTmEgL2dDZWVKNmZuK2Zhd0k5cUFMcGEvYk5BSW9XMElNY0RPQ1RhL2QvM0FUQWgyTGczY2g4RzRISjRVRStTcERiWmREWDVoeXB2TGtoWSBjb0JUU3RXaUxzYTJKRDVWdUozSUNKRGkvNkJPdFB1T1FDK1Q1QjU5RklETDRFRmRoaFhsOUpWMG4wYmFXQUpwR0p6bklMM29QUXV2ICtLVmJKZ1hQcjR1TEhoRVkzTUVwSEJGc0FFQ1B4RGJ5YXpBVWF6eUc5N0hsY1ZCelhvMGphbzY2eUJxY1UrbEpZMFdyMDFwRENLZ1QgTlJKZzE1VUhkeWVxOEw1dmF3QzBnMWZiTVNSUXptd2xQd3ZmeXlRV1lYS0xycTU1NHRTOEpNSzl4U0RPZjlUSlNaNXJ2ejBCcURsSSAxVFVGZy9za2lTa2M3aFpVSFY4QUdDbjdDWnUyMisxQm1Na1lhSzFySVdlcnFwTEJaQ1Jvcy9GeFlYalJmVGpmMmtFY2UwQUdXTHFGIEpFa29TUko2ZlgzbDhNOXpmN1l1WnBBWFFsK1pHbEVIWFdNTUdnZzRUNVpsYnIxZSsyaDZNYUxJS2FWOEJMdW1BWStqMVlsOEFXaXIgOThkbFdVWlZWZEYydS9VVDlIYTdqUjQ4aUFNNGxXWHBmMlAvZDg3UDJVVVdydWQ4TDZlSWsvbFRia0dPdndBMDh1blRwejlDdFh3cyBGeFI1SG1rSHdLcG9aSmZyaDMyOGhJUG5KVFBWU2YvK2E0czhoelFtbmJrWFJ6UWpUV3dCVEpLb1d3Q0U4Uldjd1UvRVdaWWRCTjY1IHBZVEdmT0ZlTS9LVjk4dm56NS8vUWZ2bno5YjhXbXZIMFFkamxLZW5wNW9nR0xpUXpwRm9kaGI3L2dVbVJFd0RRRVRuQkVmaHdUOU4gMDlxZ3pJMG1ocSsvekg0WENCVmdXUGpJZ2hSeDVSSG1xWmM1ejRQZm1oT3g3ek9ZRU1mY2FhOHAwTENDUnFRNlZnN085L0lmUjJDWSA0Y09yZmxiYnh4aUFlT1VmeG8rUVd3T3IxV3B1MFJ5anVsaDJYbnR3Ynh4RkVoS2hBUURIaU8yTFhFc1F4T2R1MkVvQXc2YzIrTWhvIGtQeFpnMGJucXNMbm1GbFNHOFFCQUtlSXI0bnIrQUxBc0hGRUZNVUtPVTFUSWlKYXJWYjArdnA2OFAreUxFbHJUWXZGZ2dqV3ltTkIgeVhURTBvS2ZyZnFkYzFHc2kyV0tZOEprQmdBQTl5UExNcjlTanhYUFg2NW1tcllXT3J3OEVKSHYzNy8vcFNtS29OWTZUUGh6VTVINSBIbVlTTVJBYUFIQ0tlMnpEZ3JtemQ3MkthdVV2VS9NZWlTWUh4bzlqZzFHaTV0REMxeFlXUm1XRXdobnNhME1BQUtlQUFBRGkwclRhIGorWHJMd2R4Mms4UUNQczZPV3JQZkxGWVJCRUVtdHFndGRaOSt2VHBqdzZ2cldzZ0FJQlRRQUFBOFdEcmJobUVaMjkxSGJVb3BlYXcgZXBzNzBkc05ieHN0Rmd1Wk9Haks3UWdDQURoRmRBRUF4bGZ6eGhFUngyRW5vbDE4YUtJUEk2eHJNY2FRTVlZMm13M0hqMGRibXpqRyBHRmRWVlJRalVvNkpIK1lvNEZ3RU5FM0RVZVFDQUtlSUhTcWE0QVV3VTlpb0tra1NQL2t2RmdzcXl6SktBeXZMMHA4WGsvODhLTXRTIEthVzhFSGtMVlZWUm51ZCs4cyt5akgrRFBRNnd3Z1VBZ0N1SW9qNEs5Mm1sQlRnQ1Rjd1hZMHd0b0k4MExJMFZTbmlpeHFUWUFnQ24gZ0EwQXVBMXBuUitqc0JHaE5DYk1zZ3g3L3NBUjdmYnZZM21XaEVYWXEweUZxUXNBUTYxWERlR3lQRFFnQUlEcmlaSEZUWmE5UmIvLyBTNFFZMDZCR3pZV1AyMTlNZDBFaWN2c01obE5nVWdMQTgvT3pVMHI1ZUE3V1doY2FIdmRkUnlZd01uV0x4YUpwc3UwYkNBRGdKcUlOIHdIS2c0amdDYkszZDdTV0JJY04rL0t3aGlqWEJzVEFoVWtkUGdja0lBT0YxeUJnalI5eU1lMEV1WHZpMVhDamxlZTV6b2ZSWnp6MFEgQU1EVk9LSjRVZjRvNkNqaU5RQTFlTkRpTmhLckRUWUlzbU5uOUFJQXE4OTU0cFNCbklpb0ZtMTB1Vno2Q2EyUHBFOUprdFFpbE1ycyBwMHFwMnZqRzE1QWtTWitMSEFnQTRITDJ3Vk5xU1hsdUxYTHdIWWgwRElhTk04WkVEUlhNUlp4ejdJeGVBSkJ4UkhpeXN0YjZDVFMwIEJ6SEcrSlgzL2psMmdteUh2RVVoSjFldTcycTE4cDhIUWE3NkFBSUF1SW93bkdxVWttV1ozUDhINEJ6UkovODBUV1dncWJHM3cxRUwgQUhLbHI3V3VMUktXeTJVdHc2TzBEZURqdGRZY1d2cnVjRjJrQm9EckVRb3A4anFDN1l1dWdRQUFMaU5zekxIU3RWcHI0ZW9ITGlhVyBGNG9jbEhrMU53RmhkTlFDQU5GSDFFOGVHL0k4cjAxYTRmTlhTbmtoanFpenBFOEhrNy93WFBKUlVlVmtMOThIV3h0ZEFnRUFYTWExIEszOCtYbjVQV25GajhnZlg4TzNidDcrU0dGU2JCclEyUnFveWZMWDhmTC9OTlZaR083akxjYUxOV0NNWElmTDR2VmJnM296eUhoTUUgQUhBSlVoSm40NVpMRXYyd2RFNWlVR2FMZnlJdlFRTndFVW1TMUNaNW1TeUtyaGpFd2dsbkw2aU9rZEVPN3JkTVRPSHo2MkJjdWZuZSA5clFBZ2dBQTJoR3VqcVFWSzdWc0hId3NmemY4Mi9sRmdTbHhzSUsvWkdzcS9GNG8ySTVVRXpEbXdUMGNHeTU2bGwzNTNNZmFndXJKIDhEbTZBSUJjQUJQRk9VZDVudnYzU3UzQzhXKzNXN0xXbnYxK2xtWCsyS0lvYXZIZDkvSFpFZDhmM0lKeXp0WHlUbkFDcWlSSnpuNVogdGtkT1FMVFBFVUJLS1hwOWZZMWZZM0NXb2lqOFdITUtyVFZwdlp0K3VCM3c4N3NuVlZYNTM3MkZtQWw1K2dRQ3dBVFpyNGpvN2UyTiBpSWlzdGFTVThnMi9UYWEvN1haTFJMc09uZWM1YWEycEtBcjY4dVhMZnhBbWZ4QUhsYVlwRVZGTldHM1RQbVdHUU9jY2xXWHBCUUdlIFJQcndMWjhyY2xKdE04RTJaWTJVeis1ZUtLVnFiZWRhWWdrU0FEU1M1N25MODl5cnE2eTFCNm9yR2NWS2xqUk52WXBLcXJ3dVZjOWwgV1ZiYkJwaUlxeFVZRm83alZCQmRIaVRvbUVwWGZyWVBGVno3LzBDRmc5RnVBUnd6Nmp0WHBKMVNGM1VQM2Y1dUtUMUVvSVFOd0pUNCAvUG56UDhJOWVXTk00ejQ5NzNOSy8xb2VMT1YzT05nUGQ4THdYSUhQOU5FaUIySVozS09qV3dQbWhTT2lpM01GY0Z0dW1rVENmc0RuIHpmUDh3TGFsNDJzOXhXZ0hkK25qMzZadS9MejRHWXJjQUhldGUreDhLUGVxNXhFZ0FJd1JIbkNrc1V2NElKc01ZVUovMmZCNG9ubzQgWHY1T1V5TzVwdUVIdnJsb0xPQnU4Q1J3YTR3SzJZOUNvVmdXL2gxMmFlMHlDdDBKUmp1NDgxalZkb1hkRko4a2VIMHZyakpVREV0UCAydERvQWdEMmN1L0F3OE9EKy8zN2Q5L1Z1QW1sVkxoSGg3WUM3b3ExMWhWRlFVbVMwSGE3OWZ2QnNoM3l2bXRWVlRmOWxtemZTaW5LIDg1eHRadnBzNTdFbmxDNnZ4UkUxamh2WGNxKzZ4Nm5jeDNWMmVvOGozbDhpZ2hGZ0ZCNGZIMzI2VTJ2dDZDZC9vdDJnbTJVWkVkSGQgRFhNQUlQb3dPTjF1dDk3S1h5bEYxbHJ2dVZKVjFjMlRQOUd1ZmZNNWxWTDA5dmJXeWpzR2dDbUJrZjFLakRHdWpiWHlXRW5UbERhYiBEYjlGT3dGZDRZaDJLMzJlNk5sbHJDekx1S3VmL1cvSTM5clRWM3VIQnVBRGFBQU9nUWFnVDU2ZW52emVDVS8rMWxwSzA1U3N0WDZnIGtqN0tZMld6MmRCeXVhVG41K2UrcXdKbXhPZlBuLytUcUs3MnI2ckt1MjVKLy9GYjRVbmZPZWY3N0dxMUlvSzlDNWdKV05tZDRjZVAgSDUvLytjOS8vZysvWjNWa1daYmVWMTRTVzBMckMyTU0rMk9qallDdWNhejZkODdWSm4raTIvZi9pUTV0QUhoTG9DZ0sxZ2owMGU2aCBBZmdBR29CRG9BSG9FSmVtcVh0OWZmMGZEbFpDdEJ0ODN0L2Z2WkdTTWFhMlI5NUZNSXN1d09RUGVrUTU1Mmk3M2RhQ0FzWHNWOXhQIHRkWTFRWUNvWFNSQ0FLWUFCSUJEMkpXT05wc04vZjc5dXhiMXFhb3FVa3BSa2lRK0FobUhzZVN0QUFEQWJTeVhTeUw2MkFvd3huZ0Qgd0ZpQ2dIUE9heFBZK1BEcDZZblc2M1dVOHdNd2RMREMrOEN4YXA4SEhkNXZaQlVrci9qbGV4Nk1ZcWdsQndiYUJ1Z1ZkcWZsN1FEZSBjbU5WL1Mzd25yKzA1ZUZ6N2cxZ3NRVndHZGdDdUQvWUFyZ0RIQXpFNy84eDB2aUlpR3I3a2Z3K2xsdFNINFFHVldtYWt0WWFLbEF3IENINy8vazNHR09MdEFHNlhNZnBiV1piMCtQajRYL3llRFFFRDc1Zk9HWHQ4K2FGdmY4WXkwSjZDblpmV2VyWUNnSXlNNTdOUkVkRnMgVlBoS0tTKzhmUHYyN2QrSmRwYi9WVlhSZHJzZGRpOEdjMEdWWmVualVmREVIOHNJOEYvLyt0ZS9MUllMSXRvSkJHell5Ny9YQjdHOCBIUG9RSklZKytSUEZtN2k3eUZ6WVJFekJZd3BDekVXc1ZpdEhWRStpSTJPRFUwT0l5cW1XZmVqVFdvamdmWWhNQUFiRDQrT2pJNnFIIDgrVitmRXZoZHErVWNsbVcrUndiUFllOWpwS3JYcFJPNng2NTNJVlk0M3Rmb1lCakZtUE1mRUlCSzZXYzNFZGNMQmEwWHE4YlZ4TlQgY2VVN3gycTFvcGVYRnlLQzJ4OFlMa29wZDQvK21PYzV2YisvODIvSVB0OWJJS0RJWTAvbk5nQVJ1VXZkalRHdUtSWHhEWFJ1QTBCRSBOOWVmN2RmbXNBWGdpTWp4UHVMRHc0TVAvU2tuZjZuNjcxTUYyQ1V2THkra3RhWXN5L293YUFHZ0ZjNDVaYTI5YTRDdHhXSkJXbXQ2IGVucTYyMiswSVpacXVTOWJncjVVNDIySkhVMnlhK1IyOWEzbnFhcHF1Z1ArUG5VdWxXVkpWVlhWclBjWjl1OW5TK0FwaC9ZTjRTQXIgZk0xN2JjQmsyd01ZUFk1b3QycXZxdXBtUXoxMks1U0RhWlpsdEY2dmUwMEcxQkNXK0NyMm1nUjRBUnd5V2kxTFRFMFkzNE5KRHZoYSBhOGYrd3RLbGoraTBBVkhvR2pSMTJQVnBzVmpRMjl2YkpOc0NtQlIzVzdvOVBEelE3OSsvKys0RG81MmNhQ1JiQUxUYis0NDV4bmN1IEFNUVFFdmtlVEcwTHdCR1JxNnJLQitvaDJrWDJZb3YzSmhjM09mR1haVGxvRlZZc2tpVHgyZGN3K1lPUm9KSWtpZXFwa3lRSmZmdjIgN2Q4SE1Qa1RVVHhMK3JHN0U5NlRHQUpXSC9sZXVONHg2czhDeENBYWZTUmlTM1luWVVsZEJndmkwS0psV2RZQ2k0VHFkbXV0VnorMiBlWmpzbTl4MGZVMHJoblAzb2FjZ0ZnQkVRNjZHaUQ0R05HNzdzZzl3dUYrcERheXFhb2piWHRHMkFQWkFBM0RJcUxVc0NBUVVrS1lwIHV6VDREaTlqOTk4TEtZM3hSTS9CUkhqeVQ1S0UwalNsb2lpOFVNRC9rL3VQVWxybmFJUEdtSVBQdjM3OStvVjJEYzZYL1Q1ZnJaUmwgcWI1OSsvYnZxOVdLMGpUMVdvLzkrZVIzQUJnbDNJYXJxcXBwQmNxeXBOVnFSVTlQVC85SisvNVFWVld0bit3VC9haUJUZjRBZE02byBPd0R2OVQ4OVBkR2ZmLzVKUkhYWG5uc2lCUTVPQmN5R1NXRUlZVDVleGpWblNiK3FLckxXOW0xOEJBRG9IMmdBUG9BRzRKRG9Hb0JSIDh2WHIxNy9KNEQxY3ROWXlrTWZkeTNLNXJBWHVXQ3dXL3ZmbDU2eWxvTzREUndBQXhnTUNBZDIvN2s0cE5ZWjZkbEgzVVFZQzhqZWQgVS9GYWE3MXZQeEd4VmZ2ZEs5SmtCMEJVVHl6eS9QeE1QMy8rSE9OOUJnQjBDelFBSDBBRGNFaDBEY0RZSmlaM0tsbkhZckVncFJTOSB2cjdldlNJOHlTdWxLTTl6S29xQ3R0c3RQVDQrMHE5ZnY4WjJYd0VBL1FNQjRBTUlBSWZNY3d2Z3k1Y3ZmNWV4d0tWS1BVbVNXano3IExrdWdyZ01BZ0Z2QUZnQzJBTHFzKy9EbnJlZm5aMTlaWTR4UDNMT1A3Vi83SDcvdVNpRDQ5dTNiWCs5L0J3QUFNd0VDQUFTQUx1cysgYkFHQUozK2U5SG1TYnpJQXZMUTBaWVhpenNmL2s1b0dGamIyd2dVQUFNUUdBZ0FFZ0M3clBsd2p3T1Z5NlY1Zlgyc0dkYkdOKzdJcyA4NFo4bTgyR25IUGVqWEM1WE5McjYydk5GMy92UHd3QUFQY0FOZ0Fmd0FiZ2tIbllBTENVbzdVT1hlamtLdnltMHVRdXlKb0YvazFyIHJkdm5Jd2NBZ0hzRERRQTBBRjNXM1EweEVxQ1RybjJiellhVVVyUmNMdjBCWVZhL2F5aUtnajUvL3Z5Zi9INjVYTkoydXlWakRHMDIgRzFxdFZsUVVoWUpGUHdBQUFIQi9hc0YwdUJoanZPUVRZLy8vMUhtK2ZQbnk5NjR1RmdBQUJOQUFRQVBRWmQwSFpRUGc5dm00aVdnWCB6MThtek9GOXNaaDJBRnByeXZPY3lyTGszeDNTL1FBQXpBdllBSHdBRzRCRHBoa0lpRE43RWUzU2M1WmxXZXNFSER1L0tJcG9GeDlrIHpCdkVmUUFBekJvSUFCOUFBRGhra3RrQW5YT09IaDhmeVZwTDIrM1daL1l5eG5pQllMdmRraFFTYnFVc1MzcDZlaUxDNUE4QUFHQ0cgOURyNVBUMDlPYzdpUi9TUnA3c043QjVvcmFXeUxNazVWM3NkSHNjSUNRb1RQd0JnU0l4bEZkM0VibENOdDBLOW13WWd4a2w2bWtlbSBvd0ZZclZidXp6Ly9KR01NcFdtNnE0eldsS1lwR1dQT2ZwL1Y5M0xDNXkwQ2F5MVpheWxKa3Rya3I3V214V0pCaE1rZkFBREF6T2xsIElreVN4RzIzV3lJaXl2T2NOcHNOVlZWMXNmU1k1em10MTJ0eXp2bWdQa1ZSK0NROWZDNmhCY0RFRHdBWUt0QUFmQUFOd0NHVDBBQzQgN1haTGVaNlRVb3JlMzkrcHFpcWZVcGVJV21rQS9NbjJOMk85WHRQNys3dGY4ZlBuV1paaDhnY0FBQUFDT2hVQThqeDNSTHNKL3YzOSAzVS9TeGhpL2YwOUUzZ2p3Rk5aYWVuOS9KeUx5V3doRU93UEJ2WnFmbEZLa2xDTEM1QThBQUFEMHcvZnYzLzlDUk83cDZja0hJVWpUIDFHbXRmYUV6UVF1YWlyWFdmemZMTXY5Nkh6QUJBQURHd2xpQzZSeXRlOFJBTlhldDU2MUZYR2VYakRvYjRFR0V2M0RTMTFxNzVYSjUgMFFPUWVRR1FzUThBTUdKR083aFRNQzRQdU80UUFPU2MyMVhGaVhZVyszdVZQR210L1d0VzRWZFY1ZFg2NTJCN0FUWW1YQ3dXVkJRRiBKVWxDNi9VYUtuOEFBQURnQkYwSUFGNUtraTU2VlZYNVBmL05adU1QNWpnQUhPeUhoUVRtOGZHUmlIYkN4SEs1ckJrQkxoWUwybTYzIG1Qd0JBQUNBTTl4MXN0UmF1NnFxYUxWYTBjdkx5MFV1SW53c3IvVFROSzFwQjVJa0llY2NGVVZCV1piUlpyTWg1d2FWMndBQUFDNGggdGtvWmJvQ0h4S2tjM0FEUFUxVVZQVHc4ME12TEMxbHJMd3JseXhNL242Y29DcjlWa09jNWJiZGJLb3JDYnlWZzhnY0FBQUNHZ1h0OCBmSFJFdTNTK2JLeVhwbWxyQXdWanpJSGhvQ3pzVmdnQUFCTUFSb0F3QWp4WjkxRVlBU3FsM0hLNXBGKy9maEVSMGNQREE2M1hhNS9ZIHB5Mjg4cyt5ekgrV0pJblhCTHkvdjJQVkR3QUFBRnpCUFNaUXg2bDJPYzcvMjl2Ynh3L3VqZnJPN1dNb3BTaE5VMXF2MS82ekxNdG8gdTkyeW9TQW1md0RBbElBTndBZXdBVGhrSERZQVdtdks4NXpLc3FTM3R6Zktzc3hIOTVPVys2ZHd6bEZWVlQ0c01Oc1FZUElIQUFBQSBiaWYyUkZxYjJUbStQeWZuU1pLRU5wdE5xN1MvZkF3bjhtR3R3bUt4b0xlM053Z0FBSUNwQVEzQUI5QUFIREpjRGNDblQ1LytJS3I3IDdmTWVQdEZ1UmMvKy91Y21mNkxEaEVEc0ZZREpId0F3VmFUMzB4Z0o0N1lNalVzU3paMGk1aVRjRjFycmVOS0x0ZFk1NS96ZS95WEcgZnVkNGZIeGtnOEpodHk0QUFMZ2V4MEhTMml5U1RySFhvSGErT2xWSzNWejNQWGVwTzhlbWlYQWVjczUxN1g0ZVZlcFFTa1hUQURoVyA4eE5SbE1uZkdFTktLVXorQUlEWkVHUHk1L04wamJEUkdpd3hOUlJqMXdKb3JlTUlBT3ltVnhRRjVYa2U0NVJVbGlVbFNZTEpId0F3IEc4WStxWXlCR0VKQVg0S09TSEYvODNtY2MxRW1WaGNhOWNYWUF1akp5QUlBQVByQ0dXT29xcXFiQllFK3RnRDRkL2VxOFZ2UE4yZ2ogUU1Gb3R3Q0lialFDZkg1K2RuTFBodzBzWWtpeHpqbGFMQlkzbndjQUFNWkNwTW16TjAxQ3JQcmZrNkViS2g0alpyMzVYTGVlMFJIdCBmUFRMc3ZRV3JCRU5BTWY1cEFBQTRISml1M21OZVhWNk53MUFaQ1AxenU2eFVzcHhncnhidHlENEh0eWlBWEJhYXpMR2VGZS9zaXg5IHdKOElZUElIQU15S1dLdThzYnNUM3BNWUFsWXNkOEpMNEhySHFEOExFTGUwdHRzM2VZUkJRMVZWMlBjSEFNeVpBM3VxRzRFRzRKQlIgYTFrR0VRaG9zVmhFcVVHZTU5N3RKYzl6U0swQUFBQkFSMXdydmR3c0FDUkpRdHZ0bG9pSXcvdmVXaWNBQUJnejBBQjhBQTNBSVlQUSBBTGdZK3g4OCtTZEpRbTl2YjJ3N2dNa2ZBQUFBNklDcmRPNHhWUFVzUkhESzRMRzZaZ0FBQUFCajVGS1RmVWYwc1hxUHdmdjdPeHYvIFFRSUFBQUFBT3FJM3E3dXlMR201WEpKU2l0STA3YXNhQUFBQXdDeTVaTlh0dE5ZK0NFR2tiRlhWWndlRkFBQWdBRWxFUVZUWDFBTUEgQUtZSWpBQS9nQkhnSWYwWkFXWlo1aWYrTmcyVUV3UWxTVkxiMzJmN0FVeitBQUFBeHNvVTdOWmFDUUJhYTdkZXI0a1RWYlJSMmJPZCBRRm1XTlltRkJZQStJaWtCQUFBQVlFY3JBYUNxS2gvdlh5bEZtODJtMVhlU0pQR1RQd3NOSERaNHovaEZLQUFBQUdDRXRCSUFzaXp6IEUvY2xCbnU4K2pmRzFOUWxrWk14QUFBQUFPQkMyZ2dBYnIxZWs3V1dqREcwWHE4cFNaS3pYMHFTeE8vek8rZG92VjRUVVUzMWo5VS8gQUFBQTBCTm5CUUFac0ljbi9qWnhBS1NxWDI0RGxHV0oxVDhBQUFEUU15Y0ZnTlZxNVp4enBKU2k5WHJ0Zy9hMFNmbkwzMk03Z0VEdCBqOVUvQUFBQTBDTW5CWUNYbHhlcXFzcHJBYXkxWkswTkRmbU9uMXhyZjJ4VlZWU1dwWGNQQkFBQUFFQi9uQlFBSGg4ZmllaGpOVjhVIHhVWHFlL1lhMEZwN0xjQjZ2Y2JxSHdBQUdvZ1lCS2hUV0N2Y3hqNk02TU1kUE5RbWQ3RkFQS2JCdHRiNitoKzdEcTZmdFRacVFKN0IgOGZqNDZHZ1gzY2xaYS8zckpFbWNVc3EvYjFQU05KWHZBUUFBSEhMUnVOcWlkRnIzNVhMcDU0aTJkZVM1SVUxVC83MDh6KzlkZDJlTSBjZFphWjR3NW1NL2tlNldVeS9PODhab1dpMFhuOS9qU3ViZEZPZjVqdEovODVjVUhrL25SWW93NStNNlhMMS8rSHVjK0FBREE1QmkxIEFHQ01jYXZWNnFMNUljOXpwN1gyayszKzlkM3JHaGF1ZzN5ZFpWbE5FT0RGYjVJa2NoN3NrdTRFQUsyMXYxaStJU3cxdFRteC9JNjQgdVFBQUFKb1pzd0JBbDlhUDU0V0dSV1VuOVpTTFZEbFB5YzlsT2FJSjc1TG9Bc0F4R3dDZmRHQzczZnA5cVV1U0FQRnhIQXhvQ25HVCBBUUFBSENkTlU4cnovT3h4TXVuUlpyT2hoNGNIc3RiU3AwK2YvdXZlZFNRaXhZbnQyQmFoTE10YTNCcmU2OWRhKyt0aGcvWXN5Mmk3IDNVNDNoYjFVaDlCZVVwT1N4ekVKS1N6WSt3Y0FnTmFNWFFOQWw5UXZVS1YzdXFLVzI5clcyb09WTmRmcnhQWjNIM1NqQVdDM1A1YVEgMkpLZmFhc0Z3S29mQUFCbVJldEJYK2FWMld1Y081c3d0dHV0SWxGWG52TjR6dUo2U1k4QjFnQThQVDExVmMzZWtBWVpmdFYvaVhVbiBuMFBzbXdBQUFEak9GRFFBek1tNjdTM281ZXRlQ08wUHJMVk9hKzFDTGJpWSsvcmsva2FBYmEzODJ4UmhSUWtBQU9BMFV4SUFhTy9PIFY1dnNlV0lkb0dGNGJhTG51U3RZOVBiTi9RV0F0bGIrNThyQWJod0FBQXlkU1FrQUVvNHJzNTlZQncwTEovdTRCa01pdWdCd3NPZWkgdFhZeG9sRnh5T0EwVFdtejJjQVlBQUFBVGhON3dzRzRPeTI4ZDE0c2FrYUFYNzU4K1h0VlZUV0R2MnNwaW9LU0pNSGtEd0FBQUF5USAydVJzclhWRlVkUjhORzlocndXQUFBQUFBT2VCQmdDYzRyNGFBQ2JHNUM4ekFRSUFBQUJnV05RRWdFc3kvWjFES1hVMDZ4SUFBQUFBICtpVlVFVGsyM3J2VCtRRUFBRFNETFFCd2l2dHRBZXo5LzZHMkJ3Q0Fub2hoZ0ExQUc3VFdId0xBZHJzbG9vK1FpTGNTNnp3QUFEQVggWklLYVc4OERwa2ZNMWI5ejdrTUE0QlBIaXQrUC9YOEFBTGlNU3pLdW5qc1BBS2VvYVFCaXMxNnZzZjhFQUFBWEVIT0ZCNmFIVWlySyBJcDF0Q2FBbkFnQ0FnY0RaVjJPY0Iwd1A1MXdVSWRFNVIxVlZIUW9BTVYwQkFRQUF0Q2ZtQUErbVJhenRlWGt1SFg2QWhnTUFBUDBRIGEvekZPRDVkWWhxSjhwbWNiREN3NEFjQWdPNkp0Y3JERnNEMDREazZobkRIUnFLYWlPamg0Y0gvUTJ0OThUYUFGQmhnL1E4QUFQMEMgTDRCcEVpc1FFSjlERXhHOXY3OWZWUkZHQ2d6T09YcCtmcjYxZmdBQUFBQzRJNXFvSHYzdkVoV1VQSlpmSzZYbzU4K2ZjQUVFQUFBQSBCa3h0bytpU3lkODVWenVlVmY4eExSVUJBQUFBY0I4T0xFV3FxcnBxRXVmdmNFaGhBQUFBQUF3WGI3RjNqWEVCYXdHY2M0Z2ZBQUFBIEFJeUlnMXdBbHlDL0F3RUFBQUFBR0ErMVFFRFNrTzhjVGNkWWEyRURBQUFBQUl5QW1nYmdFaTBBKy80cnBXcEJKeEJFQ0FBQUxpZFcgb2hjK0Y1Z1d4cGpvMlhyNWJFN2FBTFN4QjlCYTc1SUo3Q2QvZnIwWEpORDZBQURnTWx6a2tPd1loNmRGMVBhUjUvbE9BeUJYN1cxRCBTSEtrS1ZtUnFxb1FneG9BQUs2RUYxRzNrcVlwRVpGTDB4UUQ4c2o1K3ZYcjM0aklFY1VOOGZ6Ky9xN282ZW5KV1d2ZC9nZWNNY2EvIFBsZTAxc2UrQndBQTRBS1NKTGxvL0cxVGtpVEJtRHh1SE8xVy9pN1A4Mmp0WWo5M2szNTdlNnYvMmdYU1oxTWtRTmdBQUFEQTVSUkYgRWMyYktvekxrdWU1VTBwQkVCZ0pZbEh1OS83ZjM5K2o1ZHJoZVZvcnBRNWkrYmRGSGl2dEJ3QUFBRndHajZGSmtrUTUxMnExb2p6UCBpV2lYNzJXdlBuWkU1TDU5Ky9iWG0zOEUzQU9YSklrcmlzSlA5cnkxYm95SnRzRDJBZnVlbnA1dVZpY29wZngyQUtzV0FBQUF0T2Y1ICtmbGdhL1hhc3QvN2QwUlVVeDNMTFYraFZnWTlzbGdzL0RhNmZGWkprc2d0bk1abmUyM3g4L1JlRW5SS0tWWVJYVnlNTWVGM0FRQUEgWEVpTXdaMkxVc3JiRkdpdGE3WmVSQjkyV3p4Mjd5Y2IwQUdoclllYzZPVnpvK0I1aGMvdzJySmFyVDZldGZ5eHR0S25uUEJsSXlNSSBBQUFBY0JYQlpPeUl5R1ZaRmc3Y1hSVVFFWDZtc1EwOW13b0xDbHJyMnB5K1hDNFBuNjJVS3RwcUFlUngvQVBTY0tFdnJMVzF1Z1ZiIEhBQUFNRmllbnA2OGlqZEprcHE2bDhlMW1GcUNVeVZOMDFBRkRTNkF0M1RDMG9VQUlBdHZLL0R2N3JjY1ByaEdyU0FuV1g0dExxd1AgRG02d2xJTFlsL0x6NTgvLzZLbCtBQURRaG9PVkc0bUp2K3NKUkpaQVBRMzJmUDc4K1Irc29sOHNGZ2NMNlQ2ZTJlUGpvMzh0N1F3TyBLbitOMFFuYkRCelJHSFNOdjJDV1dLV2hpNndiL0dJQkFDT2dObmJ4ZU5iVjZsOFdudlRiVEdMR0dGWXpUNUpQbno3OVFmdHIxVnE3IExNc2FEZlc0V0dzUC9pKzNkTG9zcDl4QXBYVFF1bWl0RDc3VHRhOXBsbVV1eTdKYXg1Q05WU25sa2lScDBsSk10cEVDQU1ZTjcvWHogMzlCSWpDNFlwMjhwNFNLUGpRbGxmWGlyb2syOWtpU3BHNkFOaks5ZnYvN3RHaUdMaFNTdHRaOXpZbmh6WEZ2a05mRHJKZys5V2k0QSByZlZGZ1Nqa2R6aUVwYldXdHR0dFY4RUFuREhtYUoyMTFoVEdPWkJZYTZrb0NnUXVBQUFNa2NhSmt2T3czSk0wVFdtejJmajNTaWt5IHhsQlJGR2Zyd04vVld0ZDgyY3V5Ykl3enc3bG5PQmtTenlrOHRqdm5EbjZQTTgveUdPK2NvN0lzZmYzWVgxNG11Wk8vYmEybHFxcU8gWG9OTXZCTWV4M1ZSU3BHMWxweHovbmVQd1hYbCt0dzdaTDdXbW93eC9yN3Y2M3d3MTZsOTVSd1JYWlFNaUkvajcxbHI1UU8rKzZTYSBaWm16MXRMTHl3c1I3UkliVkZYbEcyMllwQ2pMTW5wL2Y2ODFKcTAxTFJZTGVubDVnUkFBQUJnY2k4WENyZGRycXFxS2tpUWhwVlJ0IFlyNDNQTkVXUmVIbkJEa1pXMnRKYTAxRlViUVNTbmlTbDNOSG13bFJUcDRzR0RTZHA4M3Y4L0h5TXhZa21GTVRPZ3MyOGpud2hGdVcgcGI4UHhoaC9yMkpGZUx3VTBXWWE1emhGdERNQ2xOTFpmbVY4OHNUeWdmQVArZWhDSFFnQVdtdkhONW9GRnE2M1VvcVNKR25zS0ZKaiBJT29NQVFBQU1FaTAxbzVYeVBkZStZdmZQUHBiUFBHR2srNnhqTEpORTNXYlJhWmNwY3Y2ZEtFQjRYb3psNnpZajlXdjdjSTZCc1lZIGY1L0xzanc5djkyNnZ5VDNPdkk4ZHo5Ky9QaDhwK3VTM0xSSHduV0dVU0FBWUFUNGNVdmFPTW14dXc4RFFaVDdsSEFlRHQzYitmbkwgeUlIU3VGRFlicHduTkZab0l3UTB1UUh5NndNL3cvdHcwdzJXMTV4bG1mdisvZnRmT3FnekFBQmN4YkVnUVBMeng4ZkhYdDBFVWVLViBKczhMYVlESjgyNmU1OTdOTDVqTHorS05BS1ZLdjQyS1JhclNtL1pWNkk1cTlUUk5YWXg5c0dEYmdnaGJBUUNBQWJOWUxOeDJ1NldpIEtHcGpNRzkvbmpLS0J1UGsyTlpLbG1WRVJMUmVyNG5vb3czc2pUQmJ6V1dhNk1OaThwSk1mdUZlUm1oRWNVOWlUUDdHR0QvNUcyUDQgWnJhU21nQUFvQS9lM3Q1VVVSU0t2WnM0MjE5UkZKVG5PWlZsNlNjR01GN1lpSjFvNTFVaHZScUlkcFA5ZXIzMmsvOXl1V1M3UGRWMiA4aWZhQ3dDZlBuMzZYMnd3MEpaUUFPQ1VoZXd1Y2srZW5wNXVQb2U4d1h3ejcxMXZBQUNJZ1hOT2ZmLysvZjkrZjMvM24vRnJuaFRBIGVKRUdqOXZ0dHFadHovUGNhM3Q0enRvZmYvMEtYS2IwYldzRGNDd1NZRWNwZ1cvZVk4bXl6TmVmRFNpUXpoZ0FNRFprT0hjWUEwNmogaE05UjJnT3dIY0ErM08vVitHV3dkREZwb3drNDVjN1FsYXZLcmF6WGEzcDRlQ0NpM2JaQ21xWWM0QUZDQUFCZ05CUkZvWjZlbmlqTCBzazdqQklEN0llZll4V0xoWDY5V0srKysvdXZYcjV2MjNXc0N3RFVWbE1FaE9QQUJFZEd0a3NtOTRYcisrdlhMUjNQYWJEYVVKQWxmIDA2RHJEd0FBa2ovLy9GT3QxMnYxK1BqWWQxVkFCT1EyUUZFVVZKWWxMWmRMRGx3WDNlRE9xeHhpeEpydWFoc2czTGFJNVFKampHRTEgQ3dBQWpJNXYzNzc5bFdpWENZNVZ4ZzN4VHc1OHpFbU1nV0dtMlBBNDZYYldaK3o3UGtwVHhqKytCOGFZZy8rZm0xZmw5L2wrUGp3OCB5R1B1aC96aGlINmtkNGRUSGxwcm8yZFo2akNtQVFBQTNCTkhSTFVKUlNsVm0rQVhpNFgvZnhoMEpoUVNyTFVIbjEyU05YQXVwZW5lIHlYdC9MSk9nMlAvdmxOaFNYQ2QxZm5wNjhyOTVLalhqcFNYUGMzNFFBQUF3Q1RpTkxVOUNUY1ptSjFLOVk0TGZ6NU5Ka2h4ay9lTjcgWnEwOVdOSEwreGNhYmZMN2Zicmh6Z2ozRVZ4RGNKeVk1NzhYamdNa2NBYWtHREdYT1JFRzhnVUFBQ2FLSXlKdkFIMHFCd3piUnhWRiBVWXY3MGxXR3V6RndMQU90VEU3SFpGbm03N2x6cnBmNTVVQUFDTEw2M2VNMzdzSmUvWFEyaVZGYndvUklxOVVLV1FNQkFKTW1TUkxIIFB1Wmg0cDR3K1ZvVGJBZ2VjUkU1U0RoUjBTbkJoN01NRWxITldINi9xQnpFWEhJZ0FCQlJsSENTSXB4d0p4ZHFqSEVjR1VzR3g3aVcgSkVscVlUWTNtdzNmbDBFOE9BQUE2QUJIOURGeFZWWGx0YXhFOWN5QUNFRzhJeFNROXUrSFAyL0VOS0lUZXh5ZHdmc3Y5N0JHRFpJdCBBQURBN09CeDhGZ0pEUXVuWGtLang5RWJqc2VLSXNXVDhONnF0RXVpMUorTkNhVlFGTndiQUFBQWUySWFZSStoN04wc3AwWE0xYk1JIEw5d2xQa2V5REc4c3BkSlkxNGdVd2dBQWNKcnYzNy8vSmZRY2FJb25JSzNtZWJ5VzN4T3hXYzRXclhWdG5GOHVsd2VMTzYyMXM5WWUgekFjeXBzenN4dmdZUVlCSVRMTDdCOWsxVHFxcWVPWE9na0dzc2x3dXNTVUFBQUNSWWRmdVBNL2xPSHNnRkp3ckRkOERwNGkxQmNBUCBTV3ZkdVcvakhrZmsxVFJlZWxSS1JVbVdJUnZXZnBzQUFBQkFKRmFyVlcwK3VTUlNyVnp4aXdMYUVDdlFRNTk3NW52VnpjSEtQMmFtIExDbE1RTG9FQUlCNHlIbElxdlF2MVFDSThSKzBKTm9rU1VTOXhkUlAwOVEzR3ExMTFNay90UHdrNmo2S0V3QmdXSHo2OU9rUFZsbGogVVhBekxzdXlXdHAySW1ydFpTQzEwQVFCNENKaVRmbysxR1NQZStXK3dRU3I5WnNLZXdjRUlSd2RVUytlRHdDQUhsbXRWbjU4NFRqNSBST1JXcTVWN2ZuN0dCSFFkQjhseExobTcrWG13RU5ITEZZeVlLQk5rSUwzMVFwQlJLVm9zYTlHeGE0MlVQclFDQUlCcFU4dEZJcldNIDBoQlpqRUdnUFg2c2xqSDI2Zm94RzF4QWxFbVNTOS9xTUxrWEZNUFRnUnVpM0p1U1dvL2dPQURBdEhCcG12b0pTcTc2NWZpU3BtblQgZUFOYUlCTVM4YjF0RzZ4T1BoZXg0QU1YY0xDQ3YzYmxMRHRIOTVkUm83WXZGRjVQN0N4WGVaNFA1Ym9CQUJGWUxwZXh4Z2x3bnRvOSB1MlRoRmthRmhidDJNL3JZUDViTEphVnBTbVZaK25qUGw4UjY1dGpSU2lrcWlpSmFrcDRiVVdWWitqd0ZaVm5TWXJId1dhMWtmT3RiIFdTd1dQaWZCMDlNVEVUbytBS1BHV3V1MjIyMlVtUGZRRElJeGNMQTZibXRKMytTeU1RVExXSFlQVEpMRUdXUDh0a0NlNXdlcS9KaEYgS2VVZUhoNmdqZ0pnZk5UR3NkQ202SVlDVGdNTlFNL1V3aWJLOTIyTDNJc1JuL2NLQ3dIY1NIaGZpYTh0aGdEQVNTS2FRazBHQlFBdyBUUHppZ0c0Y0Q4S2lsT3JOUFhwRVFBRG9HM2FodUNWK3ZueHdpOFZpTU5tU0ZvdkZRYU9LbVJFeGpGMnR0ZmIzY3JWYStkL2VEekFBIGdHSGd4eXFpajVqeFJGRlgvMWdBbkFjQ3dBRHdOL1dTVUl4RWgxYnh4cGplWFFJbDM3OS8vd3RiOGtvVjM1RXdraGVWWTFvRU9aZ2MgeVRRSUFPZ1lHU01rU1JMZlIyVS9qcjAxQ01IL0xCQUEra2I2dWt1M2x6YUZPMUVZaUVkclBhaGdPWHhONTNKZFgxcDR0Yy9Ca0pJayBxZGxRY081czNpYVFiaThFWVFDQUxxajFSOWsvbXpMWXhkUUFERVVUT21BZ0FBd0I2Y3ZhZGl0QXBuYVUzeGx3N0h4Znh4aVN2a3hGIFRFZnVTOU4zbWw1Ly92ejVIeDFjUHdDemdQZjB1UytHZlpWZmgzNytNVk9saXdLT0F3RmdDSVE1bW1PVkFjYk85NE9DMUZhUW1MeGogcFVzK1Y4SmdJdno2NjlldmY3di9iUUJnT256OSt2VnZYZlhic1BCaVFtYXpZdzhrZ2dCd2pxT0xva3NMSXJQZXpzRmtkR3Nab0JhQSBLR2hzVXBLTWVlM255akZoU3lsVnMxRlFTbkhLWXdBQTdTTElVUXZCK3A0bDlKNlN2dy9qMzlaQUFCZ1EvZ0hFTklZWllpZVErM3p5IFdua3ZQM2JFd0dNbGJQRHlkNXRVa3FHM3hZOGZQejdmOFRZQjBDdFBUMCtOZlZFcDVZMzVzaXlMcnJsc1c2U2dIaVJGUTNLYWRrQUEgdURNWGhieFRTam5uSENWSlF0dnQ5cVlmdHRiSzZJQzNoOTY3RDQ2SW9senZOU2lsU0d2dEk0OFpZM3hrUlhtTWMvVzJyYlVtNTV5UCB4bGhWbFk5eUtFblRsTGJiTFI4ejFHY0Fab2ExMW9XUlE3a3RPK2NhMjdLTTNobjJoL0FjUkJRbG10ODV1TDc4dS95YnE5V0tYbDVlIGlJWTc3ZzBGSjhlM3ByR3VMZnZ2NG43ZlNGUkxlWTRNT0hBRERhbXBPTkFLM0xNY015U1VLNXJRaGZIY3Vkam9hYlZhK2Y4OVBEejQgakdaRDhzNEFzK0tnWHpWNHhSeTAreVl0bU5iYTc3UHpPV1RTcmk0S1g0dmNOZ3hpaklEelFBTXdKR1RPK3hpRko2NkIyZ0o0WkxoZyBvdmhKZzVxS25PUlpwVWtOOTQ0TEQzcWMvYXBwc0FzN1VKSWtCOGNaWTFnNEFLQUxhdTB5akxyWEpBUklsOWxqazhLcC8zVzVKY0Q5IE5CQnVRRHNnQUF5UUtCMkl6OEg3WkVNWEF2WjBObkNFRFo4bjlyWjVzY1BPd3FzZytYbVFLdk5BR05qSGdBRGdMdVI1N3BiTHBSZEUgZWJVY3hzcWdNMzFGYWhLYmhOdzBUVHUzQTVBVHZqRkdydjVCZXlBQURBMFpHT2pXRXNiZUg4TkRrb1k4OXk0eWFtRDRPYjl1eWpmUSBwdFBJaVY4S0Z2STM5d014QU5IWnU3UFcycWkxOW1DclNoNGpQenMyNFhOcDJxWTdwUlc0VitHSkgzM3BLaUFBM0pscmpTSnFOOU5hIFMyVlpYbVNnd2FtQzJhQkhHTnFOd2xDRERTS0pkc1o1eGhqYWJEYVU1em05djcvN2xNTk1tcVpVVmRWUTBpSzNKazFUMm13Mm8zZ20gWUZRTWVrRE9zb3pXNjNYdE02VVVHV084VWUyK2J4RFJiZ3prejdYZVpWa1gvUi85NXpwZ0JEaEVsRkorcnk1Y3hWOGFLcE5Yb2lQMiBqZlhYRXNZSmFGckJpeXhnZ3k3WXN3VDNJbmJJN1hzV0R1SE43ME5OV2RpWHBXWU5icmczQXczQW5ibEZJbkpFdTlVdnU3YzhQRHpRIDc5Ky9HNlhuZ3gvZVMzTlNxdU56N1ZmUG81SFc5dXBJN3lwb3JhVTBUZW4xOVZVZTA0bnJVU3dhNmp1YTV3RUd6K0FIWTJQTWdjdWggTWNhdjdwdmNnclhXcExWbUxSLzZ5KzFBQXpCVXZuMzc5bGMyNEF0VDZMYlpJNWZma2F0a2xxaEhHdisrMGQxSUJpUHBPcUxnTFNXdyB0QVlnQ2wwRjBycWx5RDU2ekJaSEJ2cEJOcys3QUEzQXdIRVBEdzgxdFZkYjlYYVlJRWlHemhUL0d5c0hvWVNwNGJxSFhCcGNzd0NJIHdoZ0VnTEJJQVVCdVlZanhEc1FIQXNDZDBUZCtYNzI4dkhoVmNaN25QckxjT2FTeHpHYXo4YW9kcVhJYmNiaE01WnhUckVaTTA1U00gTWY2ZmZOMURSdGJ4L2YyOXg1cUFxVEdXcmJBMFRmMXI3c2RFUkc5dmIvN3o3WGFyQ09wK01GSnVub2w0SDUrdDMyV25PZm5EZXl0NSBGaGJZT3A0bkhtTU1yZGRyMnF2WlJrbFpsbjV3a0lOZVV5alRvU0hERHdNUWt6RUl3RVFmWXh2UnJzNXM4YjljTG9sMi9Sb1RQd0NzIDBndHRBVTRWVm9Xek44R3BRQjNmdjMvL1M4ZVhkQys4cnpNTlFLM1pwb2k2QWhDTDN0dDFtM0prdXc1MEI3WUF4a0RvK2hkcmdndFMgYWs2Snh2c2w0L28zQmViaFkwSmhLVFE4YkJzZVZZWmRsYi9ONStmN3Y4OFRBRUFzYXNHL1pOczlGZHhIeHZXL05neHdVem4ybTRqZCAzenMzQjI4S0lxZUNlOEZDd0xFRU5yY1VZVFEwT1RpTXFiUTZEdjJrZzZSSmZuQTZwalZoTFlNc0xDVHdZTWVEbTlhNmxoZ29MQk1VIHZzQXdPTkFDaHA1QkxKU2Vtd0Nhd2x6eitkTTBiWXdvbU9mNVFUNk5odk9BZmptNW9MbWtZQnpyaG1pVFArZno1dGR6aUtVdEovUXMgeS95QUZJYnREVDB0d21QYUZya2R3Y21FR3M0RndEMm91ZEZ4T2JleVp5RTJ6L09qSGtmSHN2ODE5UkZyYlJpOERBeUhxd1VBbVFtUyBhRFM1WnNZTmQ2U1lpVGU0c3hQTnp1V21jZURpQnAybWFXMjdRSGFTWTVrQU9hc2dwMHFWbWdZNUdGdHJYWjduVUp1QmUrTUZlMjZMIHgzenVUeFZyclhjbER0cytSK3ZqejQweFRhdC9NRXl1RmdCWWt6T1dqTE9Ub1NsMTdiV2x5YWh3eHVxNW1tUkx4KzlMbzhvL1BMNnAgU0dHTDVubVBRY2ZJVlh5WUF2dFlPeittOHBmbFdMaGhwUlRTWFkrSG8yTmMyeExFWXdFZEVYWHk1ejFxN3RTSXVrWDA2ZE9uUHhhTCBSZU5xLzlnMmpEU2VrdW1GNVlCcXJlWDdERUFuU1B1WHZjSHB5UUZkVGdSc0ZIdk1hSGJNYnNUZ2RnR0F4MElJQU4xenN4QWdPM0tRIG9uWVdOZ0hYRUtaV0pkRVJqbWxta1BnSERBRnBqQm9hdllZbDFJVHQyekNZRmxjTEFIS2hRNFF0Z0Q2NGFmTG5TU2xRU2RmK040R1Egd1FBQUFKcHBwZGs4VmFBQjZKZHpxODJidFFNenRna0FBSUFwYzVNR2dJUUFBRGZBWnU0ZGsxTWxTVUpFSDNHMW05Sm9Ya05SRkxYMCBuTEJZQndBQUFOcHo5NkRjZVo0VDBTN2hEK2NNaUVHV1pWUlZGWlZsNmVQVlE4b0RBSUJERm91RlUwcDVkMTlyTFNKOGdtNWd3ejFXIC84ZmFCcEJHSGtRN3cwQ2tycDAreStXeXlkSWJXMEVOY0R3SGFXblBCWVp6MDZmSmhrb2FDQS9jbUJwYkFCUENFZEhKc0xPWEZCWWkgZVBCdkVDckF4SkJSRUVPZmNSbnpBSjJkNlB2MzczOEpBK29rU2VKa3lPNWdRQVVUNHRPblQzL1EvdG5tZWU2V3krV0JGeEFIVDZMaCB0Z0VJQUZQaTBzQTBwNHBTeWpkZUZpbzQ5amNlK3ZSSWtzUlArazBoWklrT1hjUDJrOTNzV0M2WHRSVi8weXBRV2xRL1BqNE9kUUlBIFZ5Q2ZkK2dPTEY5TFEyb09QZDVqdFp1QUFEQkJvaWNMNG5OS0NaZC9BNEZBeGcxUDluSkNTNUxFQzRBeUpESUZ6MTZVT1hHMGozRHcgSjM0djk0VDUvdTZGQVRCU1dLWFBpWlNrRm9nWFNDVGFSSmpKbFliVlh5QUFUSkVZb1lMNUhGTGE1WWZOalp3YnY3WFdmZjc4K1I5ZCBYaU80blNDT3R5TWk5L3o4M0RqSkg4c0dON2NBSURMN1haaG1ON3huTXRwbXc3MEdJNk1wclRpL0Q5dUVmTjQ4VGc0d0REZ0VnS25DIERaQWZrRXh2ZTBRcXZiaUUwdTRBVlZ6Z09MSGJ3T1E1RmhyNmhnTEdRVTJnaTVTTWJRaEFBSmdxWXQreE1lbFB6Q0tUM093bkJEQlEgWW1XU2JCZ3M1b0FqYWs1N2UybEJ0cnpSNEo2Zm4vM3pPcFlFNmRJeUVNMFpCSUFwdytwY0x0WmFsMlZadEd5Q29RcTA0YnhnV0VSYiB3VXJyNXBtRWpHNjg5bXVMTWNhbGFlcXN0Umc4aDRrZk0wazh0NWlwMkx1OG1DTkFBTGd6ZHc4RWRJcWZQMzhxWXd3bFNVSmFheXFLIGd0YnJOVlZWZGZPNWxWSlVWUlZwclVscjdZTUdXV3RwdVZ6eVlXZ1V3eUQ2aXNPNTNlazRTTlRVVVVvUjBlNTZpNks0K1h4bFdkSm0gc3lHdE5aOGJnV01Hd0xkdjMvNUsrM0ZMS2VXZk5ULy9HTThlZ0U3aGxibFNxakZneVRWRlNvdE41K1J0QjdGYUFoMnpXQ3hja2lSZSBNeE41OVZKckIxTlBjWnpuK1VGZ3JGdEtudWRlQ3lBL3o3SU1BWVQ2d3hIdGJLUmtQQXlwMldRUEdZclFCanE5c21hZ0FaZ1JZZXJHIG0wclRRSmltYWMzZTRJaXdBYnFoTm1peGpRYUhMS1Vibno4MUR4aFQ1dUpCc20xaFAzSGFQeXZoY1FFNklNL3pBdzhuV1lTWFUyM1MgaTFENkJnTEFuT0RHM1JTNDVKb1Mrc0UyYVFXTU1lN2g0YUhXYWZhQmhjQjk4UDc3VFZicnNZeVlwRnZnSE53QlE3Y3Z1dkgraFgwdyB5N0phbndrRWJIQUh3cFU5OXhVTzdxTzFsZ0Y4L0xnV1F3QVlpSllIQXNCTWlUSUp5QklhQk5LSmdaTC9QOWRJY25mQys2S0hBNVF4IHBoYWtKRmF1Q0huK0RxK3pUNkwzRzJQTWdYdVo3RGNEOUIwZlBYeC9PVWlUM0NKckNuWkcrNGsvNWhiYVFPdzlJQURNbUlOZ0ZrMnYgNzFWa3JIUkVSN3VKV2tlTXJkNFBJd1FTZlFnVVFSalVPZUJrSUNCcXVOOWh1T1JiaXR4T0MzSnpnQ3RnQTc5N3UwVnpZVzJiRkJ3RyBGamZqWkZ1K3BHRExhcHpVUXIzR01oQnNXM2hWaXFRcGx5T2ppOG5ZL1RFSHR6Q1dlZE52SkVreW0wa3B2TS9TdVBiWXl2R1dJalUxIFVoTWc2Z0ZhRUN0QjJpVkZMbkRrdUtxMUh0S0NCd0xBM0duYXc0K3RJbTVUZUE5VWRCd1F3SlBBTVZWa1V5enlhd3V2WG5pMVQvdG4geEo5cnJXYzVFWDM5K3ZWdlRWc3BTWks0eDhmSHFOcXpNTTU4ZU80Z3hDd1EvUGp4NDNOVEdIT1o1T3llUlQ2dmhneWJRd0VDd0oxUiBmVmVnSlk2SXlGcExWVlZGaVJOd0Rtc3RLYVZvdTkyZVBDNU5VOXBzTm1PNWozZGh2Ni92WXpsVVZVV3IxWXJlM3Q3OHMrSllERVE3IFgvV3lMS1A5dnJXMjV2K2NaUm10MTJ0K084ZG40NGgyOTVudnRiemZ3ZjI1R3ExM1lVVGtNN2JXK3Q5TGtvU2NjOTVmZlIrYllZN1AgdzdOY0x0MzcrenM1NTN5c2lqNlEvWkdJZkN5VzlYbzlwT2ZqbEZMK1BzblhsN0wvN3BDdURWeUNsSmE3MkNPVGF0TFF2OXBhNnhhTCBoWStTeHBMcFhGVE5lN3dsTWgyNWQxTDFIS3FoWXhSK0psbVcrZDhNb2t2T0ZubXYyYlZTYTMwWEEwdDVUdTRMc3IrZWVPNnpnRlg4IDRRcldXdXZ5UEQvd1ZPcEt3N2xhclp4TXMzMy9PM0V4MEFDQUQ2UjZzNHNpWForSURuTnJ5OUpnS3pDNUJpY0hLamxJaFpNQXF4YzUgT0kwOEx0YitNNnY2cGRzZ0M0WlFPZS9ncEZwaER2Z1kxdUx5SEcyZUswOTI3TTRtQTlZTXhPVXNLdkw2ckxWbkovVWtTVG96L2lPcSA3L3YvK1BIajgzM3Z4dFZBQUFDSGRHME1TSFRvY2tPMGs2Q2xBWTljaVJKOTVEYlFXbzh5RXQyNTRDSmgybEZwV0NTL0YwNDRNVmM0IFBHanlYM1QwT3B4MEszYVV4YVpueUZvRy9xM241K2ZHZGlNbnVyQzlqTlZvVTQ0RHA5bzM5NUZqaTRtbS9uTG5NbVFnQUlDajNMMXogeURDMTV5eXA1ZnN3T0FmL1gyNFhERzJWK3VYTGw3L1RpV3NMdDBTYXJrKytiaHJFUkdLWm00czh2MUQ3ZytPMFdvbGVVamdnVU5nVyBtaVoxZGorVWZ0bDhITGVuWXdQOEVIMjRRM2ZLcHZxZjJ2WUtOV014KzhZRlplaEFBQURIK2Y3OSsxOUlEREpFQnl2QldpZnJvWU9kIGJaVGhRSkxuT1U5b2QwRzZpbzJoaEo0RE1ocGRvQWtDWitEN3hjSlRLS1ExNU1jWWZMbW5JUDM1OCtkL05FMDY5d2kzZkUwNUpvQ3ggMENISEZ0bnZCNnp5RDRFQUFNN0RBNXMwb09GOTZIRGxUUTBEWDErbFNRQUlqWUJDTlRzZnczL1RORzBWL2xORzRSdWFJTlJVUXVPbyBwZ0EyU3FraCtTeVBnbjJFdDFxUk1RTmloZUcrZDJFajNIUEhzZFloYlBQaHhCbmFSb1QzSVZ5eDkzMzlYR2Q1UCtRMkJQK3ZRWGdlIEV4QUE3c3hrM0NJK2ZmcjB4Njlmdi82dExNdVRMbWZHR05KYW4zWHY2d0tsbEhkdENlZmZBYUVBQUNBQVNVUkJWTjFicm5WNTFGcjcgYStUdlYxWFZxOHZSTGFScFNsVlZlVGMvZGpjMHhnek5aV2xVcEducU5wc05FWDJra25YT3NWdHJuMVc3R0tVVUdXTnFmZWxhTjlPbSA4Y0VZUTg2NVJwZld2bGd1bC9UNitucndtbWhYWDlubjh6d25heTM5L3YxN2JQMEZib0IzWm5JM1pMbGN1dGZYVjBxU2hNcXk5QjFWIEtVVlpsdEYydTQzcWd4NkRVNEtBUk9SbTk4ZGZNcmtycGZ3RU9nUUI2QlJLS2U5SHpuWGx6NGhvOXJFWFlwQmxtWFBPK1FuLzhmSFIgeDI3b2U0STdoN1dXaU9ob1hhVlEwL1MvYzVNS1QvcDhUTGlJR01JWXd0ZEk5QkdUZ2V2RnNURkdQdkZCQUxnems3d2hQMzc4K1B6ZiAvLzNmLzhPZFFYWllyVFhsZVY2VG1JY0FDd0ZFdTBHTEp6bzV5Vjh5S1BPQTBIZkFrUml3OFBiKy9rNDAwVGJiSi91RVA0UHJFOWR3IHFZWlA5anVpdXNCd1RIalFXdmN1QUNSSlF0dnQxbXMrV0VPV0pBa1ZSY0YxSEh0ZmdRQndaeVo5UXg0Zkg5MnZYNzhvU1JLeTFoSkggNEJvQ1d1dWJKbWY1ZlI3RTVFREdBMVRUQURlVWUzQUtIc2lWVXJ4Q25YUmJIUWpPR0VOSmtyQ3dOWHE0L2JOQXpGeWlQWlBmNzN2aSBQNGExbHJmRitLTXA5QmNJQUhkbUZqZEVLZVhrZnRnUUJyZFRLa3A1akZ6SlM5cE81TWRXTjJQaCtmbVpmdjc4T1l0Mk9nUzAxbTdvIDZuOUpLT0JLMng4aXVraHp4djFOS1VWVlZUWDIwYUhjbXlSSktNc3krdjM3TnhFUmZmcjA2Yi8rOWE5Ly9SdE5hMHlIQUhCbmJOOFYgNkFMeDRGMk1HT2d4a0kxYTd2L0xRYWVOTVZQVElCV2VZOFNvbno5LzlsMkhXVkZWbGU4cnZWYmtETExQTkxYeFk2dDc3bTg4d2N1ViBmZHYreHQvdms2SW9hTHZkK3EyQVBaamd3RVhvODRkTUNyVllMRDdlN0kzS2VMVndjSEN3dWxCS2VWVmJMRUpWNUtXVGR0UHhYVTM4IGZEOUM5U3FUcGlrUmZheFdHTDUvOG50OG54OGVIb2gyQXhrR3MzN3h6NENmTXhHUjdEOU0wM01rK2toR1ZEdXBpdk5ZejdYdlkvK1ggR2dHZThDOVI2MTlxaTlNRzN1NWlwTEV2RTQ1VGZQeDJ1MVZFcFA3MXIzLzlYMUVyTlNEYWFFdlBmVGZtbUQwbFpqdklMaFlMOS9iMiBSa1JVazZMWmVsWWFEdklrdDkxdXg3Nmlqa2F3OGlDaStuNXJVUlMxckhOcG12clAyVWlwcWlyZk1mZUdUTE50anlQQUVWSHR1ZkVxIFdrNkl4eXprT2J1bXlBbzRhMWFyRlcwMm01cUhDMUZkTThpdnBkc2h1OFhPeEEzV0VkMm0rbWYyOTNEcTl3dGNDc2RLVDlPME1hdVogTEJ6aWRpaUJRUG9zWVE2QVk3bmcwelE5T0paZml5QWxZRHk0eFdKUkM2elRGTFNKUDJzSzN0UmwwcHVobDFNUlNtVm1TdzdnTkxQQSBWd2RqUnR2Q2djUDR1L3N4Q0lCbXZuMzc5bGVpajZ4K1hKb2k4WTBoa2w1WGhlL1BzVTRxdzg1eTVqNU0vSlBnSUwwd1Qvd1V0SUdoIGhNNGRVZ2tYSEh3LytWN3gvL2p2R0JNa1JlRHE5c1AzVW9aRjd1TUNoZzVVSWcydzF3RHZzeDJMS2poM21pS2tjUVREc2l4cHRWclIgZXIydWJSVThQVDNSbjMvK2lYWTNFWklrY2R2dGxoNGVIbXJQbXJkMlpQd04zamJxMjRCdUtIQUVRelpBbEoreFh6L05lNHl1VGRyWCBiQVh3ZCtBRkFDNkd0d2VNTWJXODg1OCtmZnFETHBSSXAxaEN5ZnlZWm1TSytkNUJJMDRwVmVzclllSFkvTWYrUC9leUQ4cUUvckxqIDVIalRwbkJiUXk2QVppQVJ0Y2RsV1VaS3FVSEVFUmdTWWQ0Q05sUmFMQmIwNjljdnRMR1pzVS8vNi9zSmg1OFdxOXJaMCtUK2l4WHEgQWJWSit4SU5nTFQrRjBiZHVMOGdDcjJ2RlBvdTB1aEx2dDdiVWdCQVJCK1pPcVVkRFRRQXRkVXNPRTd0bmwzVGJxQUJPQTBrb3R0eCA3TzRXL2ozSHFYajlZYWpndHBFRFEvL2g4Tnd5bHZteFBjZ2tTUTR5d3Nra1JFUzdWYjg0QnUwSW5PWHA2Y245K2VlZi92MDFRWFZrIHRENU9ka05FTlplNVUzRXdtbjR6N0RQeS8rRksvUmhjSnhtY2lGMktPWWJDQkpMemRFM3RobCtxQVdBN3JxcXE0QVo0Qk55UUc4bnogM0xHcWt5ZitOZzJWQndlaWp4Uys4anVuMUtYU3NJVUh4Rk5SekpvRWpRZ3BUZEYyd0UzSWxNUWNOSXFOQ0oxemxPYzVLYVdJNDNYdyBKQnUyY3haaXBUQWdRd0V6TXRqV3BYQS9DL0pUSEVWclRZdkZnbDVlWGpEcFh3OEVnRHVERzNJanhoakhrZnd1OFJJNGwzYzl6QU1RIFR0YlcydHJLbmVqRENwOEhxZTEyV3hNazVEbkRVS2s4dVBIdjhTcUlnNDVnL3d4MGdDTTZERExGa1FobDBKemxja25yOWZxZ0QxaHIgVzRYMERaSGFNN25xUDVVd2lPdkZYaTljOXp6UFlmc1NCd2dBZHdZMzVIWmNHRFd3cmJFVFQ5Z2NIWTNENVo0eU1qd1grLy9ZNy9BeCBZVjd6TUhWcWtpUzBXcTMrYThxaFJjRjRVQ0tSRnhNS0NEekl5MzdBYXZjd3hQWTFxMy9Xc08zcjR3dXI5eEhCOG01QUFBQ0R4eVZKIDRvMU5SSkNiczBaQXh5SUtjakNpcHU4MHZhYTlzWXN4eGxscmZRUTIvaXc4RnE1R1lPeGtXZWEwMXI2UWFOdDBvdDl4TkU4WjdLdXAgaE9mWlIrSUQzWEowL0R0WCtGaHVHL3UvQUVUSDdkMmVIRkhkSXI1dHNkYTZMTXV1bnBSaGVROUFPNzU5Ky9iWEwxKysvTDN2ZW9CVyBRQUFBZytkZ2RkMUdDNkNVOHNKQzRONENBQUFBQXNEZG1WczY0THZBcVRyWk1PK2NoVEFSK2YwcG9wMUJIbHRCQXdBQUFGMWcrNjdBIDJHRnJlMzdOZjlzWXEwaERwalpDQXdBQUFCQUxhQUFBQUFDQUdRSUJBQUFBQUpnaEVBQUFBQUNBR1FJQkFBQUFBSmdoRUFBQUFBQ0EgR1FJQkFBQUFBSmdoRUFBQUFBQ0FHUUlCSUNMbmt2S0V4OHJVdlBMN0FBQUFyaDhUZVd6bExLclhKSUdhQXhBQUFBQUFnQmtDQVFBQSBBQUNZSVJBQUFBQUFnQmtDQVFBQUFBQ1lJUkFBQUFBQWdCa0NBUUFBQUFDWUlSQUFBQUFBZ0JrQ0FRQUFBQUNZSVJBQUFBQUFnQmtDIEFRQUFBQUNZSVJBQUFBQUFnQmtDQVFBQUFBQ1lJUkFBQUFEZ1NwUlNqb2ljTWNZUmtTd0FEQjRJQU9Bb1BMZ2xTZUtTSkhGRTVQYWYgQVRCcjhqeDNST1NjYzVRa2ljL29TVVJrclNWckxRUUJBS1lPVDVKRTVMVFc0U3JnYUduNjNvQW0xN2IxQjJCdStQNnF0WFpabHRYNiB2WHo5NmRPblA0aklQVHc4b0s5Y1IyMmNsSzh2TFJpdndGMDQxdm5ibFBENC9mdmVXSzFXcmE4aE9BNkFPWEJSSDBjZnVSbW5sSW94IDhidTlSZ1lFWUF2Z0RpaWxydnFlYy8yMVVhV1VlMzE5cFNSSldoMWZWUlZaYXluUGN5SU1jR0FHV0d1cHFxcFd4eXFsZkIvWmd6NXkgQmJlT2lmejl0czl0YmtBQWlBZzN0cllDZ0hQdWFtRWhOc1lZY3M3UmVyMG1ZOHpaNDVWU1ZCUUZ2YisvZDFBN0FIckhGVVVoSi9TVCA4SEZsV2NyUElBUjBoREdHbEZKK2ZCM0tPRHMwSUFEY1NDd0p0V2NjRWRHWEwxLytnNmlkdE13ZGFyVmFFWkhmQ2dGZ2NpaWxYSlpsIFJFUlVGRVhONE84WVJWRVEwYTUvNzQwQy9XZmcvdkM0MnVaWkFYQUxmcDhxTU9hN3lCQ1ErclVCOEhWb2NHYzZXdmhZOWhEb28rSUEgZE1EVis5QnlYTkJhdThmSFIvU1Q5cHdjTDlzVS9nNk1BSnVCZUJRSnFXSnFzNm9ma0dUcXBNcS9MTXRXV3dCcG1sSlpsbVN0cGUxMiA2ODkxbnlvQzBDOXNHOU9tYjhqam5ITytyMWRWUmV2MStqNFZCSTFBOVgrYXdjeENZOGM1ZDVFTlFKT1EwTmQyQUtzM2lYWXFmYmx2IGVZek5aa05abHRVR3hEUk43MUkvQVBxbUtBcks4N3kxZ0N6M24xa0FNTWEwRmlEQWJmRDk1M3Mvb0FVWG1CZ0g2cVkycmtMU3ZVVnIgTGRWYm5jSjFGWUZMTG5ablhDd1dmVzloQUhCUHJ0b2l5N0xzMkxnQTJ0RzBSWHBSR1dDTWxVRUIvY2lOS0tXY1hQbXpaWCtiMWZ5UiA0enA5Smx4L1daZTI5U2ZhU2Rac05Mai9IdG9VbUJxMXpuQkovd2hCSDdtSXErODdIOHZqMC80djduc0E5Q0lBQUFEQURJRUFBQUFBIEFNd1FDQUFBQUFEQURJRUFBQUFBQU13UUNBQUFBQURBRElFQUFBQUFBTXdRQ0FBQUFBREFESUVBQUFBQUFNd1FDQUFBQUFEQURJRUEgQUFBQUFNd1FDQUFBQUFEQURJRUFBQUFBQU13UUNBQUFBQURBRElFQUFBQUFBTXdRQ0FBQUFBREFESUVBRUJHbGR1bW0yK1NzbHJtdCB0ZGExNy9jQjE2VnR6dTJtYTcwMlJ6b0FRMGIyeTB0ejBqZTlCdTI1OXI3eE02cXFxdlllMUlFQUFBQUFBTXdRQ0FBQUFBREFESUVBIEFBQUFBTXdRQ0FBQUFBREFESUVBQUFBQUFNd1FDQUFBQUFEQURJRUFBQUFBQU13UUNBQUFBQURBRElFQUFBQUFBTXdRQ0FBQUFBREEgRElFQUFBQUFBTXdRQ0FBQUFBREFESUVBQUFBQUFNd1FDQUFBQUFEQURJRUFBQUFBQU13UUNBQTNja3UrYXExM3Q1OXpWbzhwWjNpWSA2M3hNZFFmZ0VtUXVlZWRjNjdiTzMxTksrYjZPdlBUdFVVcjUrMjJ0dmVyZVdXdUpDUGY5R0JBQTdzQXRRa0hYaEwvWnRnNThqYzY1IDJrQUh3QlRSV2w4dDZHTHl1UTYrYjg0NUtvcUNpSGJQZ1lXcFV4aGo3bHEzcVFBQklDS1hUb1NYckNidXphMzF3Q0FIcG95Y2pLNXAgNitnZmwyT3RQWmpzblhOZVkzb0tQcWFxS21nb1R3QUI0RVp1N2RoakhSaXc2Z2R6NHBxSkgzM2pOdmllRzJNdVZ1V0gyemFnR1FnQSBOOEtyZUNsbFh0dmcraGd3cnExemFMZUF3UTVNR2RuSDBkYTdvU3pMeGhWL1cvVytNZWJtTVhucVFBQ0loQndVMmpTMk52dFlmWEZ0IDNkREp3RlRoMVNqYWVIZklWWDlabHY3elM4WW5IcGY1WEtET2NHZWhrWEdwTVZ6VFFOS25FZUNsQWt6VGViQXlBblBnVWtOWmNCMXMgL2MvZUFFUzd5WCs3M2JiNmZsbVdYbkRBczJnR0FrQUV3cFhCcFkyTkxZejdYRjNFOEZ4QUp3TlRwYTMxK1NuUVB5NWp1OTNXeGxacCBDM0FPM2liZzc3WVZHdVlHQklBYmFlclViU1p5ZVV4VlZiMU4vakh0RnFBZUJWT2xxcXFMNDNYSXZXdnU0eEFDenBQbnVTTWlSMFExIDFYOVpsclRaYkZxZG95eExTcExFdjkrL2RzdmxFb09VQUFJQUFBQ0FJZUNNTVk1OS9tOCttVmlRc09iZzlmV1ZIaDhmM1dxMWdpQkEgRUFBQUFBRDB5UFB6c3lNaXA3V21zaXpwSGdMQWVyMzJXemkvZnYyaWw1Y1hJaUszMXpiTUZnZ0FBQUFBK3NMOS9QblR2MW10VnRGTyBYRlZWTGR5NmM0N1NOQ1ZyTFQwL1B4TVIwZnY3TzlGK3UyR09RQUFBQUFEUUtkWmFwN1YyUkI4eEZxcXFvcGVYbDJndWU1eHZoVzBCIE9LUndVUlQwOCtkUDBscVRNY2JiQjlBTUJRRUlBQUFBQURyREdPT2tkVDlIKzB2VGxJd3hVYllBZU5JdmlvTEtzcXdKR2ZLWXNpeHAgdTkzNjQrZG1KSWpvQ0FBQUFEb2h5ekszWHE5cm44bEpQMDNUbXVYL0xiQnJOVS82N0JySVd3T3lIbFZWa2JXV1AzTkVOQXQzRFdnQSBBQUFBM0IyZS9MTXNJNktQMkFveVdFOVJGRkZjSmJmYkxWbHJhNjZBVlZYNThNTDhteHd1bUkwUCtYT3R0ZnZ4NDhmbm15c3ljR1loIDVkd1RwWlNUMGZUWTE3ZU5UL3lSNHpwOUpseC9XWmRMZ2hKcHJXdiswYzQ1dENrd05XcWQ0WmFnWFRQdUkwNnV3SWNlTTBRODQway8gSzJnQUFBQUEzQTJsbFB2MDZkTi9jV2plb1UvK1JCK2h6ZmN1aXBNRkFnQUFBSUI3NGJUVzlLOS8vZXZmV1BYZk5wdGZuNlJwU3M0NSArdm56SnlWSk1sa2hBQUlBQUFDQTZLeFdLNWRsbVEvTHUxNnZSekg1RXhGdE5odEswNVNJZHA0RVV3MFlCQUVBQUFCQWROYnJOYTNYIGExb3VsejRnejNLNWpHYmxmMis0enM0NURoZzBPU0FBQUFBQWlFcVNKSzRvQ2xvc0Z2VDYra3BWVlZHU0pQVHIxNjlvZ1g3dWlUSEcgVC9yQ2syQnlXZ0FJQUFBQUFLTEM2WGZadjU4RDdoQ05JMnRvV1piMCtQaElSQi9Yc2xxdGFMRllETC95RndBQkFBQUFRRXljREw5TCA5SkVhbVcwQ2hvNHhobjc5K2tWRU81ZEFyVFc5dkx5MFRrYzhGaUFBUklRRFdGd2FBNEQzbXZyTUZYNXBESUNtYXgyRFpBL0FwY2grIGVVa01nUEI3YzhGYWU2QUJZTUlvZ01jSWpRVmxUSDlyclEvdHk0Rjh3dTlwclgzQUlTS2lQTTh2dWdZcHBIQTBRWDcyMXRySkRIUVEgQUFBQUFFVGgrZm5aeFlqbFgxVVZMWmZMMnZ2dGR1dkRCbk11QWZZd1lNcXlKR01NVlZWRjYvWGEvKy85L2QzYkhsenJpU0J6RjB3RiBDQUFBQUFDaUlGUDczb0p6amw1ZlgvMWtIZjYxMWxLYXB2VDgvRXdQRHcvL3NWZ3N5QmhEMWxweXp0SER3d01wcFdpNzNYb05hMUVVIE4rY2FrRW1NQUNDbEZLZVI1UFNXclVyVDkvYWY5VmIvc0Y1dDZ0OXdQQUNUUXJieHR2MGpQRGJvTDVQazY5ZXZmNk1MeDhGVFpiRlkgdUNSSjNPUGpvNk9kWGNFbDk4N1h3eGhUKzl1bXRIek9ZTzVBQUlBQUFLWU5CSURXWER3T0hpdEprdFR1WDVxbUY5KzNORTJkTWNaUCAvRm1XdFg2RzU0Nlp5blBFRmdBQUFJQW9KRW5pTGY1dmdSTUdQVDgvRXhHcHpXWnpzUlhsWnJOUlpWa3FWdm16Qlg4Ymc4eHphbjdlIFZoZzcwN2dLQUFBQXZSTXIxQzliK2IrOXZVVTVIZEZ1VWsvVE5KcUFzbHF0UnE4RmdBQUFBQURnVmh6UitaVno2NVB0amUydVdmazMgd2F2K3pXWVRaZld1bEtLWGw1ZWJ6OU0zRUFBQUFBRGNqTlk2V3FDY3ZkbytXdkFFNTV3aTJua1B4TklBVEFFSUFBQUFBRzZHOSsySCBURm1XVVlJeVRTV3dFd1FBQUFBQVVZZzFNY3JnUGhGUnNRUVVDQUFBQUFBQWZjVExqelV4YnJmYnU4eXdTWklNWGt2UkpSQUFBQUFBIDNNUllWc1N4dkJTbUlrUkFBQUFBQUhBVGJCUTNkT080OS9mM0tOc0xFQUFBQUFDQUVhRzE5cGtLYjRXVEM0MFpDQUFBQUFCdVpnaHAgemM4UmF3dUFhQnJSQU1kL0JUMXpiV04zenZrR3hHcXpQanFPYzY3MnU3SmViYjgvaG80UHdMVklkVy9ZWDlwOGp3M2t3bk5OamFJbyBTR3M5Nkd1TXVVVVJLK1pCbjBBQXVBTzNDQVZkSXlYaVVDQTVSM2lkRUFEQVZHRUw5MnZhK0pBbnhKaU1vZi9IZWhZeFBSNzZCQUpBIFJLVEUzL2I0dmh1UlhPMHJwUzVTa2ZHeGZWOERBUGVHKy9hMStlRG5JQVE0NXdadkJCaHpySnJDTTRVQWNDTzNOb0srRzFGWmxyWEIgclMxTnh3Njk4d053TGRkTS9CQ01oMG1NNXpLVnNXNzhab3c5STFmeFNxbXJWd2p5KzEwaUcvS2xqYnB2NFFXQXJnZ25EYlQ5WnRnRyBZS2ozaDFNRGd4M1FBRVFpTktRN3gxQXNTS1h3d3JTdEd3c01mTDFEdVNZQVlzT1QybEFudHFFd2huc0V6Y3dIR0xFaklSdCttd2JXIDFFbjY2RGlyMWNyLzlpVVRlSk8ySXN1eXFIVURZSWkwN2Fkem5HaUdQdmtUWWFFaXdaMklRQ2oxWHRyeDJhSzBqODd6Ky9kdnhmVzkgeEFCUWRpS3VkNXFtY1NzSHdFRFFXdDg4Y2N4UklCZ2lNY2JabVBFRStnUXQ4a2FVVWs2dS9Oa21vRTBqTzNKYzU4OUVhKzIwMXQ2UCB0Nm9xTXNZMFd2V3lzRktXSlZscnFTZ0tJdHBOL3B2TkJ1MEpUSkZhSjcxRldOOS9kNHI5SlBicTVWNzN5RVZlYkkzNldVSURBS2lxIEtzVVRlVlZWdEZnc3FDeExQL2tiWTd6RVcxV1Z6NmxkRkFVdGwwdFNTdEduVDUrKzlIWUJBQUFBTG1iVTBzc1FtSUlHWUk5YkxCYjAgOXZaR1JMc1ZmVlZWZm9YUFdHdEphMDFKa3RETHl3dGxXVWJyOVpvSWJRbE1GMmdBemdNTndBZ1pkZVdId0lRRUFDSWlaNjJscXFwYSB1UVNLeUlGb1IyREtRQUE0RHdTQUVZSTRBRURDV3dIdW1EOHZoME5Oa29UVzYvV29HejhBQU13WkNBQ2dDVlZWbFNPcXg3eG1vMERuIEhDWi9BQUFZT1JBQXdERVUwWFJDWGdJQUFLZ0RMd0FBQUFCZ2hrQUFBQUFBQUdZSUJBQUFBQUJnaGtBQUFBQUFBR1lJQkFBQUFBQmcgaGtBQUFBQUFBR1lJQkFBQUFBQmdoa0FBQUFBQUFHWUlCQUFBQUFCZ2hrQUF1QkhuSEtWcFNodzcvOUx2Y21ZOUFNQndVVXFSdGRhLyBia09hcHY1NC9uN2I3NDZWTVZ4ZmpFUkFZN2pPTmtBQWlNQm1zL0VoYzlzS0FweFd0Nm9xMm02M1JFUVFCQUFZS000NUx3QndGc3h6IDhKakEyZWVLb2tCb2JUQW9JQURjaUJ3TWpERmtqR24xdmFJb3lEbEh4aGgvRGhZRUFBREQ0LzM5blZhckZlMHpacDdFR09PUGF6c20gQU5BMUVBQnVSQW9BbkMydkRkWmFjczVSV1pha2xLTGxjamtadFJJQVV5SkpFbG9zRmtSRTlQTHkwa29EMERRT0dHUFF4OEdnZ0FCdyBJMFZSK0pTNVZWVlJXWllYZlk4RmdkZlgxeWg3VXdDQXVHeTNXOSt2c3l4ckplUnpYOVphKys4bVNZSStEZ1lGQklBSWhQditiVllJIHZQL1BXd0hMNVpML2hSRUNnT0hnbHNzbGJUWWJNc2I0djIzZzFUNExETmovQjBNREFrQUV1S096dFcrYmpzNWFBNkxkYXVIOS9aMnkgTENNaW9qUk5uVEVHZ2dBQS9lR0l5Q1ZKUXErdnI2UzFKbU9NMzdacml4d0xMdmtlQUYwQUFlQkc1TDZlbk5UUHdTdi9KRW04MExCZSByNGxvTjFEc3RRZ1FBZ0RvR0syMVl4ZSs3WGJydFhXYnpjYTc5cDJETGY4Wll3eFZWUVViQURBb0lBRGNTRm1XM3ByL0dnbC91OTBlIDdBdVdaU25kQ3AxU0NvSUFBUGZIcFducWVMSm41Q3BlZm43eVJNSUdnR2pYcDVmTEpXd0F3S0NBQUhBN2FydmQxdmI3MnE0U1RsR1cgSlMwV0M2cXFpcHh6dEZnc0hFRWpBRUJVUG4vKy9BL2FxL3VKMmsvdzU1Q2FQYUtkMTgvTHl3c1JFVlFBQUV3TVJ6dGpJUjVJb2hSNSBQbXV0ZjUwa2lkTmFReGdBNEhvY0VUbWwxRUhmb29oOU9Nc3k3cXY4TzFQRjMwK0tjKy91V3M5Ymk3ak9VUU1OUUFRNFF0ajcrenNSIHhRa1RhYTJsMTlkWEh5T2dLQXJLc293ZUh4OXB1OTFTVlZVVURGWUFnQlBzRFd1ZHRkWnhXRjQyN0dOaUJlTmkxYitNRFlKSW53Qk0gbEN6TDJITGZTL3kzbERSTmo2NUtqREcxMzFndWwxNGlmWHg4aERBQXdCN3VPMm1hdWl6TEdsZW8xdHBhMzQyaHlaT2FCYTIxeS9OOCA2djBTR2dBd2ExeVdaYkVhdjUvbzVmc3N5N3d3b0xVK0VBeFlLT0MvZTdzQkFHYkZxUWxjS2VXRmEyTk1UZjBmdS9CNElNYUZLUU1CIFlJVEFJQ1V1am1nWExZeGQrbTdGR0VOSmt2anRCZjVNZWh4d1BvRmo2a3ZPT0tpMXByZTNOenh6TUNtVVVvNkRjWEVoMnZVTGE2M3YgaTNtZWsxS0szdDdlYXQ4UCt3KzcvZDBDSi9zU1JvVlQ3M2VPNk5EOThRYnVkYi9pVk83ak9xZitYTUVGSEt6YWJ5bHloYSsxcnExVyB0TmExMzVLU2Q1cW0vdjloZmVUN0dhZ2x3VFE1NkNQYy9wVlN6aGhUMjBKTDA3VFdQNlF0Z0R6WFhwQ0kyb2V0dGJ5bE1IV2dBUUNBIFJDTkowOVFQVUhLd2lkaEpyaTY4VGFDVUNyY1NBQmdhalJOMjMwVUtDZzhQRDdWK3ovK2IwVGJjS0FRQWEyMjBPaUkrQ3poR2JYRGcgeWZicDZXa3dnNWpzQkdHSGtBTEJqQVl3TUFEMldxa0RiWmMwZW8xaFpIdHJrWDFrYjNoNzBKOG03dllYNHA5TnBBbjJydlc4dFNpbCBKaUVBWVAvaVRpaWxITytGUFQ0KzB1L2Z2d2NkQmN4YVM5WmFuL2tzU1JJZnJyaUovUjRZMmcrNENvNjR4NUUwR1prZmd3bjM1Tk0wIGpSYXc1eGF5TEdPN0dtSzN3alJOT2VBUDBiekcxOWlEMjEzdW5SeVhZNTB5NXNuQWhCRFIrM3haclZiUmc0MWNXMEozUW1sbmNFeVMgdDlaNnEyYTVNbU9MNmp6UDNaY3ZYLzUrai9zSnhrZlRmbnFiRldLZTUxNkxab3lSd2E4R1Y0NTQvOHlLTzJ4cjNvVTd0S0ZSQStubCB6bVJaNXNxeUpLVlV0Q0FqTWVGQUtNZXNuam5JVWJoU1l5dm5wbHdHdkdMVFdwUFdtb3FpOFA5N2VIaWczNzkvbzkxTmhLZW5KL2ZuIG4zOFNFZm1NZVJ3Q2w1Kzd0ZllnaTE3WTdqaVRKalAwMUxuc1djTWVCdXo1czFnczV1cHA0NGd1eTRoNmhrRjdBUWl2a3prK2EzQUogcTlYS1M0eEI3UEhlaXBTRWVmWE8rMXJXV3Bja3ljRktqVmRpVFhZTVNaSzRKRWtPTExDSlBxeXJ4YjZaSTlwcEU2U2hKQis3Znc5NiA1T3ZYcjM5N2ZIejBIaVVVUE84Mmx2TDgzRW0wa1dQbkN6Vk8zSmFhamd2YlZ4K0Y2OW9RYzJDdUhOeWJHOHZkNmhsREN3QXZBSEFSIFVrMDRCQytBeFdMUnVpT3dhMVI0dkRIR1gwdjR2OUQxcW0wSjNiQ2FmamVzQTZJZnR1UExseTkvYnhMZTJIVk8zdWNtYTJucEpzZGwgSDFiWFI5T1RCbkRoQkM0bitWTVRmRk1kandtbFF5bFBUMCt6Ym9OajJRSWdpdXVxZmNkNmRnTFVGOTNqcmswZGZBKzAxalgxYTFWViBOYlVzcS9OWnphK1U4c2FDeDY3RFd1dlZ2M3grZVE0K1JtNHJOQmwveVhxRng0WEhOcjNuNDhQUHVkNXN0TVVHa0VtUy9Qdi8rVC8vIDUvODllOU02NXR1M2IzOHRpdUovYnphYmYzdC9mL2ZiSzZHYVZWNXIwN09SL3o4VzdJYWZsL3d1UHdjWlpPY1U4dHhhYTk4ZStETnAgeEJkUlpkdzU0anBuUDQ2T3lMZ3U5cVE5Nm1jLzZzcVBsUjgvZm56KzV6Ly8rVDlwbXRZR3hxWkIyUmhEUk9RbnJMRU9sZ0FNQ2RuWCBXS2d0eTdMV0Y0bm9RT2lSRVFjSjQ2ZkVFVVdOZ25xWGU3dGNMdDNyNit2TjU1bEtKRUJrQSt5QmYvN3puLzhmRWFuRllrRlZWZEhqIDR5TVpZNmlxS2grdU5NOXpJdHBOL0x3YTQ0R0hCeWNBd0hWVVZVV0x4WUx5UENmbm5EZlFaYU5YcWJWSzA5Um44dHRuNFNRYStjQi8gTDlicnRWKzBESkVZa3ovUmJpek9zaXpLdWZvRWpYZ1lPS0pkclBMMzkvZWpLbGYyTlI2aU53RUFZNFVuZCs1WHZFWEIvWkdQMldzSSBNR1kySUxjQTVCYmd0ZXkzc081eHI5MXl1WXdpQ095MUhhTnVEMWhLRGdORlJJclZqK3dlNVp3all3eWxhVXBFUkVWUlVGRVVnNWF3IEFSZ0RTWkw0MWY1MnU2WHRka3ZXV2pMRzBHYXpJZjMvdDNmdXlhbmJVQmcvd3BZZjRBU0daQWRkVTlkeXU0UnU0WFp2N1FJeWsybVMgeVF2TW9QNXgvYm5IUXVZUlRERG0rODFvUXV6WTJFUkk4bmw4WnpTcUYrUHorZnl2c2l3TkovOTJzSWp5MDM2L3lvbGlwTnp0N1cxbiBWb0N1Q3I2ZEUzYm9ubUt0ZFNFbHZpNHFsUkZDcE5hcDBJR3ZIaHdmOTZmckdBQ1JqajkvVkkzc1luR2hBbGt2dW8vUUF0QlR5ckkwIFdtUUMvaWJsZ3lTRUhBSEVpdUJhRXhHWnpXYi9TR1dSTyt2RlhSaUlTMW9zRnAzRUtGVld6eTRqOWgwQ1BZdWlPUHBrZlpDaTdnSXUgQVBxUEVSRlRGTVVmMWxySnNvd3hBSVFjU1JSRnRRdGd1VnhDMGMwOFBUMzlkdDRydTB5MGU2UUxGeVVXWnRMTklzQVZSU0ZsV1VxVyBaZkw2K3RyQktVVmtBSXZFaTcrQksrYmlSU2dJT1RNYy96b2t6M09Id2toZHhBRjRjdEZmK2wvZDNkMzllSHg4L0JPL2QrVkNIVUlBIG9BaS9BRVBCaFVSZ29NME9pNEd2SXhBUytoSDVQNHJYMS9MWElqRnRlZEk0YjU4ckg1TFRvL3VBTHpTRmJXQmJYd24xSld3Ymo4ZXkgWEM0Yi9YTzlYamZFbzZJb3FtdFc0UEF1N285c0VrV1I2enA0TDAxVFdHaEVEdnpmSWVkZkwwaXN0UWRaVUt2YURtMExCL1lsMGk5bSBzOW5mSXMxNjZrbVNOQ3FXaGJUVWZRbmViVksrSVlsWFh3cVc3Ym9iS2tXMjlZZVFyTFNXQi9ZclprS3VPSFN1SkVrYW12ejYzTlYyIDhrM29DcUhIdERSTkcvOXZqR2QzZDNjLzlybU9TaDdjaWZ5U1BjZnJmV1dBOVgzb24raG4xZlVRMG05Q3V1cG9HRlRqT042cHQ1OGsgeWNhaW91MFlMZ0xZMEhRZENUVDB0MzM2aVY5QUN1Y2NqOGZCNDFtSyt1eDAybmZ3T2xSYVhlVFhRc0V2SnViWHRORGoxcUdMRXh4ciBqS2tmbklaVXJJd21qQ3RqTXBtNHQ3ZTMxdjB3bVVKeFVDc1Job0FiUVVTMmxoVW0xOFUrYmlCalRLMkFxZnNONmdmb1V0T2gwdElpIExDL2RRMXhYTGtCZm9DbE5VekhHeUdLeHFQdUhSc3MwSThoenRWcHQxTFU0NU5vbWs0bTh2YjNWWmE1WHF4WE9NWWcrTjRpYklNY3ggblU3ZDgvTno2MzVkMEFlRGRsbVdyRTFBV2xIS2VmVTJUT0p0YXBaK1hBQ0VlWkJYWHZsak9XYjFuMDZla0hYUktGM2NDb3RHUEtRayBTU0psV1c0OHFHaS9mWklrZGRybnZ1QTk5WHRYQ3dMMlFUSnM1dlA1VC9qTGZQTy9iMUtERzhGYTY5STBiVFhYc1YxblF4L1JKbnYvIGRaSWtmbXdLdVZDNmNBRnFzNzd2Ymd5NWhkRGlPRzdFTzZINUpjWjN2YjhlTHE5TUJRQUFBeTVKUkVGVTQ3SXM4L2NQQnE1a3lFRmsgV2VZK1B6ODNvbUlaK1U5Q3RGVzRSSFhMUE0vbC9mMmQ0OUR3T0dvd3dOTy96bVFhalVaU0ZJVzh2THcwbnNyUngrQ0t4R3RZbEh3WCBRTWg5NEFQM1FSekg0cHlyemY4eXNEbHpVRGREemdla2kySG1wVmpSZGVPVnpjV0F6dkhtZWpqNmFVQ1hTN2ZXQ3FUUjlRSVNyLzBVIGFLRGRCZHFQL3hXRzVQc241RnNaajhjTnMxckloS2UzSVVvYzI3NWlWdFJtNTdiWGJXM1gvbDFwYm0zbjFQZWt6WnI3UkNmaldCMVogdit0elBPUzZ0RHNIMjBQWEJST3F2cGZLN0VxSXB1SFdtVXdtYmx0VzBuYzI3UWF3MXRiOTNFK1I5dHlaaEpCVGtPZDVQYW1HZkhSSSBXZFNUdUo2RS9VblB6eHZmTmNIcWxFZy9CMzNYZnIwUHZteHJyYlBXYmsyeDNMWUF3TEg3TGxaMkxRZ3dtZXZQZDF0dWZacW1qY0c2IEtBb09nT1FySURXejd1ZDlTUlAydFFaMDA5dHZibTdZL3ducEM3ZTN0M3Q5d2ZWQUUwWFJ4b0pnMjJDMGJVTEY4Vjk1MG01YjRDQmYgZVRRYUJSY2dlRS9jUjVabGpTY1gvVGUrcFNXME9ETEd1T3B6Sk9Sa2FFRWVmRy8zRmVNNWRkUFhrYVpwclMxaGpLbS9RMG9RYlpEUSBuMEd1aWpSTm5WK3VGT21NQ0JvSytRbjl2L0VEaS96OThFbnFuenBJMHZkSCtrR1UwRUVQSGV2ZGoweW4wL25EdzhPL0IzNFVoSHdYIExzc3krZno4UFBkMTFQamZOLzkzQkJZT1JmT2ZFRUlJT1JmMUUzY2Ywb1JoWmN1eWJNTVY1OFVwREJxV0F5YUVFSEpxakRGR3JMWHkgOGZGeDdtdHBXUGp3NUQrWlRNUTVWNnY5Q1Mza2hCQkNTRGNnUUZaNjVQOFhhUWJoTXVDUEVFSUlPUUY5Q1FMVURXNko2aWNoaEJCQyBUc0g5L2YzdkljbmVOdTJKVVBOMU5YVHo4L3o5L2NqMzEzbi9WU24xcTRJK0RrSUlJZWZDRlVVaHkrVlNsc3RsUStYUHo0clJWVWREIFdUcllCNnkxWW95cEN3ckZjYndSZzRCc20vVjZ6Ym1RRUVJSU9RTjEvajBzQS9nOTVESklrbVJqZTV2S0puTDh4Yk1RV0d2ZGREcTkgYXBNL1Z6MkVFRUw2Z2hOcDV1WHJNdExWMDNxd3pEVDJ0ZFVGd1BGUkZFbWU1L0w2K3NyNWp4QkNDT2tUdTFRMjh6eDNhWnB1eEFzWSBZeG8rL3lpS3FPZS9CYTZBQ0NHRTlCWmpqSFBPU1J6SGRabGVyYUNwWXdPMDFVQTkvWE9lSTRRUVFvYkNmRDcvQ1V0QkZjMVBEdVEvIEt5UEdTVFpQRmJJQUFBQUFTVVZPUks1Q1lJST0gIiBpZD0iaW1hZ2UxMDIyIiB4PSItMTI0Ljg4MzMzIiB5PSIyODIuNDg1NzIiLz4mI3hhOyAgICA8L2c+JiN4YTsgICAgPGcgaWQ9Imc0MDI4IiB0cmFuc2Zvcm09Im1hdHJpeCgxLjEyNjE2MjQsMCwwLDEuMTI2MTYyNCwtMC41ODUwMjI3OCwtMzUuOTMyMzQ5KSI+JiN4YTsgICAgICA8ZWxsaXBzZSByeT0iNC41MDY1ODg1IiByeD0iNC41MDg0OTI5IiBjeT0iMjg2LjU3MzY3IiBjeD0iMTAuMTgyMzciIGlkPSJwYXRoMzk4NiIgc3R5bGU9Im9wYWNpdHk6MC45MzAwMDAzNDt2ZWN0b3ItZWZmZWN0Om5vbmU7ZmlsbDojMTQ3ZDkyO2ZpbGwtb3BhY2l0eToxO2ZpbGwtcnVsZTpldmVub2RkO3N0cm9rZTpub25lO3N0cm9rZS13aWR0aDoyLjc5Mjk4OTAyO3N0cm9rZS1saW5lY2FwOmJ1dHQ7c3Ryb2tlLWxpbmVqb2luOm1pdGVyO3N0cm9rZS1taXRlcmxpbWl0OjQ7c3Ryb2tlLWRhc2hhcnJheTpub25lO3N0cm9rZS1kYXNob2Zmc2V0OjA7c3Ryb2tlLW9wYWNpdHk6MTtwYWludC1vcmRlcjptYXJrZXJzIHN0cm9rZSBmaWxsIi8+JiN4YTsgICAgICA8ZWxsaXBzZSByeT0iMS4yMTYwNTY3IiByeD0iMS4xNDY3NTUyIiBjeT0iMjgwLjQ0OTU1IiBjeD0iMTAuMTM3MTEzIiBpZD0icGF0aDM4NjEtMCIgc3R5bGU9Im9wYWNpdHk6MC45MzAwMDAzNDt2ZWN0b3ItZWZmZWN0Om5vbmU7ZmlsbDojZmU4OTU0O2ZpbGwtb3BhY2l0eToxO2ZpbGwtcnVsZTpldmVub2RkO3N0cm9rZTpub25lO3N0cm9rZS13aWR0aDoyLjg2NTAwMDAxO3N0cm9rZS1saW5lY2FwOmJ1dHQ7c3Ryb2tlLWxpbmVqb2luOm1pdGVyO3N0cm9rZS1taXRlcmxpbWl0OjQ7c3Ryb2tlLWRhc2hhcnJheTpub25lO3N0cm9rZS1kYXNob2Zmc2V0OjA7c3Ryb2tlLW9wYWNpdHk6MTtwYWludC1vcmRlcjptYXJrZXJzIHN0cm9rZSBmaWxsIi8+JiN4YTsgICAgICA8cGF0aCBzb2RpcG9kaTpub2RldHlwZXM9ImNjY2MiIGlua3NjYXBlOmNvbm5lY3Rvci1jdXJ2YXR1cmU9IjAiIGlkPSJwYXRoMjY0OCIgZD0ibSA4Ljc5NTQ2ODksMjc4Ljg0NjE1IC0wLjAxNTQ5NywwLjg1MTExIGMgMS40MTY3NjUxLDAuOTIyNTUgMi43NTAxODQxLDAuMDQ2NSAyLjc1MDE4NDEsMC4wNDY1IGwgLTAuMDAxOCwtMC45MTMwOCIgc3R5bGU9ImZpbGw6IzA0MDMwMjtmaWxsLW9wYWNpdHk6MTtzdHJva2U6IzA0MDQwNDtzdHJva2Utd2lkdGg6MC4yMzE3MjU5O3N0cm9rZS1saW5lY2FwOmJ1dHQ7c3Ryb2tlLWxpbmVqb2luOm1pdGVyO3N0cm9rZS1taXRlcmxpbWl0OjQ7c3Ryb2tlLWRhc2hhcnJheTpub25lO3N0cm9rZS1vcGFjaXR5OjEiLz4mI3hhOyAgICAgIDxwYXRoIGlua3NjYXBlOmNvbm5lY3Rvci1jdXJ2YXR1cmU9IjAiIGlkPSJwYXRoMjY1MiIgZD0ibSAxMi4wOTUwMiwyNzguNTY4MTYgYyAwLjAxMTY1LDEuMTgyMzcgMC4wMTE2NSwxLjE4MjM3IDAuMDExNjUsMS4xODIzNyIgc3R5bGU9ImZpbGw6bm9uZTtzdHJva2U6IzA0MDQwNDtzdHJva2Utd2lkdGg6MC4yMzE3MjU5O3N0cm9rZS1saW5lY2FwOmJ1dHQ7c3Ryb2tlLWxpbmVqb2luOm1pdGVyO3N0cm9rZS1taXRlcmxpbWl0OjQ7c3Ryb2tlLWRhc2hhcnJheTpub25lO3N0cm9rZS1vcGFjaXR5OjEiLz4mI3hhOyAgICAgIDxwYXRoIHNvZGlwb2RpOm5vZGV0eXBlcz0iY2NjY2NjYyIgaW5rc2NhcGU6Y29ubmVjdG9yLWN1cnZhdHVyZT0iMCIgaWQ9InBhdGgyNjU4IiBkPSJtIDguMTM1MDk0NiwyNzguNTA4MDEgMi4wNDQxOTE0LC0wLjgxMDA1IDIuMDQyNzc4LDAuODExMDUgLTAuMDExNjUsMC4wMDYgLTIuMDQwNzgsMC44MzMzNSB2IDAgeiIgc3R5bGU9ImZpbGw6IzBkMGEwNztmaWxsLW9wYWNpdHk6MTtzdHJva2U6IzA0MDQwNDtzdHJva2Utd2lkdGg6MC4yMzE3MjU5O3N0cm9rZS1saW5lY2FwOmJ1dHQ7c3Ryb2tlLWxpbmVqb2luOm1pdGVyO3N0cm9rZS1taXRlcmxpbWl0OjQ7c3Ryb2tlLWRhc2hhcnJheTpub25lO3N0cm9rZS1vcGFjaXR5OjEiLz4mI3hhOyAgICAgIDxwYXRoIHNvZGlwb2RpOm5vZGV0eXBlcz0iY2MiIGlua3NjYXBlOmNvbm5lY3Rvci1jdXJ2YXR1cmU9IjAiIGlkPSJwYXRoMzkxMy02LTktMy01IiBkPSJtIDkuMTU3MDI3MSwyOTAuMTc0NTUgYyAtMC4xNjk2NywyLjI0NTk4IDIuMTI2MjE1OSwyLjM4ODQ0IDIuMDYyNzgwOSwwLjAyMjciIHN0eWxlPSJmaWxsOm5vbmU7c3Ryb2tlOiNmZjhjNTc7c3Ryb2tlLXdpZHRoOjAuNjY1MDAwMDI7c3Ryb2tlLWxpbmVjYXA6cm91bmQ7c3Ryb2tlLWxpbmVqb2luOm1pdGVyO3N0cm9rZS1taXRlcmxpbWl0OjQ7c3Ryb2tlLWRhc2hhcnJheTpub25lO3N0cm9rZS1vcGFjaXR5OjEiLz4mI3hhOyAgICAgIDxnIHRyYW5zZm9ybT0ibWF0cml4KDAuMjU0MTg2NTksMCwwLDAuMjU0MTg2NTksOC4zNDY3MzEzLDIxOC44Mzc4NSkiIGlkPSJnMzA3NSI+JiN4YTsgICAgICAgIDxwYXRoIHN0eWxlPSJmaWxsOiNkYmEzN2I7ZmlsbC1vcGFjaXR5OjE7c3Ryb2tlOiMwMDAwMDA7c3Ryb2tlLXdpZHRoOjAuMjY0NTgzMzJweDtzdHJva2UtbGluZWNhcDpidXR0O3N0cm9rZS1saW5lam9pbjptaXRlcjtzdHJva2Utb3BhY2l0eToxIiBkPSJtIDIuMzY2ODg4LDI4Ni4zOTI4MyBjIC0xLjIyNzI3NTIsLTAuMTc1MzIgLTIuNDU0NTUwNTIsLTEuMDUxOTUgLTIuNDU0NTUwNTIsLTEuMDUxOTUgMCwwIC0xLjY2NTU4Nzg4LDAuODc2NjMgLTIuMDE2MjM3OTgsMy4xNTU4NiAtMC4zNTA2NTAxLDIuMjc5MjIgMS42NjU1ODc4OSw4Ljg1MzkxIDQuMzgzMTI2LDkuODE4MiAyLjcxNzUzODEsMC45NjQyOSA2LjY2MjM1MTUsMS42NjU1OSA4LjMyNzkzOTUsMC43MDEzIDEuNjY1NTg4LC0wLjk2NDI5IDMuOTQ0ODEzLC0zLjE1NTg1IDQuNjQ2MTEzLC01LjI1OTc1IDAuNzAxMzAxLC0yLjEwMzkgMi4xOTE1NjMsLTIuODkyODcgMi4yNzkyMjYsLTMuODU3MTUgMC4wODc2NiwtMC45NjQyOSAtMC4yNjI5ODgsLTMuMzMxMTggLTAuODc2NjI1LC0zLjc2OTQ5IC0wLjYxMzYzOCwtMC40MzgzMiAtMS4xMzk2MTMsMC43ODg5NiAtMS45Mjg1NzYsMC45NjQyOCAtMC43ODg5NjIsMC4xNzUzMyAtMS40MDI2LDAuNDM4MzIgLTEuNDAyNiwwLjQzODMyIDAsMCAxLjA1MTk1LDEuMTM5NjEgMS4wNTE5NSwxLjkyODU3IDAsMC43ODg5NyAtMC45NjQyODcsMi42Mjk4OCAtMS43NTMyNSwyLjg5Mjg3IC0wLjc4ODk2MywwLjI2Mjk4IC0yLjE0NDg5NywxLjE4MDYxIC02LjQ4NzAyNjYsMi4wMTYyMyAtNC4zNDIxMjk5LDAuODM1NjMgLTQuNTU4NDUxLC00LjU1ODQ1IC00LjQ3MDc4ODUsLTQuOTk2NzYgMC4wODc2NjIsLTAuNDM4MzEgMC43MDEzMDAxLC0yLjk4MDUzIDAuNzAxMzAwMSwtMi45ODA1MyB6IiBpZD0icGF0aDMwMjMiIGlua3NjYXBlOmNvbm5lY3Rvci1jdXJ2YXR1cmU9IjAiLz4mI3hhOyAgICAgICAgPHBhdGggc3R5bGU9ImZpbGw6I2JlNWMyMjtmaWxsLW9wYWNpdHk6MTtzdHJva2U6IzAwMDAwMDtzdHJva2Utd2lkdGg6MC4yNjQ1ODMzMnB4O3N0cm9rZS1saW5lY2FwOmJ1dHQ7c3Ryb2tlLWxpbmVqb2luOm1pdGVyO3N0cm9rZS1vcGFjaXR5OjEiIGQ9Im0gMi4zNjY4ODgsMjg2LjM5MjgzIGMgLTAuMzk0NDgxMywzLjE1NTg2IDAuMjYyOTg3Niw1LjA4NDQzIDIuMTAzOTAwNiw1LjM0NzQyIDEuODQwOTEyOSwwLjI2Mjk5IDIuOTgwNTI1NywwLjg3NjYyIDMuNzY5NDg4MywwLjM1MDY1IDAuNzg4OTYyNiwtMC41MjU5OCAzLjU5NDE2MzEsLTEuMzE0OTQgNC4wMzI0NzYxLC0yLjAxNjI0IDAuMjMxMjU4LC0wLjM3MDAxIDAuNTExMzIyLC0xLjA1NzI2IDAuNzI0MzE1LC0xLjYyMzk5IDAuMTkwNzAxLC0wLjUwNzQyIDAuMzI3NjM1LC0wLjkxODIyIDAuMzI3NjM1LC0wLjkxODIyIDIuMzcyMzI3LDMuNzg4NDkgLTEuMzk2ODc2LDUuMTgzODEgLTMuOTUxNzQ1Niw1Ljk3ODc4IC01LjU0MTg4NjgsMS43MjQ0MSAtNi4wODQxMTU1LDAuNDAyOTMgLTYuNzM2MjAxLC0wLjU3NzY1IC0xLjA3MzI2MzksLTEuNjEzOTMgLTEuNDU2NTA1NywtMi4xMDYwOCAtMC4yNjk4Njg0LC02LjU0MDc1IiBpZD0icGF0aDMwMjUiIGlua3NjYXBlOmNvbm5lY3Rvci1jdXJ2YXR1cmU9IjAiIHNvZGlwb2RpOm5vZGV0eXBlcz0iY3Njc3Njc3NjIi8+JiN4YTsgICAgICAgIDxwYXRoIHN0eWxlPSJmaWxsOiNlNmM3YTU7ZmlsbC1vcGFjaXR5OjE7c3Ryb2tlOiMwMDAwMDA7c3Ryb2tlLXdpZHRoOjAuMjY0NTgzMzJweDtzdHJva2UtbGluZWNhcDpidXR0O3N0cm9rZS1saW5lam9pbjptaXRlcjtzdHJva2Utb3BhY2l0eToxIiBkPSJtIDYuNDQzMTk1MiwyODIuNzExMDEgYyAtMS4xMzk2MTI4LDAuNDgyMTQgLTIuNjA3OTU5OCwwLjgxMDg4IC0zLjA5MDEwMzcsMS40NjgzNSAtMC40ODIxNDQxLDAuNjU3NDYgLTEuMzgwNjg1LDEuMjcxMDkgLTAuOTg2MjAzNSwyLjIxMzQ3IDAuMzk0NDgxNCwwLjk0MjM4IDAuNDM4MzEyNiwxLjI5MzAzIDEuMDczODY1OCwxLjY2NTU5IDAuNjM1NTUzNSwwLjM3MjU3IDAuOTIwNDU2NiwwLjY3OTM5IDIuMzY2ODg4MSwwLjcwMTMgMS40NDY0MzE2LDAuMDIxOSAxLjU5OTg0MSwwLjIxOTE2IDIuMjU3MzA5OSwwLjE3NTMzIDAuNjU3NDY4OSwtMC4wNDM4IDAuNzIzMjE1OCwwLjI4NDkgMS4yMjcyNzUzLC0wLjQzODMxIDAuNTA0MDU5NiwtMC43MjMyMiAwLjQxNjM5NzEsLTAuODEwODggMS4zNTg3Njg5LC0xLjA5NTc5IDAuOTQyMzcyLC0wLjI4NDkgMS4yMDUzNiwwLjAyMTkgMS4zMTQ5MzgsLTEuMDUxOTUgMC4xMDk1NzgsLTEuMDczODYgLTAuMjE5MTU2LC0xLjkyODU3IC0wLjcwMTMsLTIuMzY2ODggLTAuNDgyMTQ0LC0wLjQzODMyIC0xLjM4MDY4NDgsLTAuNzQ1MTQgLTIuMTI1ODE2MiwtMC45NjQyOSAtMC43NDUxMzE1LC0wLjIxOTE2IC0yLjY5NTYyMjYsLTAuMzA2ODIgLTIuNjk1NjIyNiwtMC4zMDY4MiB6IiBpZD0icGF0aDMwNDQiIGlua3NjYXBlOmNvbm5lY3Rvci1jdXJ2YXR1cmU9IjAiLz4mI3hhOyAgICAgICAgPHBhdGggc3R5bGU9ImZpbGw6I2Q5YTg3NTtmaWxsLW9wYWNpdHk6MTtzdHJva2U6IzAwMDAwMDtzdHJva2Utd2lkdGg6MC4yNjQ1ODMzMnB4O3N0cm9rZS1saW5lY2FwOmJ1dHQ7c3Ryb2tlLWxpbmVqb2luOm1pdGVyO3N0cm9rZS1vcGFjaXR5OjEiIGQ9Im0gNi4zNTU1MzI2LDI4My4zMjQ2NSBjIC0yLjE0NzczMTYsMS4yNDkxOSAtMy4yNDM1MTMsMS43MDk0MiAtMi44MDUyMDA1LDIuNzYxMzcgMC40MzgzMTI3LDEuMDUxOTUgMC43NjcwNDcxLDEuNzMxMzMgMi4zODg4MDM4LDEuNzc1MTYgMS42MjE3NTY0LDAuMDQzOCAyLjk4MDUyNTYsLTAuMTMxNDkgMy44NTcxNTA4LC0wLjcwMTMgMC44NzY2MjUzLC0wLjU2OTggMS42MjE3NTYzLC0wLjU2OTggMS4zMzY4NTMzLC0xLjQ5MDI2IC0wLjI4NDkwMywtMC45MjA0NiAtMC4wODc2NiwtMS40MjQ1MiAtMC45NDIzNzIsLTEuNzMxMzQgLTAuODU0NzA5NSwtMC4zMDY4MSAtMi43NjEzNjk0LC0wLjcyMzIxIC0zLjI0MzUxMzMsLTAuNjc5MzggLTAuNDgyMTQzOCwwLjA0MzggLTAuNjc5Mzg0NiwwLjEwOTU4IC0wLjY3OTM4NDYsMC4xMDk1OCIgaWQ9InBhdGgzMDQyIiBpbmtzY2FwZTpjb25uZWN0b3ItY3VydmF0dXJlPSIwIi8+JiN4YTsgICAgICAgIDxwYXRoIHN0eWxlPSJmaWxsOiNhZTY1MWU7ZmlsbC1vcGFjaXR5OjE7c3Ryb2tlOiMwZTBhMDI7c3Ryb2tlLXdpZHRoOjAuMjY0NTgzMzJweDtzdHJva2UtbGluZWNhcDpidXR0O3N0cm9rZS1saW5lam9pbjptaXRlcjtzdHJva2Utb3BhY2l0eToxIiBkPSJtIDIuMzY2ODg4LDI4Ni4zOTI4MyBjIC0wLjEzMTQ5MzcsMi4xNjk2NSAwLjAyMTkxNiw0LjAzMjQ4IDAuNTA0MDU5NCw0LjU1ODQ2IDAuNDgyMTQ0MSwwLjUyNTk3IDEuOTcyNDA2OCwwLjY1NzQ2IDIuMjM1Mzk0NSwwLjgxMDg3IDAuMjYyOTg3NiwwLjE1MzQxIDEuNTc3OTI1MiwwLjQ4MjE1IDIuMzg4ODAzNSwwLjU0Nzg5IDAuODEwODc4MywwLjA2NTggMC40ODIxNDM5LC0wLjIxOTE1IDEuMDUxOTUwMywtMC4zOTQ0OCAwLjU2OTgwNjQsLTAuMTc1MzIgMy4xMTIwMTkzLC0xLjIyNzI3IDMuMzUzMDkxMywtMS40MDI2IDAuMjQxMDcyLC0wLjE3NTMyIDAuNzIzMjE2LC0wLjk0MjM3IDAuODk4NTQxLC0xLjQ5MDI2IDAuMTc1MzI1LC0wLjU0Nzg5IDAuODc2NjI1LC0xLjE4MzQ0IDAuNTI1OTc1LC0xLjQ5MDI2IC0wLjM1MDY1LC0wLjMwNjgyIC0xLjQ0NjQzMiwtMi41NjQxMyAtMS40NDY0MzIsLTIuNTY0MTMgMCwwIDAuMjg0OTA0LDEuMjQ5MTkgMC4wNDM4MywxLjY4NzUgLTAuMjQxMDcyLDAuNDM4MzEgLTAuNzg4OTYzLDAuNjU3NDcgLTEuMjI3Mjc1LDAuNzg4OTcgLTAuNDM4MzEzLDAuMTMxNDkgLTEuMDUxOTUwNywwLjA4NzcgLTEuMjQ5MTkxNSwwLjU2OTggLTAuMTk3MjQwNSwwLjQ4MjE1IC0wLjMyODczNDQsMC44MzI4IC0wLjYzNTU1MzIsMC44NzY2MyAtMC4zMDY4MTg4LDAuMDQzOCAtMi4wMTYyMzgsLTAuMTk3MjQgLTIuNDEwNzE5MywtMC4xOTcyNCAtMC4zOTQ0ODEzLDAgLTEuNzc1MTY2LDAuMDY1NyAtMi4xMjU4MTYyLC0wLjE1MzQxIC0wLjM1MDY1MDEsLTAuMjE5MTYgLTEuMjcxMTA2NCwtMC41Njk4MSAtMS40MjQ1MTU4LC0xLjAwODEyIC0wLjE1MzQwOTQsLTAuNDM4MzIgLTAuNDgyMTQ0LC0xLjEzOTYyIC0wLjQ4MjE0NCwtMS4xMzk2MiB6IiBpZD0icGF0aDMwNDYiIGlua3NjYXBlOmNvbm5lY3Rvci1jdXJ2YXR1cmU9IjAiLz4mI3hhOyAgICAgICAgPHBhdGggc3R5bGU9ImZpbGw6bm9uZTtzdHJva2U6I2ZiZjJkYztzdHJva2Utd2lkdGg6MC40NjU7c3Ryb2tlLWxpbmVjYXA6cm91bmQ7c3Ryb2tlLWxpbmVqb2luOm1pdGVyO3N0cm9rZS1taXRlcmxpbWl0OjQ7c3Ryb2tlLWRhc2hhcnJheTpub25lO3N0cm9rZS1vcGFjaXR5OjEiIGQ9Im0gMi41MjAyOTc1LDI4OS40ODI5NCBjIDEuNDkwMjYyNywwLjk4NjIgMS45OTQzMjIzLDEuMzU4NzcgMy4wNjgxODgyLDEuMjkzMDIgMS4wNzM4NjYsLTAuMDY1NyAxLjY4NzUwMzUsLTEuMTE3NyAyLjczOTQ1MzcsLTEuMTgzNDQgMS4wNTE5NTAzLC0wLjA2NTcgMS43NTMyNTA2LC0wLjA0MzggMi41ODYwNDQ2LC0wLjI2Mjk5IDAuODMyNzk0LC0wLjIxOTE2IDAuOTY0Mjg4LDAuMDQzOCAxLjY4NzUwMywtMC44NzY2MyAwLjcyMzIxNiwtMC45MjA0NSAwLjI4NDkwNCwtMS40NjgzNCAwLjI4NDkwNCwtMS40NjgzNCIgaWQ9InBhdGgzMDQ4IiBpbmtzY2FwZTpjb25uZWN0b3ItY3VydmF0dXJlPSIwIi8+JiN4YTsgICAgICAgIDxwYXRoIHN0eWxlPSJmaWxsOm5vbmU7c3Ryb2tlOiNmZmZmYzc7c3Ryb2tlLXdpZHRoOjAuNDY1O3N0cm9rZS1saW5lY2FwOnJvdW5kO3N0cm9rZS1saW5lam9pbjptaXRlcjtzdHJva2UtbWl0ZXJsaW1pdDo0O3N0cm9rZS1kYXNoYXJyYXk6bm9uZTtzdHJva2Utb3BhY2l0eToxIiBkPSJtIDEuNzc1MTY2LDI5MC43OTc4OCBjIDIuMjc5MjI1NiwyLjE5MTU2IDIuMzAxMTQxMywyLjEyNTgxIDMuODc5MDY2NSwyLjI3OTIyIDEuNTc3OTI1NSwwLjE1MzQxIDIuODkyODYzMiwwIDMuMjY1NDI5LDAuMjE5MTYgMC4zNzI1NjU2LDAuMjE5MTUgMC4zOTQ0ODEzLDAuNjU3NDcgMC42NTc0NjksMS4zODA2OCAwLjI2Mjk4NzMsMC43MjMyMiAwLDEuNjIxNzYgMC4zMDY4MTg3LDEuMjI3MjggMC4zMDY4MTg4LC0wLjM5NDQ4IC0wLjA2NTc0NywwLjAyMTkgLTAuMTUzNDA5MywtMC44NTQ3MSAtMC4wODc2NjMsLTAuODc2NjMgLTAuNTQ3ODkxLC0wLjg1NDcxIC0wLjEzMTQ5NCwtMS43MDk0MiAwLjQxNjM5NzEsLTAuODU0NzEgMC4xNzUzMjUxLC0wLjg3NjYzIDEuMzM2ODUzMSwtMS4yNDkxOSAxLjE2MTUyOSwtMC4zNzI1NyAxLjU5OTg0MSwtMC4xOTcyNCAxLjg4NDc0NCwtMC43NjcwNSAwLjI4NDkwNCwtMC41Njk4IDAuNTkxNzIzLC0xLjE4MzQ0IDAuODMyNzk1LC0xLjc3NTE2IDAuMjQxMDcxLC0wLjU5MTczIDAuMTk3MjQsLTEuMDUxOTUgMC4xOTcyNCwtMS4wNTE5NSIgaWQ9InBhdGgzMDUwIiBpbmtzY2FwZTpjb25uZWN0b3ItY3VydmF0dXJlPSIwIi8+JiN4YTsgICAgICA8L2c+JiN4YTsgICAgICA8cGF0aCBzb2RpcG9kaTpub2RldHlwZXM9ImNjIiBpbmtzY2FwZTpjb25uZWN0b3ItY3VydmF0dXJlPSIwIiBpZD0icGF0aDM4NzgiIGQ9Im0gNC4zMTk5NjksMjg0LjgzODE4IGMgLTAuNzU0ODk5LC0xLjMzODgzIDAuMDU4NTU3LC0yLjY2ODYgMS40Nzc4ODE4LC0yLjM5OTE3IiBzdHlsZT0iZmlsbDpub25lO3N0cm9rZTojMDAwMDAwO3N0cm9rZS13aWR0aDowLjg2NTAwMDAxO3N0cm9rZS1saW5lY2FwOnJvdW5kO3N0cm9rZS1saW5lam9pbjptaXRlcjtzdHJva2UtbWl0ZXJsaW1pdDo0O3N0cm9rZS1kYXNoYXJyYXk6bm9uZTtzdHJva2Utb3BhY2l0eToxIi8+JiN4YTsgICAgICA8cGF0aCBzb2RpcG9kaTpub2RldHlwZXM9ImN6Y2N6Y2N6Y2NzY2NzY2NzY2NzY2Njc2NjIiBpbmtzY2FwZTpjb25uZWN0b3ItY3VydmF0dXJlPSIwIiBpZD0icGF0aDMwOTUiIGQ9Im0gMy41Mzk3ODQsMjg0Ljc0NjI0IGMgMCwwIC0xLjcwMTQ2OSwtMC4zMzkyMSAtMS42NjE0MTQ1LC0wLjYwMzU5IDAuMDQwMDU1LC0wLjI2NDM5IDEuNTYzNjM3OSwwLjA3MDYgMS41NjM2Mzc5LDAuMDcwNiBsIC0wLjAxOTY3MSwtMC4xMjUwNSBjIDAsMCAtMi4xNTExMjU0LC0wLjQ3MzE3IC0yLjEwMTY2MTYsLTAuNzcwODUgMC4wNDk0NjcsLTAuMjk3NjggMi4xODg2MzUyLDAuMzI4NzYgMi4xODg2MzUyLDAuMzI4NzYgbCAwLjA1NTc2LC0wLjE0Njc2IGMgMCwwIC0yLjM4ODg4NDIsLTAuODg1ODkgLTIuMjQxNzMzNCwtMS4yNzA1OCAwLjE0NzE0NjUsLTAuMzg0NyAyLjM4MTMxNjYsMC45MzQ0MSAyLjM4MTMxNjYsMC45MzQ0MSBsIDAuMDc0NDcxLC0wLjE3NTIgYyAwLDAgLTIuNzUwOTYyNCwtMS40OTY4MyAtMi40NzQ4NTEzLC0xLjkyMzIzIDAuMjU2MTU0NSwtMC4zOTU1NCAyLjcyOTcyNjIsMS41MjAyIDIuNzI5NzI2MiwxLjUyMDIgbCAwLjEzNjA1MDMsLTAuMTQ0ODggYyAwLDAgLTIuMTI1NTA4NCwtMS40OTIwNiAtMS44MTA3NTI0LC0xLjgzMjkyIDAuMjI2OTUxMSwtMC4yNDU3NiAyLjAxOTIyODcsMS41NjI0MyAyLjAxOTIyODcsMS41NjI0MyBsIDAuMTMzOTk3OSwtMC4wOTUzIGMgMCwwIC0xLjQ4MzI4MzQsLTEuNjM2ODcgLTEuMTY0MjcyMywtMS45MTcyMSAwLjE4NjE5MjMsLTAuMTYzNjQgMS41MTE4MDgyLDEuNjA1NzEgMS41MTE4MDgyLDEuNjA1NzEgTCA1LjAyNzAwMywyODEuNjQ4NCBjIDAsMCAtMC44OTYwMzM0LC0xLjIzNzQxIC0wLjY4MTY3OTUsLTEuMzk2MDIgMC4yMjY1ODcsLTAuMTY3NjQgMS4xNzQyOTMxLDEuMjUxMjcgMS4xNzQyOTMxLDEuMjUxMjcgMC43NTAyMzYyLDAuMjc2MDQgMC41MjYxODEzLDAuMzE1NDkgMC41MjYxODEzLDAuMzE1NDkgdiAwIGMgMCwwIC0wLjgyODQwOTgsMC4wNjY2IC0xLjYxOTIzNywxLjIzOCAtMC42NDM3NDc3LDAuOTUzNTIgLTAuNTA5OTcwOSwxLjkwNjQgLTAuNDc4NTEyNSwyLjAyODk5IDAsMCAtMC4wMjg2MjIsMC4xNDMzMiAtMC40MDgyNjQ0LC0wLjMzOTg0IHoiIHN0eWxlPSJmaWxsOiNjOTNjM2M7ZmlsbC1vcGFjaXR5OjE7c3Ryb2tlOiMwMDAwMDA7c3Ryb2tlLXdpZHRoOjAuMDA5MDg0OTVweDtzdHJva2UtbGluZWNhcDpidXR0O3N0cm9rZS1saW5lam9pbjptaXRlcjtzdHJva2Utb3BhY2l0eToxIi8+JiN4YTsgICAgICA8cGF0aCBzb2RpcG9kaTpub2RldHlwZXM9ImNjIiBpbmtzY2FwZTpjb25uZWN0b3ItY3VydmF0dXJlPSIwIiBpZD0icGF0aDM5MTMtNi05LTAiIGQ9Im0gMTMuNjMzMzk1LDI4NS42Nzg0OSBjIDIuNDQwMzAyLC0wLjYyNjQ3IDEuNDcxMDIzLC0zLjE2MDQ0IC0wLjc5NDgxLC0xLjg0OTU1IiBzdHlsZT0iZmlsbDpub25lO3N0cm9rZTojZmY4YzU3O3N0cm9rZS13aWR0aDowLjY2NTAwMDAyO3N0cm9rZS1saW5lY2FwOnJvdW5kO3N0cm9rZS1saW5lam9pbjptaXRlcjtzdHJva2UtbWl0ZXJsaW1pdDo0O3N0cm9rZS1kYXNoYXJyYXk6bm9uZTtzdHJva2Utb3BhY2l0eToxIi8+JiN4YTsgICAgICA8ZyB0cmFuc2Zvcm09Im1hdHJpeCgwLjA0MzMzOTgyLDAuMTAwNDY5NzcsLTAuMTAwNDY5NzgsMC4wNDMzMzk4MiwzNy4zMDI2MTgsMjcwLjc0Nzg2KSIgaWQ9ImczODAwIj4mI3hhOyAgICAgICAgPHBhdGggc3R5bGU9ImZpbGw6IzE0NzZmMTtmaWxsLW9wYWNpdHk6MTtzdHJva2U6IzAwMDAwMDtzdHJva2Utd2lkdGg6MC44NjUwMDAwMTtzdHJva2UtbGluZWNhcDpidXR0O3N0cm9rZS1saW5lam9pbjptaXRlcjtzdHJva2UtbWl0ZXJsaW1pdDo0O3N0cm9rZS1kYXNoYXJyYXk6bm9uZTtzdHJva2Utb3BhY2l0eToxIiBkPSJtIDE3LjAwNjUyOSwyMjUuMjkyMDYgYyAtMC43MDEzLDExLjM5NjEzIC0wLjMzMjU5NywxOS40NDY1OSAxMi4yNzI3NTIsMTguOTM1MTEgMTIuNjA1MzUsLTAuNTExNDkgMTMuMDc0Mjg3LC02LjI3MzIyIDEyLjQ0ODA3OCwtMTguNTg0NDcgMCwwIC00LjAzMTkwNiw4LjA5NDggLTEyLjQ0ODA3OCw4LjI0MDI4IC04LjIzODc5MywwLjE0MjQzIC0xMi4yNzI3NTIsLTguNTkwOTIgLTEyLjI3Mjc1MiwtOC41OTA5MiB6IiBpZD0icGF0aDMxODEiIGlua3NjYXBlOmNvbm5lY3Rvci1jdXJ2YXR1cmU9IjAiIHNvZGlwb2RpOm5vZGV0eXBlcz0iY3pjc2MiLz4mI3hhOyAgICAgICAgPHBhdGggc3R5bGU9ImZpbGw6IzE0NzZmMTtmaWxsLW9wYWNpdHk6MTtzdHJva2U6IzAwMDAwMDtzdHJva2Utd2lkdGg6MC44NjUwMDAwMTtzdHJva2UtbGluZWNhcDpidXR0O3N0cm9rZS1saW5lam9pbjptaXRlcjtzdHJva2UtbWl0ZXJsaW1pdDo0O3N0cm9rZS1kYXNoYXJyYXk6bm9uZTtzdHJva2Utb3BhY2l0eToxIiBkPSJtIDI5LjQ1NDYwNywyMDMuMjAxMSBjIDE3Ljc1OTkwMiwwLjgwODg1IDE3Ljc1NDEwNCwzMC45MjA4MyAtMC4xNzUzMjYsMzAuNTA2NTYgLTE3LjkyOTQzMSwtMC40MTQyOCAtMTcuNTg0NTc2LC0zMS4zMTU0MSAwLjE3NTMyNiwtMzAuNTA2NTYgeiIgaWQ9InBhdGgzMTc5IiBpbmtzY2FwZTpjb25uZWN0b3ItY3VydmF0dXJlPSIwIiBzb2RpcG9kaTpub2RldHlwZXM9Inp6eiIvPiYjeGE7ICAgICAgICA8cGF0aCBzdHlsZT0iZmlsbDpub25lO2ZpbGwtb3BhY2l0eToxO3N0cm9rZTojZmZmZmZmO3N0cm9rZS13aWR0aDowLjg2NTAwMDAxO3N0cm9rZS1saW5lY2FwOmJ1dHQ7c3Ryb2tlLWxpbmVqb2luOm1pdGVyO3N0cm9rZS1taXRlcmxpbWl0OjQ7c3Ryb2tlLWRhc2hhcnJheTpub25lO3N0cm9rZS1vcGFjaXR5OjEiIGQ9Im0gNDEuNTUyMDM0LDIyNS40NjczOCBjIDAsMCAtMy4zMzExNzUsLTQuMjA3OCAtMTIuMjcyNzUzLC0xMC4xNjg4NSA4LjA2NDk1MywtMy41MDY1IDEyLjA5NzQyOSwtNC4wMzI0OCAxMi4wOTc0MjksLTQuMDMyNDgiIGlkPSJwYXRoMzE4MyIgaW5rc2NhcGU6Y29ubmVjdG9yLWN1cnZhdHVyZT0iMCIgc29kaXBvZGk6bm9kZXR5cGVzPSJjY2MiLz4mI3hhOyAgICAgICAgPHBhdGggc3R5bGU9ImZpbGw6bm9uZTtmaWxsLW9wYWNpdHk6MTtzdHJva2U6I2ZmZmZmZjtzdHJva2Utd2lkdGg6MC44NjUwMDAwMTtzdHJva2UtbGluZWNhcDpidXR0O3N0cm9rZS1saW5lam9pbjptaXRlcjtzdHJva2UtbWl0ZXJsaW1pdDo0O3N0cm9rZS1kYXNoYXJyYXk6bm9uZTtzdHJva2Utb3BhY2l0eToxIiBkPSJtIDI5LjQ1NDYwNywyMDMuMjAxMSAtMC4xNzUzMjYsMTIuMDk3NDMgQyAyMC42ODgzNTUsMjEwLjAzODc4IDE3LjcwNzgyOSwyMTAuMjE0MSAxNy43MDc4MjksMjEwLjIxNDEiIGlkPSJwYXRoMzE4NSIgaW5rc2NhcGU6Y29ubmVjdG9yLWN1cnZhdHVyZT0iMCIgc29kaXBvZGk6bm9kZXR5cGVzPSJjY2MiLz4mI3hhOyAgICAgICAgPHBhdGggc3R5bGU9ImZpbGw6bm9uZTtmaWxsLW9wYWNpdHk6MTtzdHJva2U6I2ZmZmZmZjtzdHJva2Utd2lkdGg6MC44NjUwMDAwMTtzdHJva2UtbGluZWNhcDpidXR0O3N0cm9rZS1saW5lam9pbjptaXRlcjtzdHJva2UtbWl0ZXJsaW1pdDo0O3N0cm9rZS1kYXNoYXJyYXk6bm9uZTtzdHJva2Utb3BhY2l0eToxIiBkPSJtIDE3LjAwNjUyOSwyMjUuMTE2NzMgYyAwLDAgMy4xNTU4NTEsLTMuNTA2NSAxMi4yNzI3NTIsLTkuODE4MiAwLjUyNTk3NiwxOC4yMzM4IDAuMzUwNjUxLDE4LjIzMzggMC4zNTA2NTEsMTguMjMzOCIgaWQ9InBhdGgzMTg3IiBpbmtzY2FwZTpjb25uZWN0b3ItY3VydmF0dXJlPSIwIiBzb2RpcG9kaTpub2RldHlwZXM9ImNjYyIvPiYjeGE7ICAgICAgPC9nPiYjeGE7ICAgICAgPHBhdGggc29kaXBvZGk6bm9kZXR5cGVzPSJjYyIgaW5rc2NhcGU6Y29ubmVjdG9yLWN1cnZhdHVyZT0iMCIgaWQ9InBhdGgzOTEzIiBkPSJtIDYuNjMyNTgzNiwyODcuNDIzMDUgYyAtMi4wMzU0MzYyLDEuMDUzNjYgLTEuMDI5NDQ0OSwzLjA5MTUxIDEuMTE1NzYxNywxLjc5NzYxIiBzdHlsZT0iZmlsbDpub25lO3N0cm9rZTojZmY4YzU3O3N0cm9rZS13aWR0aDowLjY2NTAwMDAyO3N0cm9rZS1saW5lY2FwOnJvdW5kO3N0cm9rZS1saW5lam9pbjptaXRlcjtzdHJva2UtbWl0ZXJsaW1pdDo0O3N0cm9rZS1kYXNoYXJyYXk6bm9uZTtzdHJva2Utb3BhY2l0eToxIi8+JiN4YTsgICAgICA8ZyB0cmFuc2Zvcm09Im1hdHJpeCgwLjIwNTg5MTE0LDAsMCwwLjIwNTg5MTE0LDguMjA0NDkxMiwyMjkuNDIwMjYpIiBpZD0iZzM4MzIiPiYjeGE7ICAgICAgICA8cGF0aCBzdHlsZT0iZmlsbDojZjhkMGFlO2ZpbGwtb3BhY2l0eToxO3N0cm9rZTojMDAwMDAwO3N0cm9rZS13aWR0aDowLjI2NDU4MzMycHg7c3Ryb2tlLWxpbmVjYXA6YnV0dDtzdHJva2UtbGluZWpvaW46bWl0ZXI7c3Ryb2tlLW9wYWNpdHk6MSIgZD0ibSAtMTEuNTY2MDUsMjkyLjEzNDgxIGMgMS4wNzAzMDUsLTEuNzE2ODMgMi4xNjc5NTU2LC0yLjQzMDc2IDEuOTMyNTc0NSwtMy4zNjQ3MyAtMC4yNzE5NjkzLC0wLjgyNDA3IC0yLjE3NzkzNjUsLTAuNzEzMjkgLTMuNDYzMzI2NSwtMS4wNDU2NiIgaWQ9InBhdGgzODE5IiBpbmtzY2FwZTpjb25uZWN0b3ItY3VydmF0dXJlPSIwIiBzb2RpcG9kaTpub2RldHlwZXM9ImNjYyIvPiYjeGE7ICAgICAgICA8cGF0aCBzdHlsZT0iZmlsbDojZjhkMGFlO2ZpbGwtb3BhY2l0eToxO3N0cm9rZTojMDAwMDAwO3N0cm9rZS13aWR0aDowLjI2NDk5OTk5O3N0cm9rZS1saW5lY2FwOmJ1dHQ7c3Ryb2tlLWxpbmVqb2luOm1pdGVyO3N0cm9rZS1taXRlcmxpbWl0OjQ7c3Ryb2tlLWRhc2hhcnJheTpub25lO3N0cm9rZS1vcGFjaXR5OjEiIGQ9Im0gLTExLjk5MTc0NSwyODkuODc0NzggYyAtNS4xNTI4MzMsLTEyLjcwMTkyIC0yMi45MzMxMzYsLTEuNTgyNSAtMTkuNTAwNTgyLDcuMDYyMjMgNS4zMjUwNDcsMTAuMTY3NDUgMjIuODU0ODY1NCw1LjA3ODA3IDE5LjUwMDU4MiwtNy4wNjIyMyB6IiBpZD0icGF0aDM4MTciIGlua3NjYXBlOmNvbm5lY3Rvci1jdXJ2YXR1cmU9IjAiIHNvZGlwb2RpOm5vZGV0eXBlcz0iY2NjIi8+JiN4YTsgICAgICAgIDxwYXRoIHN0eWxlPSJmaWxsOiM0MjMwMmU7ZmlsbC1vcGFjaXR5OjE7c3Ryb2tlOiMwMDAwMDA7c3Ryb2tlLXdpZHRoOjAuMjY0NTgzMzJweDtzdHJva2UtbGluZWNhcDpidXR0O3N0cm9rZS1saW5lam9pbjptaXRlcjtzdHJva2Utb3BhY2l0eToxIiBkPSJtIC05LjY5Nzg4OTIsMjk1LjczNDMyIGMgLTEuNDkxODk0OCwxLjIxMjY5IC0zLjE4MTQ2MTgsMC40NDE5NyAtMy42OTM0NzI4LC0wLjg0OTQxIC0xLjA4NTg3OCwtMi43Mzg3OCAtMy4xODAzNDgsLTMuNTE3MjIgLTMuMTgwMzQ4LC0zLjUxNzIyIDAsMCAwLjI3Njc0NiwtMS4xMDM4NyAwLjc1MDI0MiwtMi44MjggMC40NzM0ODgsLTEuNzI0MTQgLTEuNzU3MjY2LC0zLjg0MzEzIC0wLjU5ODQ3MiwtNC43MTU2MiAwLjkxODc4NiwtMC42OTE3OSAxLjgyNDA1LC0wLjYwNDQ1IDEuODI0MDUsLTAuNjA0NDUgLTEuOTAxNjMyLC0xLjI2MDA2IC0zLjk5OTMyLC0xLjY2MjE0IC02LjAzOTQ2NywtMS41MzI4NiAtNC4yOTM4MTgsMC4yNzIwOCAtMTQuNDYyOTkxLDYuNTczNDQgLTExLjMzNjE0MiwxNS44NzEyNyAyLjY1NDQ3Nyw3Ljg5MzIyIDE1LjA3MTgxOSw2LjM1NjAzIDE5LjA4OTEyNSwzLjI0NzYxIDMuMDE3NjcyMSwtMi4zMzQ5NSAzLjE4NDQ3NTgsLTUuMDcxMyAzLjE4NDQ3NTgsLTUuMDcxMyB6IiBpZD0icGF0aDM4MTUiIGlua3NjYXBlOmNvbm5lY3Rvci1jdXJ2YXR1cmU9IjAiIHNvZGlwb2RpOm5vZGV0eXBlcz0iY3NjY3Njc3NzY2MiLz4mI3hhOyAgICAgIDwvZz4mI3hhOyAgICAgIDxwYXRoIHNvZGlwb2RpOm5vZGV0eXBlcz0iY2MiIGlua3NjYXBlOmNvbm5lY3Rvci1jdXJ2YXR1cmU9IjAiIGlkPSJwYXRoMzkxMy02LTktMyIgZD0ibSAxMi42MTgwMywyODkuMDM1MjcgYyAxLjY4NTQxMywxLjM4MTc3IDMuMjk4NjU5LC0wLjUyMTM2IDEuMDczMzczLC0xLjY0ODQ4IiBzdHlsZT0iZmlsbDpub25lO3N0cm9rZTojZmY4YzU3O3N0cm9rZS13aWR0aDowLjY2NTAwMDAyO3N0cm9rZS1saW5lY2FwOnJvdW5kO3N0cm9rZS1saW5lam9pbjptaXRlcjtzdHJva2UtbWl0ZXJsaW1pdDo0O3N0cm9rZS1kYXNoYXJyYXk6bm9uZTtzdHJva2Utb3BhY2l0eToxIi8+JiN4YTsgICAgICA8ZyB0cmFuc2Zvcm09InJvdGF0ZSgtOCwxNS41MzE0MzksMjg5LjY4OTgzKSIgaWQ9ImczOTY5Ij4mI3hhOyAgICAgICAgPHBhdGggc3R5bGU9ImZpbGw6I2M4OWU2OTtmaWxsLW9wYWNpdHk6MTtzdHJva2U6IzAwMDAwMDtzdHJva2Utd2lkdGg6MC4wODA1NjNweDtzdHJva2UtbGluZWNhcDpidXR0O3N0cm9rZS1saW5lam9pbjptaXRlcjtzdHJva2Utb3BhY2l0eToxIiBkPSJtIDEzLjgwODQyNCwyODcuOTE2MSBjIC0xLjcwODIxNiwxLjYwNTE5IDEuODQ3MjQ5LDQuOTc3MTkgMy4zNzk4MjcsMy4zOTQxMyAxLjczMDk4NSwtMS42MTk3MyAtMS42NzE2MTIsLTQuOTk5MzIgLTMuMzc5ODI3LC0zLjM5NDEzIHoiIGlkPSJwYXRoMzg1MiIgaW5rc2NhcGU6Y29ubmVjdG9yLWN1cnZhdHVyZT0iMCIgc29kaXBvZGk6bm9kZXR5cGVzPSJ6Y3oiLz4mI3hhOyAgICAgICAgPHBhdGggc3R5bGU9ImZpbGw6I2FjYTM4OTtmaWxsLW9wYWNpdHk6MTtzdHJva2U6IzAwMDAwMDtzdHJva2Utd2lkdGg6MC4wODA1NjNweDtzdHJva2UtbGluZWNhcDpidXR0O3N0cm9rZS1saW5lam9pbjptaXRlcjtzdHJva2Utb3BhY2l0eToxIiBkPSJtIDE2LjAzMzAwOCwyODcuNzUwMDkgYyAwLjg4OTM2MiwwLjM2NjMyIDIuNDkyODUsMS44OTg4MSAxLjMzMzkzNCwzLjM2NDU2IC0xLjI4Mjg2MywxLjQzOTk0IC0yLjYxNDY3NywwLjUwNzIzIC0zLjIzNzg5NiwtMC4yMjYxMyAtMC42MjMyMTcsLTAuNzMzMzcgLTAuNDQ2MjQ0LC0wLjcxMzc1IC0wLjQ0NjI0NCwtMC43MTM3NSBsIDAuNjgzMTEsLTAuMTMzNiBjIDAsMCAwLjQ0NTU0OSwwLjU5Mjg5IDAuNTE5NTc5LDAuNjUxNDIgMC4wNzQwMywwLjA1ODUgMC4zNzg3NDcsMC4yNTEzNCAwLjM3ODc0NywwLjI1MTM0IDAsMCAtMC40MTkwMTEsLTAuNTQ3ODUgLTAuNjY1MjI4LC0wLjg2MjgzIC0wLjE4Mzc5MSwtMC4yMzUxMiAtMC4zNzI1NDksLTAuMTk4MzEgLTAuMjQ2MTg4LC0wLjI2Njg0IDAuMzIyOTU3LC0wLjIyNTg3IDAuMTMwNDg0LC0wLjM3ODA1IC0wLjAzMDY2LC0wLjcyMjAxIC0wLjIwOTU3MywtMC40NDczMyAwLjM0MzI0NSwtMS4zMTY2NSAwLjg4MTA2NywtMS4wODM5MSAwLjYwODU3MiwwLjE0MzI1IDAuNjYxNzcsMC4yNTg1NiAwLjc5NjczOCwwLjE0ODcyIDAuMTM0OTY3LC0wLjEwOTg0IDAuMDMzMDQsLTAuNDA2OTcgMC4wMzMwNCwtMC40MDY5NyB6IiBpZD0icGF0aDM4NTAiIGlua3NjYXBlOmNvbm5lY3Rvci1jdXJ2YXR1cmU9IjAiIHNvZGlwb2RpOm5vZGV0eXBlcz0iY2NjY2NzY3Njc2NjY2MiLz4mI3hhOyAgICAgICAgPHBhdGggc3R5bGU9ImZpbGw6I2M4OWU2OTtmaWxsLW9wYWNpdHk6MTtzdHJva2U6IzAwMDAwMDtzdHJva2Utd2lkdGg6MC4wODA1NjNweDtzdHJva2UtbGluZWNhcDpidXR0O3N0cm9rZS1saW5lam9pbjptaXRlcjtzdHJva2Utb3BhY2l0eToxIiBkPSJtIDEzLjkwODM1NywyODcuNzg5NyBjIC0wLjQ3OTM1OCwtMC4zMDA1IC0wLjY4MjkxMywtMC4xMDE5MiAtMC4zODA4ODIsMC40ODE3MyIgaWQ9InBhdGgzODU0IiBpbmtzY2FwZTpjb25uZWN0b3ItY3VydmF0dXJlPSIwIiBzb2RpcG9kaTpub2RldHlwZXM9ImNjIi8+JiN4YTsgICAgICA8L2c+JiN4YTsgICAgICA8ZWxsaXBzZSByeT0iMS4yMTYwNTY3IiByeD0iMS4xNDY3NTUxIiBjeT0iMjgzLjY5NjUzIiBjeD0iNS4zNjE4NTUiIGlkPSJwYXRoMzg2MSIgc3R5bGU9Im9wYWNpdHk6MC45MzAwMDAzNDt2ZWN0b3ItZWZmZWN0Om5vbmU7ZmlsbDojZmU4OTU0O2ZpbGwtb3BhY2l0eToxO2ZpbGwtcnVsZTpldmVub2RkO3N0cm9rZTpub25lO3N0cm9rZS13aWR0aDoyLjg2NTAwMDAxO3N0cm9rZS1saW5lY2FwOmJ1dHQ7c3Ryb2tlLWxpbmVqb2luOm1pdGVyO3N0cm9rZS1taXRlcmxpbWl0OjQ7c3Ryb2tlLWRhc2hhcnJheTpub25lO3N0cm9rZS1kYXNob2Zmc2V0OjA7c3Ryb2tlLW9wYWNpdHk6MTtwYWludC1vcmRlcjptYXJrZXJzIHN0cm9rZSBmaWxsIi8+JiN4YTsgICAgICA8ZWxsaXBzZSByeT0iMS4yMTYwNTY3IiByeD0iMS4xNDY3NTUyIiBjeT0iMjgwLjU0MTM4IiBjeD0iMTAuMjEyNjg0IiBpZD0icGF0aDM4NjEtMiIgc3R5bGU9Im9wYWNpdHk6MC45MzAwMDAzNDt2ZWN0b3ItZWZmZWN0Om5vbmU7ZmlsbDojZmU4OTU0O2ZpbGwtb3BhY2l0eToxO2ZpbGwtcnVsZTpldmVub2RkO3N0cm9rZTpub25lO3N0cm9rZS13aWR0aDoyLjg2NTAwMDAxO3N0cm9rZS1saW5lY2FwOmJ1dHQ7c3Ryb2tlLWxpbmVqb2luOm1pdGVyO3N0cm9rZS1taXRlcmxpbWl0OjQ7c3Ryb2tlLWRhc2hhcnJheTpub25lO3N0cm9rZS1kYXNob2Zmc2V0OjA7c3Ryb2tlLW9wYWNpdHk6MTtwYWludC1vcmRlcjptYXJrZXJzIHN0cm9rZSBmaWxsIi8+JiN4YTsgICAgICA8cGF0aCBzb2RpcG9kaTpub2RldHlwZXM9ImNjIiBpbmtzY2FwZTpjb25uZWN0b3ItY3VydmF0dXJlPSIwIiBpZD0icGF0aDM4NzgtMiIgZD0ibSA4LjgyNTA2NjksMjgwLjQ3Nzg3IGMgLTAuMDI5NTk4LC0xLjYzMTcyIDIuNzAzMjg5MSwtMS42NDcxOSAyLjcxMDYyNzEsMC4wMjEiIHN0eWxlPSJmaWxsOm5vbmU7c3Ryb2tlOiMwMDAwMDA7c3Ryb2tlLXdpZHRoOjAuODUyMjE0MjI7c3Ryb2tlLWxpbmVjYXA6cm91bmQ7c3Ryb2tlLWxpbmVqb2luOm1pdGVyO3N0cm9rZS1taXRlcmxpbWl0OjQ7c3Ryb2tlLWRhc2hhcnJheTpub25lO3N0cm9rZS1vcGFjaXR5OjEiLz4mI3hhOyAgICAgIDxwYXRoIHNvZGlwb2RpOm5vZGV0eXBlcz0iY2MiIGlua3NjYXBlOmNvbm5lY3Rvci1jdXJ2YXR1cmU9IjAiIGlkPSJwYXRoMzkxMy02IiBkPSJNIDcuNzIyODE3NiwyODQuMDM5ODggQyA1LjczNTg2NCwyODIuNDcgNC4zMTk5NjksMjg0LjgzODE4IDYuNjA3MzM0LDI4NS42ODM1NSIgc3R5bGU9ImZpbGw6bm9uZTtzdHJva2U6I2ZmOGM1NztzdHJva2Utd2lkdGg6MC42NjUwMDAwMjtzdHJva2UtbGluZWNhcDpyb3VuZDtzdHJva2UtbGluZWpvaW46bWl0ZXI7c3Ryb2tlLW1pdGVybGltaXQ6NDtzdHJva2UtZGFzaGFycmF5Om5vbmU7c3Ryb2tlLW9wYWNpdHk6MSIvPiYjeGE7ICAgICAgPHBhdGggc29kaXBvZGk6bm9kZXR5cGVzPSJjYyIgaW5rc2NhcGU6Y29ubmVjdG9yLWN1cnZhdHVyZT0iMCIgaWQ9InBhdGgzOTEzLTYtOSIgZD0ibSAxMS4xNDQwODcsMjgyLjk4NzY2IGMgMC4zOTE2MDcsLTIuNDg4ODEgLTIuMzE5MDIwMSwtMi42MDI3NyAtMi4wMTMwOTczLC0wLjAwMyIgc3R5bGU9ImZpbGw6bm9uZTtzdHJva2U6I2ZmOGM1NztzdHJva2Utd2lkdGg6MC42NjUwMDAwMjtzdHJva2UtbGluZWNhcDpyb3VuZDtzdHJva2UtbGluZWpvaW46bWl0ZXI7c3Ryb2tlLW1pdGVybGltaXQ6NDtzdHJva2UtZGFzaGFycmF5Om5vbmU7c3Ryb2tlLW9wYWNpdHk6MSIvPiYjeGE7ICAgIDwvZz4mI3hhOyAgPC9nPiYjeGE7PC9zdmc+;" vertex="1" parent="DQC1ERT1BnNI4L5fX5Ei-72">
          <mxGeometry width="200" height="200" as="geometry" />
        </mxCell>
        <mxCell id="DQC1ERT1BnNI4L5fX5Ei-71" value="Comité" style="text;whiteSpace=wrap;html=1;fontSize=20;fontColor=#FFFFFF;" vertex="1" parent="DQC1ERT1BnNI4L5fX5Ei-72">
          <mxGeometry x="70" y="80" width="60" height="40" as="geometry" />
        </mxCell>
        <mxCell id="DQC1ERT1BnNI4L5fX5Ei-106" value="&lt;div&gt;administrador&lt;/div&gt;&amp;nbsp;con el aval del " style="rounded=1;whiteSpace=wrap;html=1;fillColor=#f8cecc;strokeColor=#b85450;fontSize=17;verticalAlign=top;" vertex="1" parent="DQC1ERT1BnNI4L5fX5Ei-143">
          <mxGeometry x="83" y="147" width="114" height="26" as="geometry" />
        </mxCell>
        <mxCell id="DQC1ERT1BnNI4L5fX5Ei-110" value="Sistema de valoración" style="shape=process;whiteSpace=wrap;html=1;backgroundOutline=1;fontSize=17;" vertex="1" parent="DQC1ERT1BnNI4L5fX5Ei-143">
          <mxGeometry x="656.4999999999999" y="640" width="120" height="60" as="geometry" />
        </mxCell>
        <mxCell id="DQC1ERT1BnNI4L5fX5Ei-121" style="edgeStyle=orthogonalEdgeStyle;rounded=0;orthogonalLoop=1;jettySize=auto;html=1;entryX=0.5;entryY=0;entryDx=0;entryDy=0;fontSize=27;fontColor=#FFFFFF;" edge="1" parent="DQC1ERT1BnNI4L5fX5Ei-143" source="DQC1ERT1BnNI4L5fX5Ei-75" target="DQC1ERT1BnNI4L5fX5Ei-110">
          <mxGeometry relative="1" as="geometry" />
        </mxCell>
        <mxCell id="DQC1ERT1BnNI4L5fX5Ei-113" value="&lt;div&gt;Modelo de valoración&lt;br&gt;&lt;/div&gt;" style="rounded=1;whiteSpace=wrap;html=1;fontSize=17;" vertex="1" parent="DQC1ERT1BnNI4L5fX5Ei-143">
          <mxGeometry x="33" y="610" width="215" height="120" as="geometry" />
        </mxCell>
        <mxCell id="DQC1ERT1BnNI4L5fX5Ei-114" style="edgeStyle=orthogonalEdgeStyle;rounded=0;orthogonalLoop=1;jettySize=auto;html=1;entryX=0;entryY=0.5;entryDx=0;entryDy=0;fontSize=27;fontColor=#FFFFFF;exitX=0.5;exitY=1;exitDx=0;exitDy=0;" edge="1" parent="DQC1ERT1BnNI4L5fX5Ei-143" source="DQC1ERT1BnNI4L5fX5Ei-68" target="DQC1ERT1BnNI4L5fX5Ei-113">
          <mxGeometry relative="1" as="geometry">
            <mxPoint x="150" y="425.5000000000002" as="sourcePoint" />
            <mxPoint x="150.49999999999977" y="470" as="targetPoint" />
            <Array as="points">
              <mxPoint x="140" y="425" />
              <mxPoint y="425" />
              <mxPoint y="670" />
            </Array>
          </mxGeometry>
        </mxCell>
        <mxCell id="DQC1ERT1BnNI4L5fX5Ei-116" style="edgeStyle=orthogonalEdgeStyle;rounded=0;orthogonalLoop=1;jettySize=auto;html=1;entryX=0.5;entryY=0;entryDx=0;entryDy=0;fontSize=27;fontColor=#FFFFFF;" edge="1" parent="DQC1ERT1BnNI4L5fX5Ei-143" source="DQC1ERT1BnNI4L5fX5Ei-68" target="DQC1ERT1BnNI4L5fX5Ei-81">
          <mxGeometry relative="1" as="geometry" />
        </mxCell>
        <mxCell id="DQC1ERT1BnNI4L5fX5Ei-117" value="&lt;div&gt;administrador&lt;/div&gt;" style="rounded=1;whiteSpace=wrap;html=1;fillColor=#f8cecc;strokeColor=#b85450;fontSize=17;verticalAlign=top;" vertex="1" parent="DQC1ERT1BnNI4L5fX5Ei-143">
          <mxGeometry x="310" y="647.0000000000002" width="138" height="46" as="geometry" />
        </mxCell>
        <mxCell id="DQC1ERT1BnNI4L5fX5Ei-118" style="edgeStyle=orthogonalEdgeStyle;rounded=0;orthogonalLoop=1;jettySize=auto;html=1;fontSize=27;fontColor=#FFFFFF;exitX=1;exitY=0.5;exitDx=0;exitDy=0;entryX=0;entryY=0.5;entryDx=0;entryDy=0;" edge="1" parent="DQC1ERT1BnNI4L5fX5Ei-143" source="DQC1ERT1BnNI4L5fX5Ei-113" target="DQC1ERT1BnNI4L5fX5Ei-117">
          <mxGeometry relative="1" as="geometry">
            <mxPoint x="257.9999999999998" y="530" as="sourcePoint" />
            <mxPoint x="320" y="529.9999999999998" as="targetPoint" />
          </mxGeometry>
        </mxCell>
        <mxCell id="DQC1ERT1BnNI4L5fX5Ei-119" style="edgeStyle=orthogonalEdgeStyle;rounded=0;orthogonalLoop=1;jettySize=auto;html=1;entryX=0;entryY=0.5;entryDx=0;entryDy=0;fontSize=27;fontColor=#FFFFFF;exitX=1;exitY=0.5;exitDx=0;exitDy=0;" edge="1" parent="DQC1ERT1BnNI4L5fX5Ei-143" source="DQC1ERT1BnNI4L5fX5Ei-117" target="DQC1ERT1BnNI4L5fX5Ei-110">
          <mxGeometry relative="1" as="geometry">
            <mxPoint x="458" y="529.9999999999998" as="sourcePoint" />
            <mxPoint x="666.5" y="580" as="targetPoint" />
            <Array as="points">
              <mxPoint x="640" y="670" />
              <mxPoint x="640" y="670" />
            </Array>
          </mxGeometry>
        </mxCell>
        <mxCell id="DQC1ERT1BnNI4L5fX5Ei-120" value="Crea" style="text;html=1;align=center;verticalAlign=middle;resizable=0;points=[];autosize=1;fontSize=17;" vertex="1" parent="DQC1ERT1BnNI4L5fX5Ei-143">
          <mxGeometry x="481.8" y="640" width="50" height="30" as="geometry" />
        </mxCell>
        <mxCell id="DQC1ERT1BnNI4L5fX5Ei-122" value="Informa" style="text;html=1;align=center;verticalAlign=middle;resizable=0;points=[];autosize=1;fontSize=17;" vertex="1" parent="DQC1ERT1BnNI4L5fX5Ei-143">
          <mxGeometry x="631.5" y="600" width="70" height="30" as="geometry" />
        </mxCell>
        <mxCell id="DQC1ERT1BnNI4L5fX5Ei-124" value="Evaluación de practicas" style="rounded=1;whiteSpace=wrap;html=1;fontSize=17;" vertex="1" parent="DQC1ERT1BnNI4L5fX5Ei-143">
          <mxGeometry x="840" y="424" width="120" height="60" as="geometry" />
        </mxCell>
        <mxCell id="DQC1ERT1BnNI4L5fX5Ei-135" style="edgeStyle=orthogonalEdgeStyle;rounded=0;orthogonalLoop=1;jettySize=auto;html=1;entryX=0;entryY=0.5;entryDx=0;entryDy=0;fontSize=27;fontColor=#FFFFFF;" edge="1" parent="DQC1ERT1BnNI4L5fX5Ei-143" source="DQC1ERT1BnNI4L5fX5Ei-110" target="DQC1ERT1BnNI4L5fX5Ei-124">
          <mxGeometry relative="1" as="geometry" />
        </mxCell>
        <mxCell id="DQC1ERT1BnNI4L5fX5Ei-140" style="edgeStyle=orthogonalEdgeStyle;rounded=0;orthogonalLoop=1;jettySize=auto;html=1;entryX=1;entryY=0.5;entryDx=0;entryDy=0;fontSize=27;fontColor=#FFFFFF;" edge="1" parent="DQC1ERT1BnNI4L5fX5Ei-143" source="DQC1ERT1BnNI4L5fX5Ei-125" target="n5HtSUz3Oa1L7r2nbjOb-13">
          <mxGeometry relative="1" as="geometry">
            <Array as="points">
              <mxPoint x="1130" y="570" />
              <mxPoint x="1130" y="59" />
            </Array>
          </mxGeometry>
        </mxCell>
        <mxCell id="DQC1ERT1BnNI4L5fX5Ei-125" value="Logistica" style="rounded=1;whiteSpace=wrap;html=1;fontSize=17;fontStyle=1" vertex="1" parent="DQC1ERT1BnNI4L5fX5Ei-143">
          <mxGeometry x="840" y="540" width="120" height="60" as="geometry" />
        </mxCell>
        <mxCell id="DQC1ERT1BnNI4L5fX5Ei-134" style="edgeStyle=orthogonalEdgeStyle;rounded=0;orthogonalLoop=1;jettySize=auto;html=1;entryX=0;entryY=0.5;entryDx=0;entryDy=0;fontSize=27;fontColor=#FFFFFF;" edge="1" parent="DQC1ERT1BnNI4L5fX5Ei-143" source="DQC1ERT1BnNI4L5fX5Ei-110" target="DQC1ERT1BnNI4L5fX5Ei-125">
          <mxGeometry relative="1" as="geometry" />
        </mxCell>
        <mxCell id="DQC1ERT1BnNI4L5fX5Ei-141" style="edgeStyle=orthogonalEdgeStyle;rounded=0;orthogonalLoop=1;jettySize=auto;html=1;entryX=1;entryY=0.5;entryDx=0;entryDy=0;fontSize=27;fontColor=#FFFFFF;" edge="1" parent="DQC1ERT1BnNI4L5fX5Ei-143" source="DQC1ERT1BnNI4L5fX5Ei-126" target="n5HtSUz3Oa1L7r2nbjOb-13">
          <mxGeometry relative="1" as="geometry">
            <Array as="points">
              <mxPoint x="1130" y="670" />
              <mxPoint x="1130" y="59" />
            </Array>
          </mxGeometry>
        </mxCell>
        <mxCell id="DQC1ERT1BnNI4L5fX5Ei-126" value="Venta" style="rounded=1;whiteSpace=wrap;html=1;fontSize=17;fontStyle=1" vertex="1" parent="DQC1ERT1BnNI4L5fX5Ei-143">
          <mxGeometry x="840" y="640" width="120" height="60" as="geometry" />
        </mxCell>
        <mxCell id="DQC1ERT1BnNI4L5fX5Ei-133" style="edgeStyle=orthogonalEdgeStyle;rounded=0;orthogonalLoop=1;jettySize=auto;html=1;entryX=0;entryY=0.5;entryDx=0;entryDy=0;fontSize=27;fontColor=#FFFFFF;" edge="1" parent="DQC1ERT1BnNI4L5fX5Ei-143" source="DQC1ERT1BnNI4L5fX5Ei-110" target="DQC1ERT1BnNI4L5fX5Ei-126">
          <mxGeometry relative="1" as="geometry" />
        </mxCell>
        <mxCell id="DQC1ERT1BnNI4L5fX5Ei-138" style="edgeStyle=orthogonalEdgeStyle;rounded=0;orthogonalLoop=1;jettySize=auto;html=1;entryX=1;entryY=0.5;entryDx=0;entryDy=0;fontSize=27;fontColor=#FFFFFF;" edge="1" parent="DQC1ERT1BnNI4L5fX5Ei-143" source="DQC1ERT1BnNI4L5fX5Ei-127" target="n5HtSUz3Oa1L7r2nbjOb-13">
          <mxGeometry relative="1" as="geometry">
            <Array as="points">
              <mxPoint x="1130" y="411" />
              <mxPoint x="1130" y="59" />
            </Array>
          </mxGeometry>
        </mxCell>
        <mxCell id="DQC1ERT1BnNI4L5fX5Ei-127" value="Mejoramiento" style="rounded=1;whiteSpace=wrap;html=1;fontSize=17;fontStyle=1" vertex="1" parent="DQC1ERT1BnNI4L5fX5Ei-143">
          <mxGeometry x="985" y="380.62" width="120" height="60" as="geometry" />
        </mxCell>
        <mxCell id="DQC1ERT1BnNI4L5fX5Ei-139" style="edgeStyle=orthogonalEdgeStyle;rounded=0;orthogonalLoop=1;jettySize=auto;html=1;entryX=1;entryY=0.5;entryDx=0;entryDy=0;fontSize=27;fontColor=#FFFFFF;" edge="1" parent="DQC1ERT1BnNI4L5fX5Ei-143" source="DQC1ERT1BnNI4L5fX5Ei-128" target="n5HtSUz3Oa1L7r2nbjOb-13">
          <mxGeometry relative="1" as="geometry">
            <Array as="points">
              <mxPoint x="1130" y="497" />
              <mxPoint x="1130" y="59" />
            </Array>
          </mxGeometry>
        </mxCell>
        <mxCell id="DQC1ERT1BnNI4L5fX5Ei-128" value="Certicicación" style="rounded=1;whiteSpace=wrap;html=1;fontSize=17;fontStyle=1" vertex="1" parent="DQC1ERT1BnNI4L5fX5Ei-143">
          <mxGeometry x="985" y="467.37" width="120" height="60" as="geometry" />
        </mxCell>
        <mxCell id="DQC1ERT1BnNI4L5fX5Ei-142" value="Apoyo técnico, logístico y retribución" style="text;html=1;align=center;verticalAlign=middle;resizable=0;points=[];autosize=1;fontSize=17;" vertex="1" parent="DQC1ERT1BnNI4L5fX5Ei-143">
          <mxGeometry x="700" y="65" width="290" height="30" as="geometry" />
        </mxCell>
        <mxCell id="DQC1ERT1BnNI4L5fX5Ei-136" style="edgeStyle=orthogonalEdgeStyle;rounded=0;orthogonalLoop=1;jettySize=auto;html=1;entryX=0;entryY=0.5;entryDx=0;entryDy=0;fontSize=27;fontColor=#FFFFFF;" edge="1" parent="DQC1ERT1BnNI4L5fX5Ei-143" source="DQC1ERT1BnNI4L5fX5Ei-124" target="DQC1ERT1BnNI4L5fX5Ei-127">
          <mxGeometry relative="1" as="geometry" />
        </mxCell>
        <mxCell id="DQC1ERT1BnNI4L5fX5Ei-137" style="edgeStyle=orthogonalEdgeStyle;rounded=0;orthogonalLoop=1;jettySize=auto;html=1;entryX=0;entryY=0.5;entryDx=0;entryDy=0;fontSize=27;fontColor=#FFFFFF;" edge="1" parent="DQC1ERT1BnNI4L5fX5Ei-143" source="DQC1ERT1BnNI4L5fX5Ei-124" target="DQC1ERT1BnNI4L5fX5Ei-128">
          <mxGeometry relative="1" as="geometry" />
        </mxCell>
      </root>
    </mxGraphModel>
  </diagram>
</mxfile>
